<?xml version="1.0" encoding="UTF-8"?>
<svg width="48px" height="48px" viewBox="0 0 48 48" version="1.1" xmlns="http://www.w3.org/2000/svg" xmlns:xlink="http://www.w3.org/1999/xlink">
    <title>01 通用/01 图标/48px/tool6</title>
    <defs>
        <linearGradient x1="50%" y1="22.8687539%" x2="50%" y2="188.949064%" id="linearGradient-1">
            <stop stop-color="#A88EED" offset="0%"></stop>
            <stop stop-color="#7244F4" offset="100%"></stop>
        </linearGradient>
        <linearGradient x1="50%" y1="22.8687539%" x2="50%" y2="188.949064%" id="linearGradient-2">
            <stop stop-color="#A88EED" offset="0%"></stop>
            <stop stop-color="#7244F4" offset="100%"></stop>
        </linearGradient>
        <linearGradient x1="50%" y1="22.8687539%" x2="50%" y2="350.546295%" id="linearGradient-3">
            <stop stop-color="#A88EED" offset="0%"></stop>
            <stop stop-color="#7244F4" offset="100%"></stop>
        </linearGradient>
    </defs>
    <g id="01-通用/01-图标/48px/tool6" stroke="none" stroke-width="1" fill="none" fill-rule="evenodd">
        <path d="M9.47707534,18.7440912 L21.9550409,25.5260493 C22.5990474,25.8760763 22.9999865,26.5503483 22.9999648,27.2833307 L22.9995373,41.7281322 C22.9995209,42.280417 22.5517924,42.728119 21.9995077,42.7281026 C21.8277673,42.7280975 21.6589226,42.6838622 21.5092412,42.5996586 L9.0193727,35.5734507 C8.38967657,35.2192136 7.99998655,34.5528955 7.99996481,33.830399 L7.99953728,19.6227324 C7.99952067,19.0704476 8.44722244,18.6227189 8.99950719,18.6227023 C9.16632979,18.6226973 9.33050316,18.6644271 9.47707534,18.7440912 Z" id="路径" fill="url(#linearGradient-1)"></path>
        <path d="M39.9995373,19.8445194 L39.9999643,33.8302784 C39.9999863,34.5528392 39.610268,35.2192298 38.9805054,35.5734801 L26.4897572,42.5997018 C26.0084023,42.8704708 25.3986853,42.6997571 25.1279164,42.2184021 C25.0437171,42.0687182 24.9994867,41.899872 24.9994867,41.7281315 L24.9994867,27.3092287 C24.9994867,26.5675185 25.4099597,25.8867176 26.0659041,25.5404937 L38.532746,18.9601824 C39.0211687,18.7023807 39.6261031,18.889336 39.8839048,19.3777586 C39.9598407,19.5216242 39.9995323,19.6818432 39.9995373,19.8445194 Z" id="路径" fill="url(#linearGradient-2)"></path>
        <path d="M24.9805496,7.5516 L38.3304434,15.0614715 C38.8117927,15.3322506 38.9824936,15.9419711 38.7117146,16.4233204 C38.6174694,16.5908549 38.4769352,16.7276764 38.306938,16.8174032 L24.9538949,23.8653206 C24.3620663,24.1776958 23.6532235,24.1733713 23.0652502,23.8537984 L9.89136737,16.6935821 C9.40612414,16.4298446 9.22655824,15.8226758 9.49029571,15.3374326 C9.58011229,15.1721816 9.71471159,15.0356101 9.87863879,14.9433995 L23.0194369,7.55157603 C23.6282857,7.20909284 24.3717092,7.20910193 24.9805496,7.5516 Z" id="路径" fill="url(#linearGradient-3)"></path>
    </g>
</svg>