<?xml version="1.0" encoding="UTF-8"?>
<svg width="20px" height="20px" viewBox="0 0 20 20" version="1.1" xmlns="http://www.w3.org/2000/svg" xmlns:xlink="http://www.w3.org/1999/xlink">
    <title>01 通用/01 图标/16px/absent</title>
    <g id="01-通用/01-图标/16px/absent" stroke="none" stroke-width="1" fill="none" fill-rule="evenodd">
        <circle id="椭圆形" fill="#F7F7F7" opacity="0.759881882" cx="10" cy="10" r="10"></circle>
        <path d="M12.5,4 C12.7761424,4 13,4.22385763 13,4.5 L13,4.999 L14,5 C15.1045695,5 16,5.70355254 16,6.57142857 L16,8 L15.076,8 L15.076,7.999 C15.0759989,7.44671569 14.6282843,6.99900062 14.076,6.99899888 L5.92307742,6.99898973 C5.37079267,6.99898806 4.92307692,7.44670281 4.9230763,7.99898756 C4.9230763,7.99898791 4.9230763,7.99898826 4.92307735,7.99898861 L4.92307692,14 L4.92307692,14 C4.92307692,14.5522847 5.37079217,15 5.92307692,15 L9,15 L9,16 L6,16 C4.8954305,16 4,15.2964475 4,14.4285714 L4,6.57142857 C4,5.70355254 4.8954305,5 6,5 L7,4.999 L7,4.5 C7,4.22385763 7.22385763,4 7.5,4 C7.77614237,4 8,4.22385763 8,4.5 L8,4.999 L12,4.999 L12,4.5 C12,4.22385763 12.2238576,4 12.5,4 Z" id="路径" fill="#8E8E8E" fill-rule="nonzero"></path>
        <polygon id="路径" fill="#8E8E8E" points="16.5355339 14.1213203 15.1213203 15.5355339 13.0005339 13.4144661 10.8786797 15.5355339 9.46446609 14.1213203 11.5855339 11.9994661 9.46446609 9.87867966 10.8786797 8.46446609 13.0005339 10.5854661 15.1213203 8.46446609 16.5355339 9.87867966 14.4145339 11.9994661"></polygon>
    </g>
</svg>