<?xml version="1.0" encoding="UTF-8"?>
<svg width="40px" height="40px" viewBox="0 0 40 40" version="1.1" xmlns="http://www.w3.org/2000/svg" xmlns:xlink="http://www.w3.org/1999/xlink">
    <title>01 通用/01 图标/40px_导航栏/back</title>
    <g id="01-通用/01-图标/40px_导航栏/back" stroke="none" stroke-width="1" fill="none" fill-rule="evenodd">
        <path d="M16.7449366,21.2479495 C17.1539782,21.6585332 17.1539872,22.3228873 16.7449566,22.733482 L15.7345339,23.7447603 C15.3252853,24.1556121 14.6604621,24.1558935 14.2502382,23.7460165 L14.2502382,23.7447603 L6.25502378,15.7427762 C5.84602103,15.3321693 5.84602103,14.6678307 6.25502378,14.2572238 L14.2502382,6.25523972 C14.6280061,5.87599185 15.2235417,5.84657922 15.6355795,6.16667759 L15.7345339,6.25398347 C15.7347434,6.25419285 15.7349529,6.25440231 15.7345339,6.25523972 L16.7449566,7.26651798 C17.1539872,7.67711267 17.1539782,8.3414668 16.7449366,8.75205046 L12.4992717,12.999838 L24.7209302,13 C30.3979037,13 35,17.7010101 35,23.5 C35,29.1935537 30.5637313,33.8286912 25.0294961,33.9953595 L24.7209302,34 L12.05,34 C11.470101,34 11,33.529899 11,32.95 L11,31.05 C11,30.470101 11.470101,30 12.05,30 L24.3023256,30 C27.9756614,30 31,27.2522876 31,23.5 C31,19.8392316 28.5377544,17.1488046 24.9884365,17.0053948 L24.7209302,17 L12.5002717,16.999838 L16.7449366,21.2479495 Z" id="形状结合" fill="#000000"></path>
    </g>
</svg>