<?xml version="1.0" encoding="UTF-8"?>
<svg width="32px" height="32px" viewBox="0 0 32 32" version="1.1" xmlns="http://www.w3.org/2000/svg" xmlns:xlink="http://www.w3.org/1999/xlink">
    <title>01 通用/01 图标/32px/battery/100</title>
    <g id="01-通用/01-图标/32px/battery/100" stroke="none" stroke-width="1" fill="none" fill-rule="evenodd">
        <path d="M24,8 C25.5976809,8 26.9036609,9.12997521 26.9949073,10.5548008 L27,10.7142857 L27,21.2857143 C27,22.7312351 25.75108,23.912836 24.1762728,23.9953923 L24,24 L5,24 C3.40231912,24 2.09633912,22.8700248 2.00509269,21.4451992 L2,21.2857143 L2,10.7142857 C2,9.26876491 3.24891996,8.08716397 4.82372721,8.00460767 L5,8 L24,8 Z M24,10 L5,10 C4.48716416,10 4.06449284,10.3406237 4.00672773,10.7794519 L4,10.8823529 L4,21.1176471 C4,21.5701493 4.38604019,21.9430946 4.88337887,21.9940638 L5,22 L24,22 C24.5128358,22 24.9355072,21.6593763 24.9932723,21.2205481 L25,21.1176471 L25,10.8823529 C25,10.4298507 24.6139598,10.0569054 24.1166211,10.0059362 L24,10 Z M29,12 C29.5522847,12 30,12.4070139 30,12.9090909 L30,21.0909091 C30,21.5929861 29.5522847,22 29,22 C28.4477153,22 28,21.5929861 28,21.0909091 L28,12.9090909 C28,12.4070139 28.4477153,12 29,12 Z" id="形状" fill="#909093"></path>
        <rect id="矩形" fill="#44D7B6" x="6" y="12" width="17" height="8" rx="1"></rect>
    </g>
</svg>