<?xml version="1.0" encoding="UTF-8"?>
<svg width="32px" height="32px" viewBox="0 0 32 32" version="1.1" xmlns="http://www.w3.org/2000/svg" xmlns:xlink="http://www.w3.org/1999/xlink">
    <title>01 通用/01 图标/32px/check</title>
    <g id="01-通用/01-图标/32px/check" stroke="none" stroke-width="1" fill="none" fill-rule="evenodd">
        <path d="M7,25 L25,25 C25.5522847,25 26,25.4477153 26,26 C26,26.5522847 25.5522847,27 25,27 L7,27 C6.44771525,27 6,26.5522847 6,26 C6,25.4477153 6.44771525,25 7,25 Z" id="形状结合" fill="#909093"></path>
        <path d="M18.9097221,7.56857917 L7.64343979,17.9682243 C7.23327538,18.3468376 7,18.8796351 7,19.4378312 L7,23.5 L11.1090162,23.5 C11.6117962,23.5 12.0961319,23.3106326 12.4655764,22.9696069 L23.6487137,12.6467109 C24.8661759,11.5228996 24.942095,9.62492244 23.8182837,8.40746023 L23.0661691,7.65195561 C21.9272938,6.51308026 20.0929084,6.47640721 18.9097221,7.56857917 Z M21.6516692,9.06588272 L22.3554926,9.77133056 C22.7232806,10.1698412 22.6979743,10.8025002 22.2921535,11.177104 L11.1090162,21.5 L9,21.5 L9,19.4378312 L20.2662823,9.03818606 C20.6606777,8.67412874 21.2721395,8.68635309 21.6516692,9.06588272 Z" id="路径-2" fill="#909093"></path>
    </g>
</svg>