<?xml version="1.0" encoding="UTF-8"?>
<svg width="20px" height="20px" viewBox="0 0 20 20" version="1.1" xmlns="http://www.w3.org/2000/svg" xmlns:xlink="http://www.w3.org/1999/xlink">
    <!-- Generator: Sketch 62 (91390) - https://sketch.com -->
    <title>随堂测/单选/selected</title>
    <desc>Created with Sketch.</desc>
    <g id="组件" stroke="none" stroke-width="1" fill="none" fill-rule="evenodd">
        <g id="随堂测/单选/selected" transform="translate(2.000000, -2.000000)" fill="#FFFFFF">
            <path d="M16.8143972,5.8143972 L17.6464466,6.64644661 C17.8417198,6.84169774 17.8417198,7.15828023 17.6464576,7.35354238 C17.646454,7.35354605 17.6464503,7.35354972 17.6464356,7.35354238 L7.38357991,17.6157586 C7.18831168,17.8110147 6.87172919,17.8110048 6.67647313,17.6157366 C6.66667016,17.605933 6.65727918,17.595726 6.64832454,17.5851419 L1.75735723,11.8041874 C1.60676947,11.6261978 1.59918277,11.3677563 1.73907022,11.1812397 L2.67650531,9.93132626 C2.84219073,9.71041236 3.15559141,9.66564083 3.37650531,9.83132626 C3.38655035,9.83886004 3.39630803,9.84676953 3.40575761,9.85503791 L6.68717709,12.72628 C6.86848965,12.8849284 7.13715573,12.8917192 7.32625154,12.742433 L16.1510217,5.77550921 C16.3500233,5.61840269 16.6351152,5.63511517 16.8143972,5.8143972 Z" id="路径-19"></path>
        </g>
    </g>
</svg>