<?xml version="1.0" encoding="UTF-8"?>
<svg width="32px" height="32px" viewBox="0 0 32 32" version="1.1" xmlns="http://www.w3.org/2000/svg" xmlns:xlink="http://www.w3.org/1999/xlink">
    <title>01 通用/01 图标/32px/close</title>
    <g id="01-通用/01-图标/32px/close" stroke="none" stroke-width="1" fill="none" fill-rule="evenodd">
        <g id="编组" transform="translate(16.000000, 16.000000) rotate(-225.000000) translate(-16.000000, -16.000000) translate(5.000000, 5.000000)" fill="#909093">
            <path d="M11,0.585786438 C11.5128358,0.585786438 11.9355072,1.19109799 11.9932723,1.51081571 L12,1.58578644 L11.9997864,9.99978644 L20.4142136,10 C20.7692538,10 21.4142136,10.4477153 21.4142136,11 C21.4142136,11.5128358 20.808902,11.9355072 20.4891843,11.9932723 L20.4142136,12 L11.9997864,11.9997864 L12,20.4142136 C12,20.7692538 11.5522847,21.4142136 11,21.4142136 C10.4871642,21.4142136 10.0644928,20.808902 10.0067277,20.4891843 L10,20.4142136 L9.99978644,11.9997864 L1.58578644,12 C1.23074624,12 0.585786438,11.5522847 0.585786438,11 C0.585786438,10.4871642 1.19109799,10.0644928 1.51081571,10.0067277 L1.58578644,10 L9.99978644,9.99978644 L10,1.58578644 C10,1.23074624 10.4477153,0.585786438 11,0.585786438 Z" id="形状结合"></path>
        </g>
    </g>
</svg>