<?xml version="1.0" encoding="UTF-8"?>
<svg width="32px" height="32px" viewBox="0 0 32 32" version="1.1" xmlns="http://www.w3.org/2000/svg" xmlns:xlink="http://www.w3.org/1999/xlink">
    <title>01 通用/01 图标/32px/copy</title>
    <g id="01-通用/01-图标/32px/copy" stroke="none" stroke-width="1" fill="none" fill-rule="evenodd">
        <path d="M17,8 C18.5976809,8 19.9036609,9.18944759 19.9949073,10.689264 L20,10.8571429 L20,25.1428571 C20,26.664458 18.75108,27.9082485 17.1762728,27.9951498 L17,28 L7,28 C5.40231912,28 4.09633912,26.8105524 4.00509269,25.310736 L4,25.1428571 L4,10.8571429 C4,9.33554202 5.24891996,8.09175154 6.82372721,8.00485018 L7,8 L17,8 Z M17,10 L7,10 C6.48716416,10 6.06449284,10.3633319 6.00672773,10.8314154 L6,10.9411765 L6,25.0588235 C6,25.5414926 6.38604019,25.9393009 6.88337887,25.993668 L7,26 L17,26 C17.5128358,26 17.9355072,25.6366681 17.9932723,25.1685846 L18,25.0588235 L18,10.9411765 C18,10.4585074 17.6139598,10.0606991 17.1166211,10.006332 L17,10 Z M25,4 C26.5976809,4 27.9036609,5.18944759 27.9949073,6.68926401 L28,6.85714286 L28,21.1428571 C28,22.664458 26.75108,23.9082485 25.1762728,23.9951498 L25,24 L21,24 L21,22 L25,22 C25.5128358,22 25.9355072,21.6366681 25.9932723,21.1685846 L26,21.0588235 L26,6.94117647 C26,6.45850745 25.6139598,6.06069914 25.1166211,6.00633198 L25,6 L15,6 C14.4871642,6 14.0644928,6.36333194 14.0067277,6.83141541 L14,6.94117647 L14,7 L12,7 L12,6.85714286 C12,5.33554202 13.24892,4.09175154 14.8237272,4.00485018 L15,4 L25,4 Z" id="形状" fill="#909093"></path>
    </g>
</svg>