<?xml version="1.0" encoding="UTF-8"?>
<svg width="20px" height="20px" viewBox="0 0 20 20" version="1.1" xmlns="http://www.w3.org/2000/svg" xmlns:xlink="http://www.w3.org/1999/xlink">
    <title>01 通用/01 图标/16px/corrected</title>
    <g id="01-通用/01-图标/16px/corrected" stroke="none" stroke-width="1" fill="none" fill-rule="evenodd">
        <circle id="椭圆形" fill="#04B775" opacity="0.045875186" cx="10" cy="10" r="10"></circle>
        <path d="M13.3333333,4 C14.2538079,4 15,4.76751186 15,5.71428571 L15,8 L14,8 L14,5.85714286 C14,5.30485811 13.5522847,4.85714286 13,4.85714286 L7,4.85714286 C6.44771525,4.85714286 6,5.30485811 6,5.85714286 L6,14.1428571 C6,14.6951419 6.44771525,15.1428571 7,15.1428571 L9,15.142 L9,16 L6.66666667,16 C5.74619208,16 5,15.2324881 5,14.2857143 L5,5.71428571 C5,4.76751186 5.74619208,4 6.66666667,4 L13.3333333,4 Z" id="路径" fill="#04B775"></path>
        <polygon id="路径" fill="#04B775" points="16.6568542 9 18.0710678 10.4142136 12.535 15.95 9 12.4142136 10.4142136 11 12.535 13.121"></polygon>
    </g>
</svg>