<?xml version="1.0" encoding="UTF-8"?>
<svg width="20px" height="20px" viewBox="0 0 20 20" version="1.1" xmlns="http://www.w3.org/2000/svg" xmlns:xlink="http://www.w3.org/1999/xlink">
    <title>01 通用/01 图标/16px/error</title>
    <g id="01-通用/01-图标/16px/error" stroke="none" stroke-width="1" fill="none" fill-rule="evenodd">
        <circle id="椭圆形" fill="#FF4A4A" opacity="0.0474795387" cx="10" cy="10" r="10"></circle>
        <path d="M13.3333333,4 C14.2538079,4 15,4.76751186 15,5.71428571 L15,8 L14,8 L14,5.85714286 C14,5.30485811 13.5522847,4.85714286 13,4.85714286 L7,4.85714286 C6.44771525,4.85714286 6,5.30485811 6,5.85714286 L6,14.1428571 C6,14.6951419 6.44771525,15.1428571 7,15.1428571 L9,15.142 L9,16 L6.66666667,16 C5.74619208,16 5,15.2324881 5,14.2857143 L5,5.71428571 C5,4.76751186 5.74619208,4 6.66666667,4 L13.3333333,4 Z M15.1213203,8.46446609 L16.5355339,9.87867966 L14.4145339,11.9994661 L16.5355339,14.1213203 L15.1213203,15.5355339 L13.0005339,13.4144661 L10.8786797,15.5355339 L9.46446609,14.1213203 L11.5855339,11.9994661 L9.46446609,9.87867966 L10.8786797,8.46446609 L13.0005339,10.5854661 L15.1213203,8.46446609 Z" id="形状" fill="#FF7171" fill-rule="nonzero"></path>
        <rect id="矩形" fill="#FF7171" x="7" y="6" width="6" height="1"></rect>
        <polygon id="矩形" fill="#FF7171" points="7 8 10 8 9 9 7 9"></polygon>
        <polygon id="矩形" fill="#FF7171" points="7 10 8.5 10 9.5 11 7 11"></polygon>
    </g>
</svg>