<?xml version="1.0" encoding="UTF-8"?>
<svg width="64px" height="64px" viewBox="0 0 64 64" version="1.1" xmlns="http://www.w3.org/2000/svg" xmlns:xlink="http://www.w3.org/1999/xlink">
    <title>01 通用/01 图标/64px/file_unknow</title>
    <defs>
        <filter x="-28.1%" y="-300.0%" width="156.2%" height="700.0%" filterUnits="objectBoundingBox" id="filter-1">
            <feGaussianBlur stdDeviation="3" in="SourceGraphic"></feGaussianBlur>
        </filter>
        <linearGradient x1="50%" y1="0%" x2="50%" y2="99.860114%" id="linearGradient-2">
            <stop stop-color="#C0C8CD" offset="0%"></stop>
            <stop stop-color="#A4ABB0" offset="100%"></stop>
        </linearGradient>
        <linearGradient x1="-11.3009962%" y1="117.331886%" x2="69.4866071%" y2="34.7991071%" id="linearGradient-3">
            <stop stop-color="#C7D4DD" offset="0%"></stop>
            <stop stop-color="#B7BDC1" offset="100%"></stop>
        </linearGradient>
        <path d="M41,3 L55,17 L44,17 C42.3431458,17 41,15.6568542 41,14 L41,3 L41,3 Z" id="path-4"></path>
        <filter x="-14.3%" y="-7.1%" width="128.6%" height="128.6%" filterUnits="objectBoundingBox" id="filter-5">
            <feOffset dx="0" dy="1" in="SourceAlpha" result="shadowOffsetOuter1"></feOffset>
            <feGaussianBlur stdDeviation="0.5" in="shadowOffsetOuter1" result="shadowBlurOuter1"></feGaussianBlur>
            <feColorMatrix values="0 0 0 0 0.594627491   0 0 0 0 0.594627491   0 0 0 0 0.594627491  0 0 0 1 0" type="matrix" in="shadowBlurOuter1"></feColorMatrix>
        </filter>
    </defs>
    <g id="01-通用/01-图标/64px/file_unknow" stroke="none" stroke-width="1" fill="none" fill-rule="evenodd">
        <polygon id="Rectangle" fill="#A7AEB3" filter="url(#filter-1)" points="15.9821429 56 47.9821429 56 47.9821429 59 16.0230113 59"></polygon>
        <path d="M12.8458278,4 L41,4 L41,4 L55,18 L55,56.1541722 C55,57.4914503 54.8607616,57.9763797 54.5993009,58.4652686 C54.3378403,58.9541574 53.9541574,59.3378403 53.4652686,59.5993009 C52.9763797,59.8607616 52.4914503,60 51.1541722,60 L12.8458278,60 C11.5085497,60 11.0236203,59.8607616 10.5347314,59.5993009 C10.0458426,59.3378403 9.66215969,58.9541574 9.40069906,58.4652686 C9.13923842,57.9763797 9,57.4914503 9,56.1541722 L9,7.8458278 C9,6.50854969 9.13923842,6.02362033 9.40069906,5.53473144 C9.66215969,5.04584256 10.0458426,4.66215969 10.5347314,4.40069906 C11.0236203,4.13923842 11.5085497,4 12.8458278,4 Z" id="Rectangle" fill="#94979D"></path>
        <path d="M12.8458278,3 L41,3 L41,3 L55,17 L55,55.1541722 C55,56.4914503 54.8607616,56.9763797 54.5993009,57.4652686 C54.3378403,57.9541574 53.9541574,58.3378403 53.4652686,58.5993009 C52.9763797,58.8607616 52.4914503,59 51.1541722,59 L12.8458278,59 C11.5085497,59 11.0236203,58.8607616 10.5347314,58.5993009 C10.0458426,58.3378403 9.66215969,57.9541574 9.40069906,57.4652686 C9.13923842,56.9763797 9,56.4914503 9,55.1541722 L9,6.8458278 C9,5.50854969 9.13923842,5.02362033 9.40069906,4.53473144 C9.66215969,4.04584256 10.0458426,3.66215969 10.5347314,3.40069906 C11.0236203,3.13923842 11.5085497,3 12.8458278,3 Z" id="Rectangle" fill="url(#linearGradient-2)"></path>
        <g id="矩形">
            <use fill="black" fill-opacity="1" filter="url(#filter-5)" xlink:href="#path-4"></use>
            <use fill="url(#linearGradient-3)" fill-rule="evenodd" xlink:href="#path-4"></use>
        </g>
    </g>
</svg>