<?xml version="1.0" encoding="UTF-8"?>
<svg width="24px" height="24px" viewBox="0 0 24 24" version="1.1" xmlns="http://www.w3.org/2000/svg" xmlns:xlink="http://www.w3.org/1999/xlink">
    <title>01 通用/01 图标/24px/pdf备份</title>
    <defs>
        <linearGradient x1="50%" y1="0.171558277%" x2="50%" y2="98.6088097%" id="linearGradient-1">
            <stop stop-color="#D95A5A" offset="0%"></stop>
            <stop stop-color="#973030" offset="100%"></stop>
        </linearGradient>
        <linearGradient x1="0%" y1="100%" x2="88.0022321%" y2="50%" id="linearGradient-2">
            <stop stop-color="#D36A6A" offset="0%"></stop>
            <stop stop-color="#C54B4B" offset="100%"></stop>
        </linearGradient>
        <path d="M16,1 L21,6 L17,6 C16.4477153,6 16,5.55228475 16,5 L16,1 L16,1 Z" id="path-3"></path>
        <filter x="-40.0%" y="-20.0%" width="180.0%" height="180.0%" filterUnits="objectBoundingBox" id="filter-4">
            <feOffset dx="0" dy="1" in="SourceAlpha" result="shadowOffsetOuter1"></feOffset>
            <feGaussianBlur stdDeviation="0.5" in="shadowOffsetOuter1" result="shadowBlurOuter1"></feGaussianBlur>
            <feColorMatrix values="0 0 0 0 0.676432292   0 0 0 0 0.247101438   0 0 0 0 0.247101438  0 0 0 1 0" type="matrix" in="shadowBlurOuter1"></feColorMatrix>
        </filter>
    </defs>
    <g id="01-通用/01-图标/24px/pdf备份" stroke="none" stroke-width="1" fill="none" fill-rule="evenodd">
        <path d="M5.5638852,1 L16,1 L16,1 L21,6.01984127 L21,20.4361148 C21,21.3276335 20.9071744,21.6509198 20.7328673,21.9768457 C20.5585602,22.3027716 20.3027716,22.5585602 19.9768457,22.7328673 C19.6509198,22.9071744 19.3276335,23 18.4361148,23 L5.5638852,23 C4.67236646,23 4.34908022,22.9071744 4.0231543,22.7328673 C3.69722837,22.5585602 3.4414398,22.3027716 3.2671327,21.9768457 C3.09282561,21.6509198 3,21.3276335 3,20.4361148 L3,3.5638852 C3,2.67236646 3.09282561,2.34908022 3.2671327,2.0231543 C3.4414398,1.69722837 3.69722837,1.4414398 4.0231543,1.2671327 C4.34908022,1.09282561 4.67236646,1 5.5638852,1 Z" id="Rectangle" fill="url(#linearGradient-1)"></path>
        <g id="矩形">
            <use fill="black" fill-opacity="1" filter="url(#filter-4)" xlink:href="#path-3"></use>
            <use fill="url(#linearGradient-2)" fill-rule="evenodd" xlink:href="#path-3"></use>
        </g>
        <path d="M16,9.28862619 L16,10.5007811 C15.9999906,10.6631677 15.880205,10.8006681 15.7193509,10.8229241 C15.7193509,10.8229241 15.7193509,10.8229241 15.7193509,10.8229241 C14.6965073,10.9644464 13.8839842,11.825352 13.1363636,13.2307692 L14.5770751,13.2307692 C14.6851308,13.2307692 14.7727273,13.3183657 14.7727273,13.4264214 L14.7727273,14.5735786 C14.7727273,14.6816343 14.6851308,14.7692308 14.5770751,14.7692308 L12.3181818,14.7692308 L12.3181818,14.7692308 C11.1920797,17.3842686 9.47677838,18.8927286 7.22084191,18.9945109 C7.22084191,18.9945109 7.22084191,18.9945109 7.22084191,18.9945109 C7.10425821,18.9997709 7.0054844,18.9095252 7.00022443,18.7929415 C7.00008128,18.7897688 7.00000968,18.7865934 7,18.7834175 L7,17.4366854 C6.99998406,17.3075616 7.09921984,17.2001198 7.22793713,17.1898824 C7.22793713,17.1898824 7.22793713,17.1898824 7.22793713,17.1898824 C8.62970363,17.0783938 9.74670854,16.055739 10.5983497,13.9485549 L10.683744,13.7313021 C11.7940393,10.8273072 13.4620922,9.18919908 15.7015759,9.01280492 C15.7015759,9.01280492 15.7015759,9.01280492 15.7015759,9.01280492 C15.8539078,9.00080642 15.9871239,9.11456909 15.9991224,9.26690097 C15.9996917,9.27412872 15.9999767,9.28137605 16,9.28862619 Z" id="路径" fill="#FFFFFF" fill-rule="nonzero"></path>
    </g>
</svg>