<?xml version="1.0" encoding="UTF-8"?>
<svg width="32px" height="32px" viewBox="0 0 32 32" version="1.1" xmlns="http://www.w3.org/2000/svg" xmlns:xlink="http://www.w3.org/1999/xlink">
    <title>01 通用/01 图标/32px/fullscreen</title>
    <g id="01-通用/01-图标/32px/fullscreen" stroke="none" stroke-width="1" fill="none" fill-rule="evenodd">
        <path d="M24,6 C25.0543618,6 25.9181651,6.81587779 25.9945143,7.85073766 L26,8 L26,15 C26,15.5522847 25.5522847,16 25,16 C24.4871642,16 24.0644928,15.6139598 24.0067277,15.1166211 L24,15 L24,9.414 L18.7071068,14.7071068 C18.3165825,15.0976311 17.6834175,15.0976311 17.2928932,14.7071068 C16.9324093,14.3466228 16.9046797,13.7793918 17.2097046,13.3871006 L17.2928932,13.2928932 L22.584,8 L17,8 C16.4477153,8 16,7.55228475 16,7 C16,6.48716416 16.3860402,6.06449284 16.8833789,6.00672773 L17,6 L24,6 Z" id="形状结合" fill="#909093"></path>
        <path d="M14,16 C15.0543618,16 15.9181651,16.8158778 15.9945143,17.8507377 L16,18 L16,25 C16,25.5522847 15.5522847,26 15,26 C14.4871642,26 14.0644928,25.6139598 14.0067277,25.1166211 L14,25 L14,19.414 L8.70710678,24.7071068 C8.31658249,25.0976311 7.68341751,25.0976311 7.29289322,24.7071068 C6.93240926,24.3466228 6.90467972,23.7793918 7.20970461,23.3871006 L7.29289322,23.2928932 L12.584,18 L7,18 C6.44771525,18 6,17.5522847 6,17 C6,16.4871642 6.38604019,16.0644928 6.88337887,16.0067277 L7,16 L14,16 Z" id="形状结合" fill="#909093" transform="translate(11.000000, 21.000000) rotate(-180.000000) translate(-11.000000, -21.000000) "></path>
    </g>
</svg>