<?xml version="1.0" encoding="UTF-8"?>
<svg width="32px" height="32px" viewBox="0 0 32 32" version="1.1" xmlns="http://www.w3.org/2000/svg" xmlns:xlink="http://www.w3.org/1999/xlink">
    <title>01 通用/01 图标/32px/hide_password</title>
    <g id="01-通用/01-图标/32px/hide_password" stroke="none" stroke-width="1" fill="none" fill-rule="evenodd">
        <path d="M26,12 C26.5522847,12 27,12.4477153 27,13 C27,15.099145 25.6252469,16.9220795 23.4515806,18.1810254 L24.1094004,19.1679497 C24.4157529,19.6274784 24.291579,20.2483477 23.8320503,20.5547002 C23.3725216,20.8610527 22.7516523,20.7368788 22.4452998,20.2773501 L22.4452998,20.2773501 L21.6191548,19.0380177 C20.2399312,19.5516253 18.6701084,19.8781714 17.0010543,19.9719945 L17,22 C17,22.5522847 16.5522847,23 16,23 C15.4477153,23 15,22.5522847 15,22 L14.9999469,19.9720507 C13.2219059,19.8722026 11.5564526,19.5082485 10.1140398,18.9353874 L9.21880078,20.2773501 C8.91244833,20.7368788 8.29157898,20.8610527 7.83205029,20.5547002 C7.37252161,20.2483477 7.24834774,19.6274784 7.5547002,19.1679497 L8.30711798,18.0369284 C6.27351106,16.7848757 5,15.0203725 5,13 C5,12.4477153 5.44771525,12 6,12 C6.55228475,12 7,12.4477153 7,13 C7,15.6078937 10.9048102,17.9682233 15.898964,17.9996819 L16.102,17.999 L16.3074674,17.9970487 C21.1024372,17.9048563 24.8444716,15.6661059 24.9952739,13.1572092 L25,13 C25,12.4477153 25.4477153,12 26,12 Z" id="形状结合" fill="#979797" fill-rule="nonzero"></path>
    </g>
</svg>