<?xml version="1.0" encoding="UTF-8"?>
<svg width="32px" height="32px" viewBox="0 0 32 32" version="1.1" xmlns="http://www.w3.org/2000/svg" xmlns:xlink="http://www.w3.org/1999/xlink">
    <title>01 通用/01 图标/32px/large_view</title>
    <g id="01-通用/01-图标/32px/large_view" stroke="none" stroke-width="1" fill="none" fill-rule="evenodd">
        <path d="M25,6 C26.0543618,6 26.9181651,6.81587779 26.9945143,7.85073766 L27,8 L27,24 C27,25.0543618 26.1841222,25.9181651 25.1492623,25.9945143 L25,26 L7,26 C5.9456382,26 5.08183488,25.1841222 5.00548574,24.1492623 L5,24 L5,8 C5,6.9456382 5.81587779,6.08183488 6.85073766,6.00548574 L7,6 L25,6 Z M24,8 L8,8 C7.48716416,8 7.06449284,8.38604019 7.00672773,8.88337887 L7,9 L7,23 C7,23.5128358 7.38604019,23.9355072 7.88337887,23.9932723 L8,24 L24,24 C24.5128358,24 24.9355072,23.6139598 24.9932723,23.1166211 L25,23 L25,9 C25,8.48716416 24.6139598,8.06449284 24.1166211,8.00672773 L24,8 Z M23,20 C23,20.5522847 22.5522847,21 22,21 L10,21 C9.44771525,21 9,20.5522847 9,20 C9,19.4477153 9.44771525,19 10,19 L22,19 C22.5522847,19 23,19.4477153 23,20 Z M23,16 C23,16.5522847 22.5522847,17 22,17 L10,17 C9.44771525,17 9,16.5522847 9,16 C9,15.4477153 9.44771525,15 10,15 L22,15 C22.5522847,15 23,15.4477153 23,16 Z M23,12 C23,12.5522847 22.5522847,13 22,13 L10,13 C9.44771525,13 9,12.5522847 9,12 C9,11.4477153 9.44771525,11 10,11 L22,11 C22.5522847,11 23,11.4477153 23,12 Z" id="形状" fill="#909093"></path>
    </g>
</svg>