<?xml version="1.0" encoding="UTF-8"?>
<svg width="24px" height="24px" viewBox="0 0 24 24" version="1.1" xmlns="http://www.w3.org/2000/svg" xmlns:xlink="http://www.w3.org/1999/xlink">
    <title>01 通用/01 图标/24px/link</title>
    <defs>
        <linearGradient x1="50%" y1="0%" x2="50%" y2="100%" id="linearGradient-1">
            <stop stop-color="#71CFFE" offset="0%"></stop>
            <stop stop-color="#36B1EF" offset="100%"></stop>
        </linearGradient>
        <linearGradient x1="0%" y1="100%" x2="55.3236145%" y2="50%" id="linearGradient-2">
            <stop stop-color="#94DBFF" offset="0%"></stop>
            <stop stop-color="#71CFFE" offset="100%"></stop>
        </linearGradient>
    </defs>
    <g id="01-通用/01-图标/24px/link" stroke="none" stroke-width="1" fill="none" fill-rule="evenodd">
        <path d="M5.5638852,1 L16,1 L16,1 L21,6.01984127 L21,20.4361148 C21,21.3276335 20.9071744,21.6509198 20.7328673,21.9768457 C20.5585602,22.3027716 20.3027716,22.5585602 19.9768457,22.7328673 C19.6509198,22.9071744 19.3276335,23 18.4361148,23 L5.5638852,23 C4.67236646,23 4.34908022,22.9071744 4.0231543,22.7328673 C3.69722837,22.5585602 3.4414398,22.3027716 3.2671327,21.9768457 C3.09282561,21.6509198 3,21.3276335 3,20.4361148 L3,3.5638852 C3,2.67236646 3.09282561,2.34908022 3.2671327,2.0231543 C3.4414398,1.69722837 3.69722837,1.4414398 4.0231543,1.2671327 C4.34908022,1.09282561 4.67236646,1 5.5638852,1 Z" id="Rectangle" fill="url(#linearGradient-1)"></path>
        <path d="M16,1 L21,6 L17,6 C16.4477153,6 16,5.55228475 16,5 L16,1 L16,1 Z" id="矩形" fill="url(#linearGradient-2)"></path>
        <path d="M12.4835862,12.3848747 C12.7162116,12.510779 12.9347722,12.6720305 13.1313708,12.8686292 C13.6493428,13.3866011 13.9219532,14.0570211 13.9492022,14.7354609 L13.9504073,14.7974082 C13.9531531,14.9158015 13.9478426,15.0342241 13.9350781,15.1519918 L13.9102837,15.3283866 L13.9102837,15.3283866 L13.8762561,15.4948289 L13.8762561,15.4948289 L13.8444002,15.6172732 L13.8444002,15.6172732 L13.7894766,15.7890602 L13.7894766,15.7890602 C13.6543515,16.168732 13.4350226,16.5247753 13.1313708,16.8284271 L11.1514719,18.8083261 C10.0580038,19.9017941 8.2851419,19.9017941 7.19167389,18.8083261 C6.09820587,17.7148581 6.09820587,15.9419962 7.19167389,14.8485281 L9.17157288,12.8686292 L9.26804348,12.775999 C9.21470383,13.2876203 9.27070577,13.8084841 9.4360493,14.3006981 L8.04020203,15.6970563 C7.41536316,16.3218951 7.41536316,17.3349591 8.04020203,17.959798 C8.64610638,18.5657023 9.61706354,18.5840631 10.2450923,18.0148802 L12.2828427,15.979899 L12.3635729,15.8915729 L12.4494487,15.7844894 L12.4494487,15.7844894 L12.5078272,15.6978979 L12.5483305,15.6296149 L12.5483305,15.6296149 L12.5847574,15.560626 L12.5847574,15.560626 L12.6174793,15.4905528 C12.6690227,15.3727759 12.7056956,15.2500586 12.7274979,15.1252515 C12.7491322,15.0014816 12.7561316,14.8754872 12.7484677,14.7502223 C12.7283993,14.4222054 12.6077841,14.0991891 12.3866222,13.8312949 L12.2764623,13.7107056 C11.9982584,13.4262486 11.9747248,12.9857289 12.2058616,12.6748689 L12.2828427,12.5857864 L12.4835862,12.3848747 Z M16.8083261,9.19167389 C17.9017941,10.2851419 17.9017941,12.0580038 16.8083261,13.1514719 L14.8284271,15.1313708 L14.7319565,15.224001 C14.7852962,14.7123797 14.7292942,14.1915159 14.5639507,13.6993019 L15.959798,12.3029437 C16.5846368,11.6781049 16.5846368,10.6650409 15.959798,10.040202 C15.3538936,9.43429767 14.3829365,9.41593693 13.7549077,9.98511981 L11.7171573,12.020101 L11.6305729,12.1135729 L11.5409888,12.2288822 L11.5409888,12.2288822 L11.4784453,12.3243853 L11.4104024,12.4491981 L11.3838844,12.5063404 C11.3454122,12.5937407 11.3151412,12.6838796 11.2930714,12.7755894 C11.2685318,12.8775831 11.2541387,12.9814441 11.2498745,13.0856423 L11.2485301,13.1489801 C11.2479696,13.5111124 11.3695855,13.8733987 11.6133778,14.1687051 L11.7235377,14.2892944 C12.0017416,14.5737514 12.0252752,15.0142711 11.7941384,15.3251311 L11.7171573,15.4142136 L11.5164138,15.6151253 C11.2837884,15.489221 11.0652278,15.3279695 10.8686292,15.1313708 C10.3990182,14.6617599 10.1310908,14.066839 10.0648468,13.4542416 L10.0496098,13.2034401 L10.0496098,13.2034401 C10.046817,13.0848662 10.0521214,12.966108 10.0649219,12.8480082 L10.082793,12.7136009 L10.082793,12.7136009 L10.1215097,12.5147492 L10.1215097,12.5147492 L10.1439129,12.4250582 L10.1439129,12.4250582 L10.2105234,12.2109398 L10.2105234,12.2109398 C10.3460357,11.8306395 10.5652454,11.4749566 10.8686292,11.1715729 L12.8485281,9.19167389 C13.9419962,8.09820587 15.7148581,8.09820587 16.8083261,9.19167389 Z" id="形状" fill="#FFFFFF" fill-rule="nonzero"></path>
    </g>
</svg>