<?xml version="1.0" encoding="UTF-8"?>
<svg width="200px" height="92px" viewBox="0 0 200 92" version="1.1" xmlns="http://www.w3.org/2000/svg" xmlns:xlink="http://www.w3.org/1999/xlink">
    <!-- Generator: Sketch 64 (93537) - https://sketch.com -->
    <title>zz 其他/组件库/导航头</title>
    <desc>Created with Sketch.</desc>
    <defs>
        <rect id="path-1" x="0" y="0" width="200" height="92"></rect>
    </defs>
    <g id="zz-其他/组件库/导航头" stroke="none" stroke-width="1" fill="none" fill-rule="evenodd">
        <mask id="mask-2" fill="white">
            <use xlink:href="#path-1"></use>
        </mask>
        <g id="Rectangle"></g>
        <path d="M15.9668249,34.240811 L15.9740556,34.2193315 C15.9774097,34.2091546 15.9809097,34.1990535 15.9845528,34.1890301 C15.9919916,34.1662418 16.0010768,34.1432841 16.0109694,34.1206228 C16.0166692,34.1104512 16.0213393,34.1003759 16.0261573,34.090394 C16.1172121,33.8953761 16.2709237,33.7245346 16.4860548,33.6097973 C16.5114281,33.5962926 16.5369266,33.583722 16.5629022,33.5721555 C16.5643258,33.571774 16.5657199,33.571161 16.5671161,33.5705501 L33.8471161,26.0105501 C34.1230783,25.8898166 34.4369227,25.8898166 34.7128848,26.0105501 L51.9928848,33.5705501 C52.3466805,33.7253357 52.5878077,34.0554055 52.6324951,34.4326721 L52.64,34.56 L52.64,57.024 L52.6323531,57.1525272 C52.5868285,57.5332563 52.3412639,57.8654538 51.9824319,58.0179574 L51.9824319,58.0179574 L34.7024319,65.3619574 C34.663999,65.3784659 34.630119,65.3908171 34.5956248,65.4014655 C34.5857983,65.4040837 34.5821508,65.4051674 34.5785025,65.4062306 C34.5513438,65.4144956 34.5236335,65.4213819 34.4956145,65.4271622 C34.4814988,65.429822 34.467155,65.4324971 34.4528202,65.4348703 C34.4310697,65.4386537 34.4094075,65.44153 34.3876116,65.4437393 C34.3712104,65.4452921 34.3548124,65.4465886 34.3384507,65.4475024 C34.3205031,65.4485584 34.3021541,65.4490924 34.2837415,65.4491466 L34.2503134,65.4487525 C34.2405972,65.4484859 34.2309009,65.4480861 34.2212267,65.4475546 C34.2051876,65.4465886 34.1887896,65.4452921 34.1723659,65.4436059 C34.1505925,65.44153 34.1289303,65.4386537 34.1074283,65.435128 C34.0994809,65.4335957 34.0917795,65.4322341 34.0840765,65.4307846 L34.0663777,65.4275711 C34.0547563,65.4251966 34.0431878,65.4226319 34.0316763,65.4198798 L33.9814975,65.4062306 C33.9400396,65.3941485 33.8986742,65.3794275 33.8575681,65.3619574 L33.9643752,65.4014655 C33.929881,65.3908171 33.896001,65.3784659 33.8628588,65.3644934 L33.8575681,65.3619574 L16.5775681,58.0179574 C16.1788659,57.848509 15.92,57.4572161 15.92,57.024 L15.92,57.024 L15.92,34.56 C15.92,34.5549503 15.9200336,34.5499114 15.9201007,34.5448832 C15.920575,34.5076782 15.9229905,34.4698075 15.9273385,34.4321379 C15.9280218,34.425998 15.9288668,34.4192108 15.9297733,34.4124477 L15.9273385,34.4321379 C15.931197,34.3987086 15.9365775,34.3654377 15.9434805,34.3324508 C15.9441145,34.3298539 15.944679,34.327233 15.9452528,34.3246162 L15.9668249,34.240811 L15.9668249,34.240811 Z M18.08,36.192 L18.08,56.31 L33.199,62.736 L33.199,60.109 L20.8923998,54.8039189 C20.5360548,54.6502774 20.292687,54.3191276 20.2475768,53.9401087 L20.24,53.8121739 L20.24,37.11 L18.08,36.192 Z M34.2800005,28.178 L19.7270005,34.545 L34.7024324,40.9100426 L34.8177289,40.9673525 C35.1503191,41.1581688 35.3600005,41.5141055 35.3600005,41.904 L35.3600005,62.736 L50.48,56.31 L50.4800005,35.266 L34.2800005,28.178 Z M22.4,38.06 L22.4,53.102 L33.199,57.758 L33.199,54.709 L25.2123998,51.2665276 C24.8560548,51.1128861 24.612687,50.7817363 24.5675768,50.4027173 L24.56,50.2747826 L24.559,39.012 L22.4,38.06 Z M26.72,39.991 L26.72,49.565 L33.2,52.358 L33.199,49.318 L29.5429621,47.787816 C29.1815414,47.6365198 28.9336787,47.3032378 28.8877203,46.9207278 L28.88,46.7915834 L28.879,40.936 L26.72,39.991 Z M31.039,41.881 L31.04,46.072 L33.2,46.976 L33.2,42.826 L31.039,41.881 Z" id="Combined-Shape" fill="#959595" fill-rule="nonzero" mask="url(#mask-2)"></path>
        <path d="M61.6015625,52.8388672 C62.0253906,52.8343099 62.4936523,52.8115234 63.0063477,52.7705078 C63.519043,52.7294922 63.8779297,52.5517578 64.0830078,52.2373047 C64.2880859,51.9228516 64.390625,51.5263672 64.390625,51.0478516 L64.390625,51.0478516 L64.390625,47.6435547 L65.4296875,47.4658203 C65.3932292,46.9736328 65.3886719,46.3720703 65.4160156,45.6611328 L65.4160156,45.6611328 L64.390625,45.8388672 L64.390625,43.7333984 L65.4980469,43.7333984 L65.4980469,41.9833984 L64.390625,41.9833984 L64.390625,39.4541016 L62.6953125,39.4541016 L62.6953125,41.9833984 L61.3964844,41.9833984 L61.3964844,43.7333984 L62.6953125,43.7333984 L62.6953125,46.1123047 C62.1165365,46.1988932 61.6152344,46.2672526 61.1914062,46.3173828 L61.1914062,46.3173828 L61.3964844,48.2724609 C61.8385417,48.1676432 62.2714844,48.0696615 62.6953125,47.9785156 L62.6953125,47.9785156 L62.6953125,50.4462891 C62.6953125,50.6787109 62.6531576,50.8416341 62.5688477,50.9350586 C62.4845378,51.0284831 62.3261719,51.0751953 62.09375,51.0751953 C61.8704427,51.0751953 61.5696615,51.0615234 61.1914062,51.0341797 C61.3828125,51.6630859 61.5195312,52.2646484 61.6015625,52.8388672 Z M66.0175781,41.6689453 L74.4804688,41.2041016 C74.3255208,40.1559245 74.2480469,39.6272786 74.2480469,39.6181641 C71.6230469,39.7913411 68.7792969,39.9326172 65.7167969,40.0419922 C65.8261719,40.4156901 65.9264323,40.9580078 66.0175781,41.6689453 L66.0175781,41.6689453 Z M67.3847656,46.0712891 L67.3847656,45.3330078 L72.6894531,45.3330078 L72.6894531,46.0712891 L74.5078125,46.0712891 L74.5078125,43.8291016 L73.0791016,43.8291016 L74.1660156,42.0927734 L72.4433594,41.4638672 C72.0377604,42.3525391 71.6298828,43.1409505 71.2197266,43.8291016 L71.2197266,43.8291016 L69.7226562,43.8291016 L71.28125,43.1591797 C70.9713542,42.5758464 70.656901,42.0107422 70.3378906,41.4638672 L70.3378906,41.4638672 L68.7519531,42.0654297 C69.2076823,42.867513 69.5152995,43.4554036 69.6748047,43.8291016 L69.6748047,43.8291016 L67.78125,43.8291016 L68.7519531,43.3642578 C68.4511719,42.8538411 68.0820312,42.2932943 67.6445312,41.6826172 L67.6445312,41.6826172 L66.1132812,42.3662109 C66.5052083,43.0133464 66.7945964,43.5009766 66.9814453,43.8291016 L66.9814453,43.8291016 L65.5664062,43.8291016 L65.5664062,46.0712891 L67.3847656,46.0712891 Z M65.9492188,52.8798828 C67.530599,52.5289714 68.8977865,52.0572917 70.0507812,51.4648438 C71.171875,52.0800781 72.5071615,52.5472005 74.0566406,52.8662109 C74.2298177,52.4195964 74.4804688,51.836263 74.8085938,51.1162109 C73.6419271,50.9794922 72.6142578,50.742513 71.7255859,50.4052734 C72.6507161,49.6852214 73.3639323,48.8421224 73.8652344,47.8759766 L73.8652344,47.8759766 L73.8652344,46.2353516 L66.2363281,46.2353516 L66.2363281,47.8349609 L67.7265625,47.8349609 L66.7832031,48.3955078 C67.2252604,49.1429036 67.7835286,49.8059896 68.4580078,50.3847656 C67.5146484,50.7630208 66.4049479,51.0660807 65.1289062,51.2939453 C65.4114583,51.7861328 65.6848958,52.3147786 65.9492188,52.8798828 Z M70.078125,49.5576172 C69.3854167,49.0791016 68.8271484,48.5048828 68.4033203,47.8349609 L68.4033203,47.8349609 L71.8144531,47.8349609 C71.4134115,48.4912109 70.8346354,49.0654297 70.078125,49.5576172 Z M80.2695312,42.9541016 L81.9511719,41.9287109 C81.4589844,41.1266276 80.8984375,40.2880859 80.2695312,39.4130859 L80.2695312,39.4130859 L78.6835938,40.3427734 C79.3489583,41.2998047 79.8776042,42.1702474 80.2695312,42.9541016 L80.2695312,42.9541016 Z M87.7070312,52.8251953 L87.7070312,49.2705078 C88.5273438,50.4462891 89.5983073,51.3805339 90.9199219,52.0732422 C91.2845052,51.398763 91.6171875,50.819987 91.9179688,50.3369141 C90.6145833,49.8994141 89.5709635,49.2431641 88.7871094,48.3681641 L88.7871094,48.3681641 L91.6445312,48.3681641 L91.6445312,46.9462891 L87.7070312,46.9462891 L87.7070312,46.0166016 L91.0703125,46.0166016 L91.0703125,39.8642578 L82.6210938,39.8642578 L82.6210938,46.0166016 L85.9570312,46.0166016 L85.9570312,46.9462891 L82.046875,46.9462891 L82.046875,48.3681641 L85.0410156,48.3681641 C84.4303385,49.0791016 83.3365885,49.9267578 81.7597656,50.9111328 C82.2246094,51.4033203 82.6210938,51.8681641 82.9492188,52.3056641 C84.1888021,51.3850911 85.1914062,50.3414714 85.9570312,49.1748047 L85.9570312,49.1748047 L85.9570312,52.8251953 L87.7070312,52.8251953 Z M89.3476562,42.2705078 L87.7070312,42.2705078 L87.7070312,41.2587891 L89.3476562,41.2587891 L89.3476562,42.2705078 Z M85.9570312,42.2705078 L84.34375,42.2705078 L84.34375,41.2587891 L85.9570312,41.2587891 L85.9570312,42.2705078 Z M89.3476562,44.6220703 L87.7070312,44.6220703 L87.7070312,43.6103516 L89.3476562,43.6103516 L89.3476562,44.6220703 Z M85.9570312,44.6220703 L84.34375,44.6220703 L84.34375,43.6103516 L85.9570312,43.6103516 L85.9570312,44.6220703 Z M80.1191406,52.1005859 C80.7207031,51.5354818 81.5,50.8929036 82.4570312,50.1728516 C82.4114583,49.7080078 82.3658854,49.1292318 82.3203125,48.4365234 C82.0195312,48.6826172 81.686849,48.9423828 81.3222656,49.2158203 L81.3222656,49.2158203 L81.3222656,43.9521484 L78.2460938,43.9521484 L78.2460938,45.7294922 L79.5039062,45.7294922 L79.5039062,49.8583984 C79.5039062,50.3597005 79.3854167,50.7197266 79.1484375,50.9384766 L79.1484375,50.9384766 L80.1191406,52.1005859 Z M107.960938,43.2548828 L107.960938,40.1376953 L106.375,40.1376953 L106.375,41.6689453 L105.103516,41.6689453 L105.103516,39.2763672 L103.339844,39.2763672 L103.339844,41.6689453 L102.082031,41.6689453 L102.082031,40.1376953 L100.496094,40.1376953 L100.496094,43.2548828 L107.960938,43.2548828 Z M99.8671875,43.4462891 L99.8671875,41.7236328 L97.5361328,41.7236328 L98.7871094,41.2177734 C98.3678385,40.3792318 98.0351562,39.7366536 97.7890625,39.2900391 L97.7890625,39.2900391 L96.1757812,39.9326172 C96.4173177,40.4020182 96.6884766,40.9990234 96.9892578,41.7236328 L96.9892578,41.7236328 L95.3417969,41.7236328 L95.3417969,43.4462891 L99.8671875,43.4462891 Z M95.4921875,51.7861328 C97.0052083,51.4580078 98.3997396,51.1845703 99.6757812,50.9658203 C99.7213542,50.1090495 99.7623698,49.5348307 99.7988281,49.2431641 L99.7988281,49.2431641 L98.8623047,49.4072266 L99.7988281,43.9384766 L98.1445312,43.7333984 C97.9348958,45.7932943 97.7001953,47.7620443 97.4404297,49.6396484 L97.4404297,49.6396484 L95.1914062,49.9951172 L95.4921875,51.7861328 Z M96.0253906,48.9970703 L97.5429688,48.7373047 L96.8320312,43.7880859 L95.3554688,44.0341797 C95.6197917,45.6474609 95.843099,47.3017578 96.0253906,48.9970703 L96.0253906,48.9970703 Z M106.77832,52.8457031 C107.193034,52.8457031 107.55306,52.7750651 107.858398,52.6337891 C108.163737,52.492513 108.316406,52.1826172 108.316406,51.7041016 L108.316406,51.7041016 L108.316406,46.5087891 L104.597656,46.5087891 L104.816406,45.6474609 L108.507812,45.6474609 L108.507812,44.0341797 L100.003906,44.0341797 L100.003906,45.6474609 L103.073242,45.6474609 L102.895508,46.5087891 L100.072266,46.5087891 L100.072266,52.7705078 L101.685547,52.7705078 L101.685547,48.1220703 L102.464844,48.1220703 L102.464844,52.0869141 L103.804688,52.0869141 L103.804688,48.1220703 L104.583984,48.1220703 L104.583984,52.0869141 L105.780273,52.0869141 L105.869141,52.7705078 C106.174479,52.820638 106.477539,52.8457031 106.77832,52.8457031 Z M106.40918,51.2939453 C106.34082,51.2939453 106.179036,51.2802734 105.923828,51.2529297 L105.923828,51.2529297 L105.923828,48.1220703 L106.703125,48.1220703 L106.703125,50.9521484 C106.71224,51.180013 106.614258,51.2939453 106.40918,51.2939453 Z M114.666016,42.9130859 L116.361328,41.7646484 C115.805339,41.0263672 115.153646,40.210612 114.40625,39.3173828 L114.40625,39.3173828 L112.875,40.3291016 C113.41276,40.9671224 114.009766,41.8284505 114.666016,42.9130859 L114.666016,42.9130859 Z M116.703125,52.8798828 C118.229818,52.5152995 119.583333,51.9410807 120.763672,51.1572266 C121.934896,51.8909505 123.261068,52.4332682 124.742188,52.7841797 C125.088542,52.0641276 125.44401,51.4261068 125.808594,50.8701172 C124.537109,50.6695964 123.395508,50.3300781 122.383789,49.8515625 C123.313477,48.9446615 124.099609,47.8577474 124.742188,46.5908203 L124.742188,46.5908203 L124.742188,44.9775391 L117.817383,44.9775391 C119.03418,43.9521484 119.647135,42.7900391 119.65625,41.4912109 L119.65625,41.4912109 L121.994141,41.4912109 L121.994141,42.8720703 C121.994141,43.8473307 122.509115,44.3349609 123.539062,44.3349609 C123.93099,44.3349609 124.550781,44.3258464 125.398438,44.3076172 C125.453125,43.9248047 125.567057,43.3642578 125.740234,42.6259766 C124.90625,42.648763 124.381022,42.6396484 124.164551,42.5986328 C123.948079,42.5576172 123.839844,42.3616536 123.839844,42.0107422 L123.839844,42.0107422 L123.839844,39.8232422 L117.783203,39.8232422 L117.783203,40.7119141 C117.783203,41.8968099 117.291016,42.835612 116.306641,43.5283203 C116.880859,44.0797526 117.347982,44.5628255 117.708008,44.9775391 L117.708008,44.9775391 L116.771484,44.9775391 L116.771484,46.6728516 L118.241211,46.6728516 L117.044922,47.4521484 C117.641927,48.3818359 118.327799,49.1998698 119.102539,49.90625 C118.113607,50.4075521 116.958333,50.8017578 115.636719,51.0888672 C116.110677,51.7086589 116.466146,52.3056641 116.703125,52.8798828 Z M114.228516,52.4013672 C114.830078,51.726888 115.76888,50.8245443 117.044922,49.6943359 C116.853516,48.992513 116.721354,48.2952474 116.648438,47.6025391 C116.05599,48.1858724 115.632161,48.6142578 115.376953,48.8876953 L115.376953,48.8876953 L115.376953,43.9248047 L112.205078,43.9248047 L112.205078,45.7841797 L113.53125,45.7841797 L113.53125,49.8720703 C113.522135,50.3277995 113.421875,50.6832682 113.230469,50.9384766 L113.230469,50.9384766 L114.228516,52.4013672 Z M120.743164,48.8671875 C119.931966,48.2610677 119.236979,47.5296224 118.658203,46.6728516 L118.658203,46.6728516 L122.595703,46.6728516 C122.144531,47.5068359 121.527018,48.2382812 120.743164,48.8671875 Z M131.666016,42.9267578 L133.416016,41.8740234 C132.923828,41.1357422 132.322266,40.2880859 131.611328,39.3310547 L131.611328,39.3310547 L130.011719,40.2470703 C130.667969,41.2314453 131.219401,42.1246745 131.666016,42.9267578 L131.666016,42.9267578 Z M139.28125,52.8525391 L139.28125,45.3330078 L142.78125,45.3330078 L142.78125,43.5009766 L139.28125,43.5009766 L139.28125,39.3447266 L137.230469,39.3447266 L137.230469,43.5009766 L133.757812,43.5009766 L133.757812,45.3330078 L137.230469,45.3330078 L137.230469,52.8525391 L139.28125,52.8525391 Z M131.324219,52.5791016 C131.798177,52.0595703 132.910156,51.2301432 134.660156,50.0908203 C134.578125,49.5895182 134.500651,48.9150391 134.427734,48.0673828 C133.498047,48.6871745 132.846354,49.1064453 132.472656,49.3251953 L132.472656,49.3251953 L132.472656,43.9248047 L129.259766,43.9248047 L129.259766,45.7021484 L130.654297,45.7021484 L130.654297,50.0908203 C130.654297,50.5830078 130.540365,50.9658203 130.3125,51.2392578 L130.3125,51.2392578 L131.324219,52.5791016 Z M150.320312,52.7841797 C151.240885,52.7841797 151.976888,52.7739258 152.52832,52.753418 C153.079753,52.7329102 153.489909,52.601888 153.758789,52.3603516 C154.027669,52.1188151 154.162109,51.7679036 154.162109,51.3076172 L154.162109,51.3076172 L154.162109,48.0947266 L157.463867,47.9648438 C157.764648,48.2838542 158.076823,48.6233724 158.400391,48.9833984 L158.400391,48.9833984 L159.699219,47.7939453 C158.177083,46.2626953 157.065104,45.1917318 156.363281,44.5810547 L156.363281,44.5810547 L155.091797,45.6064453 C155.40625,45.8889974 155.738932,46.2034505 156.089844,46.5498047 C154.098307,46.6910807 152.120443,46.805013 150.15625,46.8916016 C153.036458,45.8069661 155.752604,44.5582682 158.304688,43.1455078 L158.304688,43.1455078 L157.019531,41.8603516 C156.308594,42.288737 155.613607,42.6943359 154.93457,43.0771484 L154.93457,43.0771484 L150.416016,43.2822266 C151.477865,42.7626953 152.482747,42.2158203 153.430664,41.6416016 C155.431315,41.5322266 157.347656,41.3909505 159.179688,41.2177734 L159.179688,41.2177734 L158.90625,39.7138672 C155.269531,40.0875651 151.218099,40.2652995 146.751953,40.2470703 C146.888672,40.8212891 146.988932,41.3681641 147.052734,41.8876953 L147.052734,41.8876953 L150.539062,41.7851562 C149.463542,42.4231771 148.429036,42.9267578 147.435547,43.2958984 L147.435547,43.2958984 L147.941406,44.9638672 C148.925781,44.8225911 150.322591,44.6972656 152.131836,44.5878906 C150.34082,45.5039062 148.67513,46.2535807 147.134766,46.8369141 L147.134766,46.8369141 L147.613281,48.5322266 C148.697917,48.4046224 150.261068,48.2884115 152.302734,48.1835938 L152.302734,48.1835938 L152.302734,50.3916016 C152.302734,50.6194661 152.24349,50.7744141 152.125,50.8564453 C152.00651,50.9384766 151.762695,50.9794922 151.393555,50.9794922 C150.887695,50.9794922 150.411458,50.961263 149.964844,50.9248047 C150.119792,51.4990234 150.238281,52.1188151 150.320312,52.7841797 Z M158.509766,52.3193359 L159.767578,51.0068359 C158.509766,50.0133464 157.375,49.1702474 156.363281,48.4775391 L156.363281,48.4775391 L155.214844,49.6806641 C156.436198,50.601237 157.534505,51.4807943 158.509766,52.3193359 L158.509766,52.3193359 Z M147.435547,52.4833984 C148.656901,51.6813151 149.782552,50.7972005 150.8125,49.8310547 L150.8125,49.8310547 L149.431641,48.6142578 C148.447266,49.5530599 147.367188,50.3551432 146.191406,51.0205078 C146.601562,51.4580078 147.016276,51.945638 147.435547,52.4833984 Z M168.263672,52.9072266 C169.061198,52.5061849 169.740234,51.8487956 170.300781,50.9350586 C170.861328,50.0213216 171.166667,48.5641276 171.216797,46.5634766 L171.216797,46.5634766 L172.324219,46.4814453 L172.324219,50.8427734 C172.333333,52.0003255 172.861979,52.5791016 173.910156,52.5791016 L173.910156,52.5791016 L174.716797,52.5791016 C175.382161,52.5791016 175.868652,52.383138 176.17627,51.9912109 C176.483887,51.5992839 176.699219,50.7060547 176.822266,49.3115234 C176.275391,49.1292318 175.728516,48.9013672 175.181641,48.6279297 C175.113281,49.6578776 175.044922,50.2845052 174.976562,50.5078125 C174.908203,50.7311198 174.766927,50.8427734 174.552734,50.8427734 L174.552734,50.8427734 L174.429688,50.8427734 C174.192708,50.8427734 174.074219,50.6650391 174.074219,50.3095703 L174.074219,50.3095703 L174.074219,46.3720703 L174.737305,46.3378906 C174.905924,46.6204427 175.067708,46.9007161 175.222656,47.1787109 L175.222656,47.1787109 L176.712891,46.2763672 C176.020182,45.1735026 175.190755,43.9840495 174.224609,42.7080078 L174.224609,42.7080078 L172.857422,43.4873047 C173.203776,43.9703776 173.531901,44.4466146 173.841797,44.9160156 C172.460938,44.9980469 171.198568,45.0595703 170.054688,45.1005859 C170.833984,44.1982422 171.522135,43.2822266 172.119141,42.3525391 L172.119141,42.3525391 L176.494141,42.3525391 L176.494141,40.7939453 L173.055664,40.7939453 C172.832357,40.2789714 172.597656,39.773112 172.351562,39.2763672 L172.351562,39.2763672 L170.314453,39.6455078 C170.505859,40.0465495 170.676758,40.429362 170.827148,40.7939453 L170.827148,40.7939453 L167.798828,40.7939453 L167.798828,42.3525391 L170.109375,42.3525391 C169.270833,43.8291016 168.491536,44.7952474 167.771484,45.2509766 L167.771484,45.2509766 L168.263672,46.9189453 C168.56901,46.8551432 168.976888,46.7936198 169.487305,46.734375 C169.446289,48.7167969 168.929036,50.0384115 167.935547,50.6992188 C167.940104,50.3072917 167.953776,49.9404297 167.976562,49.5986328 C165.770833,49.8629557 164.216797,50.0270182 163.314453,50.0908203 L163.314453,50.0908203 L163.464844,51.9091797 C164.540365,51.7451172 165.688802,51.6015625 166.910156,51.4785156 C167.429688,51.9980469 167.880859,52.4742839 168.263672,52.9072266 Z M163.943359,49.0380859 C164.955078,48.8557943 166.199219,48.7281901 167.675781,48.6552734 C167.666667,48.1813151 167.698568,47.6617839 167.771484,47.0966797 L167.771484,47.0966797 L165.748047,47.3291016 C166.632161,46.0712891 167.548177,44.694987 168.496094,43.2001953 L168.496094,43.2001953 L167.074219,42.4345703 L166.452148,43.4667969 C165.969076,43.4941406 165.538411,43.5100911 165.160156,43.5146484 C165.934896,42.4117839 166.654948,41.2360026 167.320312,39.9873047 L167.320312,39.9873047 L165.529297,39.2763672 C164.827474,41.0263672 164.04362,42.4938151 163.177734,43.6787109 L163.177734,43.6787109 L163.669922,45.2236328 C164.134766,45.1552734 164.722656,45.0960286 165.433594,45.0458984 C164.681641,46.1715495 164.04362,46.9964193 163.519531,47.5205078 L163.519531,47.5205078 L163.943359,49.0380859 Z" id="授课端设计系统" fill="#959595" fill-rule="nonzero" mask="url(#mask-2)"></path>
        <rect id="矩形" fill="#E2E3E4" mask="url(#mask-2)" x="0" y="91" width="200" height="1"></rect>
    </g>
</svg>