<?xml version="1.0" encoding="UTF-8"?>
<svg width="40px" height="40px" viewBox="0 0 40 40" version="1.1" xmlns="http://www.w3.org/2000/svg" xmlns:xlink="http://www.w3.org/1999/xlink">
    <title>01 通用/01 图标/40px/menu_exit</title>
    <g id="01-通用/01-图标/40px/menu_exit" stroke="none" stroke-width="1" fill="none" fill-rule="evenodd">
        <path d="M20,6 C22.209139,6 24,7.67147027 24,9.73333333 L24,9.73333333 L24,16 L21,16 L21,9.91666667 C21,9.44656715 20.6139598,9.05911844 20.1166211,9.00616709 L20,9 L10,9 C9.44771525,9 9,9.41040565 9,9.91666667 L9,9.91666667 L9,30.0833333 C9,30.5895944 9.44771525,31 10,31 L10,31 L20,31 C20.5522847,31 21,30.5895944 21,30.0833333 L21,30.0833333 L21,24 L24,24 L24,30.2666667 C24,32.2640965 22.3193189,33.8951519 20.2058395,33.9951422 L20,34 L10,34 C7.790861,34 6,32.3285297 6,30.2666667 L6,30.2666667 L6,9.73333333 C6,7.67147027 7.790861,6 10,6 L10,6 Z" id="形状结合" fill="#686E72" fill-rule="nonzero"></path>
        <path d="M33.5,18.5 C34.3284271,18.5 35,19.1715729 35,20 C35,20.7796961 34.4051119,21.4204487 33.64446,21.4931334 L33.5,21.5 L14.5,21.5 C13.6715729,21.5 13,20.8284271 13,20 C13,19.2203039 13.5948881,18.5795513 14.35554,18.5068666 L14.5,18.5 L33.5,18.5 Z" id="路径-20" fill="#686E72"></path>
        <path d="M27.4393398,11.9393398 C27.9885146,11.390165 28.857577,11.3558416 29.4467378,11.8363696 L29.5606602,11.9393398 L36.5606602,18.9393398 C37.109835,19.4885146 37.1441584,20.357577 36.6636304,20.9467378 L36.5606602,21.0606602 L29.5606602,28.0606602 C28.9748737,28.6464466 28.0251263,28.6464466 27.4393398,28.0606602 C26.890165,27.5114854 26.8558416,26.642423 27.3363696,26.0532622 L27.4393398,25.9393398 L33.379,20 L27.4393398,14.0606602 C26.890165,13.5114854 26.8558416,12.642423 27.3363696,12.0532622 L27.4393398,11.9393398 Z" id="路径-20" fill="#686E72"></path>
    </g>
</svg>