<?xml version="1.0" encoding="UTF-8"?>
<svg width="32px" height="32px" viewBox="0 0 32 32" version="1.1" xmlns="http://www.w3.org/2000/svg" xmlns:xlink="http://www.w3.org/1999/xlink">
    <title>01 通用/01 图标/32px/middle_view</title>
    <g id="01-通用/01-图标/32px/middle_view" stroke="none" stroke-width="1" fill="none" fill-rule="evenodd">
        <path d="M25,6 C26.0543618,6 26.9181651,6.81587779 26.9945143,7.85073766 L27,8 L27,24 C27,25.0543618 26.1841222,25.9181651 25.1492623,25.9945143 L25,26 L7,26 C5.9456382,26 5.08183488,25.1841222 5.00548574,24.1492623 L5,24 L5,8 C5,6.9456382 5.81587779,6.08183488 6.85073766,6.00548574 L7,6 L25,6 Z M24,8 L8,8 C7.44771525,8 7,8.44771525 7,9 L7,23 C7,23.5522847 7.44771525,24 8,24 L24,24 C24.5522847,24 25,23.5522847 25,23 L25,9 C25,8.44771525 24.5522847,8 24,8 Z M13,8 L11,8 L11,24 L13,24 L13,8 Z" id="形状" fill="#909093"></path>
    </g>
</svg>