<?xml version="1.0" encoding="UTF-8"?>
<svg width="64px" height="64px" viewBox="0 0 64 64" version="1.1" xmlns="http://www.w3.org/2000/svg" xmlns:xlink="http://www.w3.org/1999/xlink">
    <title>01 通用/01 图标/64px/file_mp4</title>
    <defs>
        <filter x="-28.1%" y="-300.0%" width="156.2%" height="700.0%" filterUnits="objectBoundingBox" id="filter-1">
            <feGaussianBlur stdDeviation="3" in="SourceGraphic"></feGaussianBlur>
        </filter>
        <linearGradient x1="50%" y1="0%" x2="50%" y2="100%" id="linearGradient-2">
            <stop stop-color="#7C93FF" offset="0%"></stop>
            <stop stop-color="#5B75ED" offset="100%"></stop>
        </linearGradient>
        <linearGradient x1="0%" y1="100%" x2="49.3414802%" y2="50.6585198%" id="linearGradient-3">
            <stop stop-color="#94A7E9" offset="0%"></stop>
            <stop stop-color="#8398FE" offset="100%"></stop>
        </linearGradient>
        <path d="M41,3 L55,17 L44,17 C42.3431458,17 41,15.6568542 41,14 L41,3 L41,3 Z" id="path-4"></path>
        <filter x="-14.3%" y="-7.1%" width="128.6%" height="128.6%" filterUnits="objectBoundingBox" id="filter-5">
            <feOffset dx="0" dy="1" in="SourceAlpha" result="shadowOffsetOuter1"></feOffset>
            <feGaussianBlur stdDeviation="0.5" in="shadowOffsetOuter1" result="shadowBlurOuter1"></feGaussianBlur>
            <feColorMatrix values="0 0 0 0 0.30023728   0 0 0 0 0.44952982   0 0 0 0 0.925271739  0 0 0 1 0" type="matrix" in="shadowBlurOuter1"></feColorMatrix>
        </filter>
    </defs>
    <g id="01-通用/01-图标/64px/file_mp4" stroke="none" stroke-width="1" fill="none" fill-rule="evenodd">
        <g id="BG" transform="translate(9.000000, 3.000000)">
            <polygon id="Rectangle" fill="#0032FF" opacity="0.699999988" filter="url(#filter-1)" points="6.98214286 53 38.9821429 53 38.9821429 56 7.02301131 56"></polygon>
            <path d="M3.8458278,1 L32,1 L32,1 L46,15 L46,53.1541722 C46,54.4914503 45.8607616,54.9763797 45.5993009,55.4652686 C45.3378403,55.9541574 44.9541574,56.3378403 44.4652686,56.5993009 C43.9763797,56.8607616 43.4914503,57 42.1541722,57 L3.8458278,57 C2.50854969,57 2.02362033,56.8607616 1.53473144,56.5993009 C1.04584256,56.3378403 0.662159695,55.9541574 0.400699056,55.4652686 C0.139238417,54.9763797 6.01853049e-17,54.4914503 -1.03584031e-16,53.1541722 L1.03584031e-16,4.8458278 C-6.01853049e-17,3.50854969 0.139238417,3.02362033 0.400699056,2.53473144 C0.662159695,2.04584256 1.04584256,1.66215969 1.53473144,1.40069906 C2.02362033,1.13923842 2.50854969,1 3.8458278,1 Z" id="Rectangle" fill="#4A62D0"></path>
            <path d="M3.8458278,-1.55376046e-16 L32,0 L32,0 L46,14 L46,52.1541722 C46,53.4914503 45.8607616,53.9763797 45.5993009,54.4652686 C45.3378403,54.9541574 44.9541574,55.3378403 44.4652686,55.5993009 C43.9763797,55.8607616 43.4914503,56 42.1541722,56 L3.8458278,56 C2.50854969,56 2.02362033,55.8607616 1.53473144,55.5993009 C1.04584256,55.3378403 0.662159695,54.9541574 0.400699056,54.4652686 C0.139238417,53.9763797 6.01853049e-17,53.4914503 -1.03584031e-16,52.1541722 L1.03584031e-16,3.8458278 C-6.01853049e-17,2.50854969 0.139238417,2.02362033 0.400699056,1.53473144 C0.662159695,1.04584256 1.04584256,0.662159695 1.53473144,0.400699056 C2.02362033,0.139238417 2.50854969,9.02779573e-17 3.8458278,-1.55376046e-16 Z" id="Rectangle" fill="url(#linearGradient-2)"></path>
        </g>
        <g id="矩形">
            <use fill="black" fill-opacity="1" filter="url(#filter-5)" xlink:href="#path-4"></use>
            <use fill="url(#linearGradient-3)" fill-rule="evenodd" xlink:href="#path-4"></use>
        </g>
        <g id="01-通用/01-图标/40px/z资源_pdf-copy-4" transform="translate(12.000000, 16.000000)">
            <g id="01-通用/01-图标/40px/grid" opacity="0.885091146" stroke-width="1">
                <g id="Group" opacity="0">
                    <rect id="矩形" x="0" y="0" width="40" height="40"></rect>
                    <rect id="Rectangle" stroke="#E3E3E3" x="7.5" y="7.5" width="25" height="25"></rect>
                    <circle id="Oval" stroke="#E3E3E3" cx="20" cy="20" r="14.5"></circle>
                    <rect id="Rectangle" stroke="#E3E3E3" x="4.5" y="9.5" width="31" height="21"></rect>
                    <rect id="Rectangle" stroke="#E3E3E3" transform="translate(20.000000, 20.000000) rotate(-270.000000) translate(-20.000000, -20.000000) " x="4.5" y="9.5" width="31" height="21"></rect>
                </g>
            </g>
            <path d="M13.8725868,9.64147815 L29.082703,18.3329732 C30.0033765,18.8590723 30.3232423,20.0319133 29.7971431,20.9525868 C29.6270517,21.2502468 29.3803631,21.4969354 29.082703,21.6670268 L13.8725868,30.3585219 C12.9519133,30.884621 11.7790723,30.5647553 11.2529732,29.6440818 C11.0871974,29.3539742 11,29.0256267 11,28.691495 L11,11.308505 C11,10.2481183 11.8596133,9.38850498 12.92,9.38850498 C13.2541317,9.38850498 13.5824792,9.47570239 13.8725868,9.64147815 Z" id="矩形" fill="#FFFFFF"></path>
        </g>
    </g>
</svg>