<?xml version="1.0" encoding="UTF-8"?>
<svg width="24px" height="24px" viewBox="0 0 24 24" version="1.1" xmlns="http://www.w3.org/2000/svg" xmlns:xlink="http://www.w3.org/1999/xlink">
    <title>01 通用/01 图标/24px/music</title>
    <defs>
        <linearGradient x1="50%" y1="0.92113598%" x2="50%" y2="100%" id="linearGradient-1">
            <stop stop-color="#C69DFB" offset="0%"></stop>
            <stop stop-color="#B285ED" offset="100%"></stop>
        </linearGradient>
        <linearGradient x1="0%" y1="100%" x2="50%" y2="50%" id="linearGradient-2">
            <stop stop-color="#D1ABF5" offset="0%"></stop>
            <stop stop-color="#C59DFA" offset="100%"></stop>
        </linearGradient>
    </defs>
    <g id="01-通用/01-图标/24px/music" stroke="none" stroke-width="1" fill="none" fill-rule="evenodd">
        <path d="M5.5638852,1 L16,1 L16,1 L21,6.01984127 L21,20.4361148 C21,21.3276335 20.9071744,21.6509198 20.7328673,21.9768457 C20.5585602,22.3027716 20.3027716,22.5585602 19.9768457,22.7328673 C19.6509198,22.9071744 19.3276335,23 18.4361148,23 L5.5638852,23 C4.67236646,23 4.34908022,22.9071744 4.0231543,22.7328673 C3.69722837,22.5585602 3.4414398,22.3027716 3.2671327,21.9768457 C3.09282561,21.6509198 3,21.3276335 3,20.4361148 L3,3.5638852 C3,2.67236646 3.09282561,2.34908022 3.2671327,2.0231543 C3.4414398,1.69722837 3.69722837,1.4414398 4.0231543,1.2671327 C4.34908022,1.09282561 4.67236646,1 5.5638852,1 Z" id="Rectangle" fill="url(#linearGradient-1)"></path>
        <path d="M16,1 L21,6 L17,6 C16.4477153,6 16,5.55228475 16,5 L16,1 L16,1 Z" id="矩形" fill="url(#linearGradient-2)"></path>
        <path d="M16,7 L16,16 L15.9888034,16.0008176 C15.882521,16.714715 15.0326574,17.5190167 14,17.8529888 C12.8954305,18.210218 12,17.8940558 12,17.1468207 C12,16.3995856 12.8954305,15.5042404 14,15.1470112 C14.3645484,15.0291125 14.7063165,14.9845623 15.0006328,15.0046497 L15,10.429 L10,12 L10,18 L9.98880339,18.0008176 C9.88252104,18.714715 9.03265742,19.5190167 8,19.8529888 C6.8954305,20.210218 6,19.8940558 6,19.1468207 C6,18.3995856 6.8954305,17.5042404 8,17.1470112 C8.3645484,17.0291125 8.7063165,16.9845623 9.00063283,17.0046497 L9,9 L16,7 Z" id="路径" fill="#FFFFFF"></path>
    </g>
</svg>