<?xml version="1.0" encoding="UTF-8"?>
<svg width="20px" height="20px" viewBox="0 0 20 20" version="1.1" xmlns="http://www.w3.org/2000/svg" xmlns:xlink="http://www.w3.org/1999/xlink">
    <title>01 通用/01 图标/16px/no_battery</title>
    <g id="01-通用/01-图标/16px/no_battery" stroke="none" stroke-width="1" fill="none" fill-rule="evenodd">
        <circle id="椭圆形" fill="#FF4A4A" opacity="0.0474795387" cx="10" cy="10" r="10"></circle>
        <path d="M14,6 C15.1045695,6 16,6.8954305 16,8 L16,9 C16.5522847,9 17,9.44771525 17,10 L17,11 C17,11.5522847 16.5522847,12 16,12 L16,13 C16,14.1045695 15.1045695,15 14,15 L5,15 C3.8954305,15 3,14.1045695 3,13 L3,8 C3,6.8954305 3.8954305,6 5,6 L14,6 Z M14,7 L5,7 C4.48716416,7 4.06449284,7.38604019 4.00672773,7.88337887 L4,8 L4,13 C4,13.5128358 4.38604019,13.9355072 4.88337887,13.9932723 L5,14 L14,14 C14.5128358,14 14.9355072,13.6139598 14.9932723,13.1166211 L15,13 L15,8 C15,7.48716416 14.6139598,7.06449284 14.1166211,7.00672773 L14,7 Z M6,13 C5.44771525,13 5,12.5522847 5,12 L5,9 C5,9 5,8 6,8 L6.5,8 L7.5,13 L6,13 Z" id="形状" fill="#FF7171" fill-rule="nonzero"></path>
    </g>
</svg>