<?xml version="1.0" encoding="UTF-8"?>
<svg width="32px" height="32px" viewBox="0 0 32 32" version="1.1" xmlns="http://www.w3.org/2000/svg" xmlns:xlink="http://www.w3.org/1999/xlink">
    <title>01 通用/01 图标/32px/8pages</title>
    <g id="01-通用/01-图标/32px/8pages" stroke="none" stroke-width="1" fill="none" fill-rule="evenodd">
        <path d="M17,4 C17.8885473,4 18.6868712,4.3862919 19.2361945,5.00009834 L21,5 C21.8885473,5 22.6868712,5.3862919 23.2361945,6.00009834 L25,6 C26.5976809,6 27.9036609,7.24891996 27.9949073,8.82372721 L28,9 L28,23 C28,24.5976809 26.75108,25.9036609 25.1762728,25.9949073 L25,26 L23.2353163,26.0008825 C22.7226208,26.5732589 21.9933061,26.9475673 21.1762728,26.9949073 L21,27 L19.2353163,27.0008825 C18.6860206,27.6141196 17.8880739,28 17,28 L17,28 L7,28 C5.34314575,28 4,26.6568542 4,25 L4,25 L4,7 C4,5.34314575 5.34314575,4 7,4 L7,4 Z M17,6 L7,6 C6.44771525,6 6,6.44771525 6,7 L6,7 L6,25 C6,25.5522847 6.44771525,26 7,26 L7,26 L17,26 C17.5522847,26 18,25.5522847 18,25 L18,25 L18,7 C18,6.44771525 17.5522847,6 17,6 L17,6 Z M21,7 L20,7 L20,25 L20,25 L21,25 C21.5128358,25 21.9355072,24.6139598 21.9932723,24.1166211 L22,24 L22,8 C22,7.48716416 21.6139598,7.06449284 21.1166211,7.00672773 L21,7 Z M24,24 L25,24 C25.5128358,24 25.9355072,23.6139598 25.9932723,23.1166211 L26,23 L26,9 C26,8.48716416 25.6139598,8.06449284 25.1166211,8.00672773 L25,8 L24,8 L24,24 Z" id="形状结合" fill="#909093"></path>
    </g>
</svg>