<?xml version="1.0" encoding="UTF-8"?>
<svg width="32px" height="32px" viewBox="0 0 32 32" version="1.1" xmlns="http://www.w3.org/2000/svg" xmlns:xlink="http://www.w3.org/1999/xlink">
    <title>01 通用/01 图标/32px/4pages</title>
    <g id="01-通用/01-图标/32px/4pages" stroke="none" stroke-width="1" fill="none" fill-rule="evenodd">
        <path d="M19,4 C20.3062521,4 21.4175144,4.8348501 21.8293257,6.00008893 L25,6 C26.5976809,6 27.9036609,7.24891996 27.9949073,8.82372721 L28,9 L28,23 C28,24.5976809 26.75108,25.9036609 25.1762728,25.9949073 L25,26 L21.8289758,26.0009007 C21.4168852,27.1656226 20.3058822,28 19,28 L19,28 L7,28 C5.34314575,28 4,26.6568542 4,25 L4,25 L4,7 C4,5.34314575 5.34314575,4 7,4 L7,4 Z M19,6 L7,6 C6.44771525,6 6,6.44771525 6,7 L6,7 L6,25 C6,25.5522847 6.44771525,26 7,26 L7,26 L19,26 C19.5522847,26 20,25.5522847 20,25 L20,25 L20,7 C20,6.44771525 19.5522847,6 19,6 L19,6 Z M22,24 L25,24 C25.5128358,24 25.9355072,23.6139598 25.9932723,23.1166211 L26,23 L26,9 C26,8.48716416 25.6139598,8.06449284 25.1166211,8.00672773 L25,8 L22,8 L22,24 Z" id="形状结合" fill="#909093"></path>
    </g>
</svg>