<?xml version="1.0" encoding="UTF-8"?>
<svg width="24px" height="24px" viewBox="0 0 24 24" version="1.1" xmlns="http://www.w3.org/2000/svg" xmlns:xlink="http://www.w3.org/1999/xlink">
    <title>01 通用/01 图标/24px/pic</title>
    <defs>
        <linearGradient x1="50%" y1="0%" x2="50%" y2="99.0735853%" id="linearGradient-1">
            <stop stop-color="#FFB751" offset="0%"></stop>
            <stop stop-color="#FFA72C" offset="100%"></stop>
        </linearGradient>
        <linearGradient x1="9.85844817%" y1="98.7863758%" x2="75.5816327%" y2="36.2744347%" id="linearGradient-2">
            <stop stop-color="#FFC572" offset="0%"></stop>
            <stop stop-color="#FFB650" offset="100%"></stop>
        </linearGradient>
    </defs>
    <g id="01-通用/01-图标/24px/pic" stroke="none" stroke-width="1" fill="none" fill-rule="evenodd">
        <path d="M5.5638852,1 L16,1 L16,1 L21,6.01984127 L21,20.4361148 C21,21.3276335 20.9071744,21.6509198 20.7328673,21.9768457 C20.5585602,22.3027716 20.3027716,22.5585602 19.9768457,22.7328673 C19.6509198,22.9071744 19.3276335,23 18.4361148,23 L5.5638852,23 C4.67236646,23 4.34908022,22.9071744 4.0231543,22.7328673 C3.69722837,22.5585602 3.4414398,22.3027716 3.2671327,21.9768457 C3.09282561,21.6509198 3,21.3276335 3,20.4361148 L3,3.5638852 C3,2.67236646 3.09282561,2.34908022 3.2671327,2.0231543 C3.4414398,1.69722837 3.69722837,1.4414398 4.0231543,1.2671327 C4.34908022,1.09282561 4.67236646,1 5.5638852,1 Z" id="Rectangle" fill="url(#linearGradient-1)"></path>
        <path d="M16,1 L21,6 L17,6 C16.4477153,6 16,5.55228475 16,5 L16,1 L16,1 Z" id="矩形" fill="url(#linearGradient-2)"></path>
        <g id="01-通用/01-图标/40px/grid" transform="translate(4.000000, 6.000000)" opacity="0">
            <g id="Group">
                <rect id="矩形" x="0" y="0" width="16" height="16"></rect>
                <rect id="Rectangle" stroke="#E3E3E3" stroke-width="0.5" x="3.05" y="3.05" width="9.9" height="9.9"></rect>
                <circle id="Oval" stroke="#E3E3E3" stroke-width="0.5" cx="8" cy="8" r="5.75"></circle>
                <rect id="Rectangle" stroke="#E3E3E3" stroke-width="0.5" x="1.85" y="3.85" width="12.3" height="8.3"></rect>
                <path d="M14.15,3.85 L1.85,3.85 L1.85,12.15 L14.15,12.15 L14.15,3.85 Z" id="Rectangle" stroke="#E3E3E3" stroke-width="0.5" transform="translate(8.000000, 8.000000) rotate(-270.000000) translate(-8.000000, -8.000000) "></path>
            </g>
        </g>
        <path d="M16,10 C16.5522847,10 17,10.4477153 17,11 L17,17 C17,17.5522847 16.5522847,18 16,18 L8,18 C7.44771525,18 7,17.5522847 7,17 L7,11 C7,10.4477153 7.44771525,10 8,10 L16,10 Z M16,14 C15.3333333,14.6666667 14.6666667,15 14,15 C13,15 11,14 10,14 C9.33333333,14 8.66666667,14.3333333 8,15 L8,15 L8,16.6086957 C8,16.8248071 8.17519292,17 8.39130435,17 L8.39130435,17 L15.6086957,17 C15.8248071,17 16,16.8248071 16,16.6086957 L16,16.6086957 Z M14,11 C13.4477153,11 13,11.4477153 13,12 C13,12.5522847 13.4477153,13 14,13 C14.5522847,13 15,12.5522847 15,12 C15,11.4477153 14.5522847,11 14,11 Z" id="形状结合" fill="#FFFFFF"></path>
    </g>
</svg>