<?xml version="1.0" encoding="UTF-8"?>
<svg width="24px" height="24px" viewBox="0 0 24 24" version="1.1" xmlns="http://www.w3.org/2000/svg" xmlns:xlink="http://www.w3.org/1999/xlink">
    <title>01 通用/01 图标/24px/ppt</title>
    <defs>
        <linearGradient x1="50%" y1="0%" x2="50%" y2="99.5988176%" id="linearGradient-1">
            <stop stop-color="#EDEDED" offset="0.625527872%"></stop>
            <stop stop-color="#E5E5E5" offset="100%"></stop>
        </linearGradient>
        <linearGradient x1="8.96171992%" y1="89.867613%" x2="50%" y2="50%" id="linearGradient-2">
            <stop stop-color="#F8F8F8" offset="0%"></stop>
            <stop stop-color="#ECECEC" offset="100%"></stop>
        </linearGradient>
        <path d="M17,1 L22,6 L18,6 C17.4477153,6 17,5.55228475 17,5 L17,1 L17,1 Z" id="path-3"></path>
        <filter x="-10.0%" y="-10.0%" width="120.0%" height="140.0%" filterUnits="objectBoundingBox" id="filter-4">
            <feOffset dx="0" dy="1" in="SourceAlpha" result="shadowOffsetOuter1"></feOffset>
            <feColorMatrix values="0 0 0 0 0.825202882   0 0 0 0 0.849817713   0 0 0 0 0.872027853  0 0 0 1 0" type="matrix" in="shadowOffsetOuter1"></feColorMatrix>
        </filter>
        <linearGradient x1="50%" y1="0%" x2="50%" y2="100%" id="linearGradient-5">
            <stop stop-color="#FF9656" offset="0%"></stop>
            <stop stop-color="#F47447" offset="100%"></stop>
        </linearGradient>
    </defs>
    <g id="01-通用/01-图标/24px/ppt" stroke="none" stroke-width="1" fill="none" fill-rule="evenodd">
        <path d="M6.5638852,1 L17,1 L17,1 L22,6.01984127 L22,20.4361148 C22,21.3276335 21.9071744,21.6509198 21.7328673,21.9768457 C21.5585602,22.3027716 21.3027716,22.5585602 20.9768457,22.7328673 C20.6509198,22.9071744 20.3276335,23 19.4361148,23 L6.5638852,23 C5.67236646,23 5.34908022,22.9071744 5.0231543,22.7328673 C4.69722837,22.5585602 4.4414398,22.3027716 4.2671327,21.9768457 C4.09282561,21.6509198 4,21.3276335 4,20.4361148 L4,3.5638852 C4,2.67236646 4.09282561,2.34908022 4.2671327,2.0231543 C4.4414398,1.69722837 4.69722837,1.4414398 5.0231543,1.2671327 C5.34908022,1.09282561 5.67236646,1 6.5638852,1 Z" id="Rectangle" fill="url(#linearGradient-1)"></path>
        <rect id="Rectangle" fill="#DEDEDE" x="11" y="17" width="8" height="1" rx="0.5"></rect>
        <rect id="Rectangle" fill="#DEDEDE" x="11" y="19" width="8" height="1" rx="0.5"></rect>
        <g id="编组" transform="translate(11.400000, 7.618001)" fill="#DEDEDE" fill-rule="nonzero">
            <path d="M3.60024162,0.401724649 L3.60015916,2.42197348 C2.68718374,2.6072201 2,3.41435914 2,4.38199853 C2,5.48656803 2.8954305,6.38199853 4,6.38199853 C4.96728829,6.38199853 5.77419268,5.69531339 5.95982316,4.78283309 L7.98,4.78172465 L7.9792037,4.79239811 L7.96051031,4.9462623 L7.94661877,5.03709029 C7.93393328,5.11408212 7.91905753,5.19030089 7.9020544,5.26570207 L7.85521407,5.45224742 L7.79721471,5.64288615 L7.75418245,5.76576583 C7.72881847,5.83454929 7.70164011,5.9023968 7.67269461,5.96928175 L7.61208005,6.10255925 L7.53760788,6.25061998 L7.49395494,6.33085626 C7.45763917,6.39583005 7.41952859,6.45973845 7.37970834,6.52248026 L7.30220441,6.63998255 L7.20933125,6.76991895 L7.08685087,6.92605925 C7.02256799,7.003975 6.95533532,7.07947049 6.88535133,7.15234019 L6.74274089,7.29360654 L6.63536214,7.3912006 L6.57582744,7.44236273 C5.88001711,8.0286569 4.98127224,8.38199853 4,8.38199853 C1.790861,8.38199853 1.77635684e-15,6.59113753 1.77635684e-15,4.38199853 C1.77635684e-15,2.30777665 1.57879673,0.602302498 3.60024162,0.401724649 Z" id="形状结合"></path>
            <path d="M8.38198862,3.98117632 L5.95982316,3.98116398 C5.80058788,3.19843124 5.18419797,2.58184631 4.40156923,2.42232497 L4.40082222,9.91216858e-06 C6.51101763,0.190566878 8.19143166,1.87098091 8.38198862,3.98117632 Z" id="形状结合"></path>
        </g>
        <g id="矩形">
            <use fill="black" fill-opacity="1" filter="url(#filter-4)" xlink:href="#path-3"></use>
            <use fill="url(#linearGradient-2)" fill-rule="evenodd" xlink:href="#path-3"></use>
        </g>
        <rect id="矩形" fill="url(#linearGradient-5)" x="2" y="7" width="12" height="12" rx="1.17857143"></rect>
        <path d="M7.50385714,15.9981429 L7.50385714,14.2522857 L8.178,14.2522857 C9.91521429,14.2522857 10.598,13.7077857 10.598,12.0829286 C10.598,10.5877143 10.0189286,10 8.178,10 L6,10 L6,15.9981429 L7.50385714,15.9981429 Z M7.97057143,13.0509286 L7.50385714,13.0509286 L7.50385714,11.1754286 L7.97057143,11.1754286 C8.76571429,11.1754286 9.05957143,11.3915 9.05957143,12.1175 C9.05957143,12.8348571 8.783,13.0509286 7.97057143,13.0509286 Z" id="P" fill="#FFFFFF" fill-rule="nonzero"></path>
    </g>
</svg>