<?xml version="1.0" encoding="UTF-8"?>
<svg width="40px" height="40px" viewBox="0 0 40 40" version="1.1" xmlns="http://www.w3.org/2000/svg" xmlns:xlink="http://www.w3.org/1999/xlink">
    <title>01 通用/01 图标/40px_导航栏/resource</title>
    <g id="01-通用/01-图标/40px_导航栏/resource" stroke="none" stroke-width="1" fill="none" fill-rule="evenodd">
        <path d="M30,6 C32.1421954,6 33.8910789,7.68396847 33.9951047,9.80035966 L34,10 L34,29 C34,31.1421954 32.3160315,32.8910789 30.1996403,32.9951047 L30,33 L10,33 C7.85780461,33 6.10892112,31.3160315 6.00489531,29.1996403 L6,29 L6,10 C6,7.85780461 7.68396847,6.10892112 9.80035966,6.00489531 L10,6 L30,6 Z M30,9 L10,9 C9.48716416,9 9.06449284,9.38604019 9.00672773,9.88337887 L9,10 L9,21 C9,21.5522847 9.44771525,22 10,22 L14.4611599,22 C14.8563318,22 15.2144413,22.2327139 15.3749526,22.5938191 L15.7360474,23.4061809 C15.8965587,23.7672861 16.2546682,24 16.6498401,24 L23.3501599,24 C23.7453318,24 24.1034413,23.7672861 24.2639526,23.4061809 L24.6250474,22.5938191 C24.7855587,22.2327139 25.1436682,22 25.5388401,22 L30,22 C30.5522847,22 31,21.5522847 31,21 L31,10 C31,9.48716416 30.6139598,9.06449284 30.1166211,9.00672773 L30,9 Z M27,17 C27.5522847,17 28,17.4477153 28,18 C28,18.5522847 27.5522847,19 27,19 L13,19 C12.4477153,19 12,18.5522847 12,18 C12,17.4477153 12.4477153,17 13,17 L27,17 Z M27,12 C27.5522847,12 28,12.4477153 28,13 C28,13.5522847 27.5522847,14 27,14 L13,14 C12.4477153,14 12,13.5522847 12,13 C12,12.4477153 12.4477153,12 13,12 L27,12 Z" id="形状结合" fill="#000000"></path>
    </g>
</svg>