<?xml version="1.0" encoding="UTF-8"?>
<svg width="32px" height="32px" viewBox="0 0 32 32" version="1.1" xmlns="http://www.w3.org/2000/svg" xmlns:xlink="http://www.w3.org/1999/xlink">
    <title>01 通用/01 图标/32px/setting4</title>
    <g id="01-通用/01-图标/32px/setting4" stroke="none" stroke-width="1" fill="none" fill-rule="evenodd">
        <path d="M23,4 C24.5976809,4 25.9036609,5.24891996 25.9949073,6.82372721 L26,7 L26,25 C26,26.5976809 24.75108,27.9036609 23.1762728,27.9949073 L23,28 L9,28 C7.40231912,28 6.09633912,26.75108 6.00509269,25.1762728 L6,25 L6,7 C6,5.40231912 7.24891996,4.09633912 8.82372721,4.00509269 L9,4 L23,4 Z M8,24 L8,25 C8,25.5128358 8.38604019,25.9355072 8.88337887,25.9932723 L9,26 L23,26 C23.5128358,26 23.9355072,25.6139598 23.9932723,25.1166211 L24,25 L24,24 L8,24 Z M16,8 C19.3137085,8 22,10.6862915 22,14 C22,17.3137085 19.3137085,20 16,20 C14.7045521,20 13.5049929,19.5894515 12.5243343,18.8913664 L10.7071068,20.7071068 C10.3165825,21.0976311 9.68341751,21.0976311 9.29289322,20.7071068 C8.93240926,20.3466228 8.90467972,19.7793918 9.20970461,19.3871006 L9.29289322,19.2928932 L11.1086336,17.4756657 C10.4105485,16.4950071 10,15.2954479 10,14 C10,10.6862915 12.6862915,8 16,8 Z M16,10 C13.790861,10 12,11.790861 12,14 C12,14.7414004 12.2017072,15.4356896 12.5532383,16.0309842 L13.2928932,15.2928932 C13.6834175,14.9023689 14.3165825,14.9023689 14.7071068,15.2928932 C15.0675907,15.6533772 15.0953203,16.2206082 14.7902954,16.6128994 L14.7071068,16.7071068 L13.9690158,17.4467617 C14.5643104,17.7982928 15.2585996,18 16,18 C18.209139,18 20,16.209139 20,14 C20,11.790861 18.209139,10 16,10 Z M8,22 L24,22 L24,7 C24,6.48716416 23.6139598,6.06449284 23.1166211,6.00672773 L23,6 L9,6 C8.48716416,6 8.06449284,6.38604019 8.00672773,6.88337887 L8,7 L8,22 Z" id="形状" fill="#909093"></path>
    </g>
</svg>