<?xml version="1.0" encoding="UTF-8"?>
<svg width="32px" height="32px" viewBox="0 0 32 32" version="1.1" xmlns="http://www.w3.org/2000/svg" xmlns:xlink="http://www.w3.org/1999/xlink">
    <title>01 通用/01 图标/32px/setting2</title>
    <g id="01-通用/01-图标/32px/setting2" stroke="none" stroke-width="1" fill="none" fill-rule="evenodd">
        <path d="M16,4 C16.5522847,4 17,4.44771525 17,5 L17.0001009,6.04938526 C17.8110925,6.12991369 18.5935807,6.30733188 19.3358261,6.56990047 L17.5036547,8.14108993 C17.0204452,8.04919448 16.5218368,8.00076044 16.0120505,8.00000888 L16,8 L15.986,7.999 L15.7508207,8.00380682 C11.4478378,8.13545713 8,11.6650857 8,16 C8,20.418278 11.581722,24 16,24 C20.418278,24 24,20.418278 24,16 C24,15.7467087 23.9882286,15.4961668 23.9652032,15.2488914 L25.7074252,13.5890003 C25.8211937,14.0485848 25.9031782,14.5207055 25.9509118,15.0028956 L26,15 L27,15 C27.5522847,15 28,15.4477153 28,16 C28,16.5522847 27.5522847,17 27,17 L26,17 L25.9508129,16.9981033 C25.482565,21.7233772 21.7251022,25.4814398 17.0001009,25.9506147 L17,27 C17,27.5522847 16.5522847,28 16,28 C15.4477153,28 15,27.5522847 15,27 L14.9989003,25.9505155 C10.2750342,25.4809764 6.51846098,21.7241034 6.04938526,17.0001009 L5,17 C4.44771525,17 4,16.5522847 4,16 C4,15.4477153 4.44771525,15 5,15 L6.04948449,14.9989003 C6.51899049,10.2753671 10.2753671,6.51899049 14.9989003,6.04948449 L15,5 C15,4.44771525 15.4477153,4 16,4 Z M25.6013045,2.95535236 C26.3868207,2.20256602 27.6300034,2.21578988 28.3993995,2.9851859 L28.3993995,2.9851859 L30.014558,4.60098442 C30.7788156,5.39847057 30.7518785,6.66451399 29.9543923,7.42877155 L29.9543923,7.42877155 L18.9820046,17.9439764 C18.6096717,18.3007955 18.1138989,18.5 17.5981939,18.5 L17.5981939,18.5 L15,18.5 C14.4477153,18.5 14,18.0522847 14,17.5 L14,17.5 L14,14.9267308 C14,14.3815387 14.222567,13.8599758 14.6161893,13.4827544 L14.6161893,13.4827544 Z M26.9851152,4.39932877 L16,14.9267308 L16,16.5 L17.5981939,16.5 L28.5705816,5.98479514 L26.9851152,4.39932877 Z" id="形状结合" fill="#909093"></path>
    </g>
</svg>