<?xml version="1.0" encoding="UTF-8"?>
<svg width="32px" height="32px" viewBox="0 0 32 32" version="1.1" xmlns="http://www.w3.org/2000/svg" xmlns:xlink="http://www.w3.org/1999/xlink">
    <title>01 通用/01 图标/32px/setting4_abandoned</title>
    <g id="01-通用/01-图标/32px/setting4_abandoned" stroke="none" stroke-width="1" fill="none" fill-rule="evenodd">
        <path d="M24,17 L8,17 C6.34314575,17 5,18.3431458 5,20 L5,24 C5,25.6568542 6.34314575,27 8,27 L24,27 C25.6568542,27 27,25.6568542 27,24 L27,20 C27,18.3431458 25.6568542,17 24,17 Z M24,19 C24.5522847,19 25,19.4477153 25,20 L25,24 C25,24.5522847 24.5522847,25 24,25 L8,25 C7.44771525,25 7,24.5522847 7,24 L7,20 C7,19.4477153 7.44771525,19 8,19 L24,19 Z" id="矩形" fill="#909093"></path>
        <path d="M24,6 L8,6 C6.34314575,6 5,7.34314575 5,9 L5,13 C5,14.6568542 6.34314575,16 8,16 L24,16 C25.6568542,16 27,14.6568542 27,13 L27,9 C27,7.34314575 25.6568542,6 24,6 Z M24,8 C24.5522847,8 25,8.44771525 25,9 L25,13 C25,13.5522847 24.5522847,14 24,14 L8,14 C7.44771525,14 7,13.5522847 7,13 L7,9 C7,8.44771525 7.44771525,8 8,8 L24,8 Z" id="矩形" fill="#909093"></path>
        <path d="M14,21 C14.5522847,21 15,21.4477153 15,22 C15,22.5128358 14.6139598,22.9355072 14.1166211,22.9932723 L14,23 L9,23 C8.44771525,23 8,22.5522847 8,22 C8,21.4871642 8.38604019,21.0644928 8.88337887,21.0067277 L9,21 L14,21 Z" id="路径-35" fill="#909093"></path>
        <path d="M14,10 C14.5522847,10 15,10.4477153 15,11 C15,11.5128358 14.6139598,11.9355072 14.1166211,11.9932723 L14,12 L9,12 C8.44771525,12 8,11.5522847 8,11 C8,10.4871642 8.38604019,10.0644928 8.88337887,10.0067277 L9,10 L14,10 Z" id="路径-35" fill="#909093"></path>
    </g>
</svg>