<?xml version="1.0" encoding="UTF-8"?>
<svg width="32px" height="32px" viewBox="0 0 32 32" version="1.1" xmlns="http://www.w3.org/2000/svg" xmlns:xlink="http://www.w3.org/1999/xlink">
    <title>01 通用/01 图标/32px/setting4_abandoned</title>
    <g id="01-通用/01-图标/32px/setting4_abandoned" stroke="none" stroke-width="1" fill="none" fill-rule="evenodd">
        <path d="M16.5,28 L15.8069152,27.9942401 C9.84820004,27.8945553 5.1791037,26.504972 5.00503268,24.1376583 L5,24 L5,9 L5.00503268,8.86234167 C5.18579874,6.40397751 10.2140107,5 16.5,5 L16.5,5 L16.8479048,5.0014422 C23.0860787,5.05332148 28,6.50270437 28,9 L28,9 L28,24 C28,26.5435418 22.9023965,28 16.5,28 Z M16.5,18 L15.8069152,17.9942401 C12.1284905,17.9327028 8.94151634,17.3796084 7.00006138,16.408394 L7,19 C7,19.7701667 11.3044167,21 16.5,21 C21.587342,21 25.8202625,19.8208759 25.9944262,19.0487187 L26,19 L26.0009521,16.4078869 C23.9386591,17.4399357 20.4702012,18 16.5,18 Z M26.0015151,11.4076052 C24.0602092,12.3793089 20.8725054,12.9326862 17.1930848,12.9942401 L17.1930848,12.9942401 L16.5,13 C12.5304492,13 9.06247716,12.4401191 7.00006138,11.408394 L7,14 C7,14.7701667 11.3044167,16 16.5,16 C21.587342,16 25.8202625,14.8208759 25.9944262,14.0487187 L26,14 Z M16.5,7 L16.1764673,7.00158607 C11.1269343,7.05104355 7,8.24587849 7,9 C7,9.77016665 11.3044167,11 16.5,11 C21.6955833,11 26,9.77016665 26,9 C26,8.22983335 21.6955833,7 16.5,7 L16.5,7 Z M16.5,23 L15.8069152,22.9942401 C12.1284905,22.9327028 8.94151634,22.3796084 7.00006138,21.408394 L7,24 C7,24.7701667 11.3044167,26 16.5,26 C21.587342,26 25.8202625,24.8208759 25.9944262,24.0487187 L26,24 L26.0009521,21.4078869 C23.9386591,22.4399357 20.4702012,23 16.5,23 Z" id="形状结合" fill="#909093"></path>
    </g>
</svg>