<?xml version="1.0" encoding="UTF-8"?>
<svg width="32px" height="32px" viewBox="0 0 32 32" version="1.1" xmlns="http://www.w3.org/2000/svg" xmlns:xlink="http://www.w3.org/1999/xlink">
    <title>01 通用/01 图标/32px/show_answer</title>
    <g id="01-通用/01-图标/32px/show_answer" stroke="none" stroke-width="1" fill="none" fill-rule="evenodd">
        <path d="M10,7.99094938 C10,8.53823562 9.55633685,8.98189877 9.00905062,8.98189877 L8.69292747,8.98189877 C8.20467277,8.98189877 7.78780183,9.33448838 7.70678886,9.81597519 L6.87507112,14.7591482 L6.87507112,14.7591482 C7.65516313,14.3385262 8.54941953,14.0995568 9.5,14.0995568 C11.4388899,14.0995568 13.1434527,15.0937501 14.1228669,16.5957577 C14.6083939,16.2599717 15.2418595,16.0814555 16,16.0814555 C16.7581405,16.0814555 17.3916061,16.2599717 17.8780934,16.5949026 C18.8565473,15.0937501 20.5611101,14.0995568 22.5,14.0995568 C23.4384351,14.0995568 24.3219761,14.3324587 25.0949718,14.7431146 L24.2932293,9.97886033 C24.2122054,9.49738545 23.7953398,9.14480984 23.3070951,9.14480984 L22.9909494,9.14480984 C22.4436632,9.14480984 22,8.70114669 22,8.15386046 C22,7.60657423 22.4436632,7.16291108 22.9909494,7.16291108 L24.1528729,7.16291108 L24.1528729,7.16291108 C25.0762358,7.16291108 25.8717802,7.78767634 26.092726,8.66215255 L26.1256608,8.81898769 L27.5791214,17.4550708 C27.8502749,18.0999592 28,18.807542 28,19.5497784 C28,22.5598527 25.5375661,25 22.5,25 C19.4624339,25 17,22.5598527 17,19.5497784 C17,19.382646 17.0075916,19.2172707 17.0224516,19.0539726 L17,19.0543037 C17,18.2803241 16.7810486,18.0633543 16,18.0633543 C15.2648955,18.0633543 15.027704,18.255549 15.0023427,18.923432 L15,19.0543037 L14.9775484,19.0539726 C14.9924084,19.2172707 15,19.382646 15,19.5497784 C15,22.5598527 12.5375661,25 9.5,25 C6.46243388,25 4,22.5598527 4,19.5497784 C4,18.851573 4.132488,18.1840318 4.37391029,17.5704953 L5.87433924,8.65607662 L5.90727403,8.49924147 C6.11522295,7.67620504 6.83215901,7.07436585 7.68559848,7.00640911 L7.84712709,7 L9.00905062,7 C9.55633685,7 10,7.44366315 10,7.99094938 Z M9.5,16 C7.56700338,16 6,17.5670034 6,19.5 C6,21.4329966 7.56700338,23 9.5,23 C11.4329966,23 13,21.4329966 13,19.5 C13,17.5670034 11.4329966,16 9.5,16 Z M22.5,16 C20.5670034,16 19,17.5670034 19,19.5 C19,21.4329966 20.5670034,23 22.5,23 C24.4329966,23 26,21.4329966 26,19.5 C26,17.5670034 24.4329966,16 22.5,16 Z" id="形状" fill="#909093"></path>
    </g>
</svg>