<?xml version="1.0" encoding="UTF-8"?>
<svg width="32px" height="32px" viewBox="0 0 32 32" version="1.1" xmlns="http://www.w3.org/2000/svg" xmlns:xlink="http://www.w3.org/1999/xlink">
    <title>01 通用/01 图标/32px/show_password</title>
    <g id="01-通用/01-图标/32px/show_password" stroke="none" stroke-width="1" fill="none" fill-rule="evenodd">
        <path d="M16,9 C22.0751322,9 28,13.5 28,16 C28,18.5 22.0751322,23 16,23 C9.92486775,23 4,18.5 4,16 C4,13.5 9.92486775,9 16,9 Z M19.6599607,11.5923985 L19.6755008,11.61017 C20.4977156,12.5012292 21,13.6919572 21,15 C21,17.7614237 18.7614237,20 16,20 C13.2385763,20 11,17.7614237 11,15 C11,13.6834957 11.5088038,12.4858289 12.3404956,11.5929154 C11.1010643,11.9807002 9.89283356,12.5458754 8.8018032,13.2458443 C7.85747207,13.8516958 7.07354058,14.5178389 6.55141877,15.1387504 C6.16377049,15.5997449 6,15.9409975 6,16 C6,16.0590025 6.16377049,16.4002551 6.55141877,16.8612496 C7.07354058,17.4821611 7.85747207,18.1483042 8.8018032,18.7541557 C10.9650834,20.1420445 13.5891301,21 16,21 C18.4108699,21 21.0349166,20.1420445 23.1981968,18.7541557 C24.1425279,18.1483042 24.9264594,17.4821611 25.4485812,16.8612496 C25.8362295,16.4002551 26,16.0590025 26,16 C26,15.9409975 25.8362295,15.5997449 25.4485812,15.1387504 C24.9264594,14.5178389 24.1425279,13.8516958 23.1981968,13.2458443 C22.1071664,12.5458754 20.8989357,11.9807002 19.6599607,11.5923985 Z M16,12 C14.3431458,12 13,13.3431458 13,15 C13,16.6568542 14.3431458,18 16,18 C17.6568542,18 19,16.6568542 19,15 C19,13.3431458 17.6568542,12 16,12 Z" id="形状结合" fill="#909093"></path>
    </g>
</svg>