<?xml version="1.0" encoding="UTF-8"?>
<svg width="398px" height="133px" viewBox="0 0 398 133" version="1.1" xmlns="http://www.w3.org/2000/svg" xmlns:xlink="http://www.w3.org/1999/xlink">
    <!-- Generator: Sketch 64 (93537) - https://sketch.com -->
    <title>zz 其他/组件库/导航头</title>
    <desc>Created with Sketch.</desc>
    <defs>
        <rect id="path-1" x="0" y="0" width="398" height="184"></rect>
    </defs>
    <g id="100组件库" stroke="none" stroke-width="1" fill="none" fill-rule="evenodd">
        <g id="载入" transform="translate(-761.000000, -499.000000)">
            <g id="Group" transform="translate(761.000000, 448.000000)">
                <g id="zz-其他/组件库/导航头">
                    <mask id="mask-2" fill="white">
                        <use xlink:href="#path-1"></use>
                    </mask>
                    <g id="Rectangle"></g>
                    <path d="M69.0786408,52.0211002 L103.465841,67.1411002 C104.248122,67.4850682 104.753601,68.2618367 104.753601,69.12 L104.753601,114.048 C104.753601,114.126611 104.74936,114.204532 104.741056,114.281494 L104.738383,114.305054 C104.736373,114.321946 104.734167,114.338789 104.731768,114.355582 C104.729057,114.374571 104.726078,114.393604 104.722851,114.412567 C104.716327,114.450868 104.708847,114.488644 104.70039,114.526104 C104.695854,114.546204 104.69103,114.566234 104.685927,114.586168 C104.678911,114.61358 104.671331,114.640941 104.663229,114.668104 C104.655462,114.694146 104.647199,114.720052 104.638463,114.745763 C104.628056,114.776375 104.617071,114.806476 104.605438,114.836286 C104.597703,114.856126 104.589434,114.876418 104.580865,114.896566 C104.567927,114.926957 104.55461,114.956392 104.540653,114.985492 C104.531605,115.004376 104.522,115.023672 104.512115,115.042812 C104.497171,115.071727 104.481842,115.099843 104.465904,115.127594 C104.453568,115.149083 104.440665,115.170679 104.427392,115.192039 C104.416325,115.209844 104.405154,115.227255 104.393737,115.244502 C104.373805,115.274619 104.352953,115.304464 104.331357,115.333768 C104.321271,115.347451 104.311097,115.360921 104.300766,115.374272 C104.279936,115.401195 104.25839,115.427719 104.236215,115.45373 C104.218686,115.474289 104.200785,115.494506 104.1825,115.51439 C104.163848,115.534676 104.144792,115.554619 104.125345,115.574202 C104.101401,115.598324 104.076493,115.622243 104.050991,115.645575 C104.037439,115.657973 104.023855,115.670087 104.010109,115.682034 C103.991167,115.698501 103.971741,115.714796 103.952008,115.73076 C103.800151,115.853607 103.630171,115.956839 103.44504,116.035915 L69.1378,130.689 L69.0675574,130.720286 C68.903807,130.791645 68.7307648,130.842934 68.552245,130.871619 C68.547563,130.871956 68.5425585,130.872749 68.5375547,130.873524 L68.552245,130.871619 C68.5151264,130.877583 68.477771,130.88257 68.4402131,130.886557 C68.4222535,130.888216 68.4039373,130.889943 68.3856402,130.891428 C68.3343674,130.895717 68.2832127,130.897932 68.2318049,130.89826 L68.1644473,130.89767 C68.1424228,130.897129 68.1204489,130.896242 68.0985322,130.895014 C68.0955375,130.8947 68.0928692,130.894541 68.0902005,130.894378 L67.9692532,130.88376 C67.9638638,130.883122 67.9584789,130.882465 67.9530983,130.881787 C67.9407208,130.879887 67.9277339,130.878114 67.9147419,130.876216 C67.8809464,130.871689 67.8482358,130.866148 67.8157258,130.859856 C67.8127229,130.858761 67.8087198,130.857971 67.8047165,130.857169 L67.7745237,130.851457 C67.7372976,130.843484 67.7003505,130.834525 67.6637186,130.824603 C67.6636053,130.823877 67.662605,130.823605 67.6616047,130.823332 C67.5780824,130.801066 67.5018785,130.775387 67.4274493,130.745609 L67.3848615,130.728042 L67.3848615,130.728042 L67.3765605,130.723915 L32.9893605,116.035915 C32.1959432,115.697018 31.6808,114.914432 31.6808,114.048 L31.6808,114.048 L31.6808,69.12 C31.6808,69.103583 31.6809769,69.0872224 31.6813286,69.0709198 C31.696575,68.3614241 32.0493534,67.6578995 32.7412022,67.2564406 C32.7531519,67.2505781 32.7641802,67.2441907 32.7752642,67.2379002 C32.7964284,67.2252753 32.8185188,67.2134366 32.8409345,67.2019011 C32.8785292,67.1824457 32.9167787,67.1638471 32.9555661,67.1463803 C32.9603215,67.1447372 32.9644364,67.1429138 32.9685611,67.1411002 L32.9876981,67.1322227 C32.9953858,67.1289096 33.0030937,67.1256407 33.0108215,67.1224162 L67.3557611,52.0211002 C67.9049258,51.7796333 68.5294761,51.7796333 69.0786408,52.0211002 Z M35.9788,72.384 L35.9792,112.62 L66.068,125.472 L66.0678,120.221 L41.5758756,109.607838 C40.8404851,109.289174 40.3468812,108.588709 40.2843358,107.79561 L40.2776,107.624348 L40.2768,74.219 L35.9788,72.384 Z M68.217201,56.356 L39.256731,69.09 L64.7548,79.982 L69.0578395,81.8200852 C69.1278889,81.8500058 69.1957693,81.8833849 69.2613175,81.9199749 L69.2872806,81.9347051 L69.3247764,81.9568365 C69.3487912,81.9713413 69.3724702,81.9862867 69.3958049,82.0016596 L69.2872806,81.9347051 C69.3472838,81.9693037 69.4052768,82.0066165 69.4611309,82.0464482 C69.4825724,82.0617415 69.5036017,82.0773306 69.5243115,82.0932767 C69.5539303,82.1160776 69.5830344,82.139728 69.6114574,82.1640831 C69.6205861,82.1719039 69.6298644,82.1799915 69.6390681,82.1881542 C69.6690415,82.2147444 69.6979923,82.2419016 69.7261402,82.2698039 C69.7400471,82.2835784 69.754389,82.2981946 69.7685129,82.3130046 C69.7871425,82.3325382 69.8053928,82.3524098 69.8232558,82.3726062 C69.8428862,82.394805 69.8619641,82.4172909 69.8805678,82.4401495 C69.8998503,82.4638259 69.9190245,82.4884412 69.9376544,82.5134554 C69.9492919,82.5290939 69.9602604,82.5442387 69.9710306,82.5595227 C69.9904532,82.5870658 70.0095887,82.6156243 70.0280372,82.6446276 C70.0409681,82.6649615 70.0534786,82.6853722 70.0656503,82.7059898 C70.0796879,82.7297607 70.0933828,82.7540079 70.1066108,82.7785213 C70.1185935,82.8007351 70.1300786,82.8229347 70.1411818,82.8453384 C70.1544292,82.8720591 70.167236,82.8993032 70.1794789,82.9268258 C70.1903855,82.9513546 70.2007426,82.975849 70.2106533,83.0005484 C70.2179494,83.0187225 70.2251,83.0372701 70.2319987,83.055927 C70.2440411,83.0885043 70.2552688,83.1212642 70.2657187,83.1543287 C70.2739319,83.1803094 70.2816856,83.2065571 70.2889479,83.2329816 C70.2958288,83.2580105 70.3023273,83.2834413 70.3083694,83.3090228 C70.3464968,83.4706175 70.366401,83.6376889 70.366401,83.808 L70.366401,125.472 L100.4552,112.62 L100.455201,70.532 L68.217201,56.356 Z M44.576,76.12 L44.576,106.204 L66.068,115.516 L66.0678,109.421 L50.1726756,102.533055 C49.4372851,102.214391 48.9436812,101.513926 48.8811358,100.720827 L48.8744,100.549565 L48.8738,78.025 L44.576,76.12 Z M53.1728,79.982 L53.1728,99.13 L66.068,104.716 L66.0678,98.637 L58.7904946,95.5756319 C58.0446293,95.2618325 57.5417937,94.5566012 57.4780639,93.7560618 L57.4712,93.5831667 L57.4708,81.872 L53.1728,79.982 Z M61.7688,83.762 L61.7696,92.144 L66.068,93.952 L66.068,85.652 L61.7688,83.762 Z" id="Combined-Shape" fill="#959595" fill-rule="nonzero" mask="url(#mask-2)"></path>
                    <path d="M122.587109,105.677734 C123.430527,105.66862 124.362368,105.623047 125.382632,105.541016 C126.402896,105.458984 127.11708,105.103516 127.525186,104.474609 C127.933291,103.845703 128.137344,103.052734 128.137344,102.095703 L128.137344,102.095703 L128.137344,95.2871094 L130.205078,94.9316406 C130.132526,93.9472656 130.123457,92.7441406 130.177871,91.3222656 L130.177871,91.3222656 L128.137344,91.6777344 L128.137344,87.4667969 L130.341113,87.4667969 L130.341113,83.9667969 L128.137344,83.9667969 L128.137344,78.9082031 L124.763672,78.9082031 L124.763672,83.9667969 L122.179004,83.9667969 L122.179004,87.4667969 L124.763672,87.4667969 L124.763672,92.2246094 C123.611908,92.3977865 122.614316,92.5345052 121.770898,92.6347656 L121.770898,92.6347656 L122.179004,96.5449219 C123.058698,96.3352865 123.920254,96.1393229 124.763672,95.9570312 L124.763672,95.9570312 L124.763672,100.892578 C124.763672,101.357422 124.679784,101.683268 124.512007,101.870117 C124.34423,102.056966 124.029082,102.150391 123.566562,102.150391 C123.122181,102.150391 122.523626,102.123047 121.770898,102.068359 C122.151797,103.326172 122.423867,104.529297 122.587109,105.677734 Z M131.37498,83.3378906 L148.216133,82.4082031 C147.907786,80.311849 147.753613,79.2545573 147.753613,79.2363281 C142.529863,79.5826823 136.870801,79.8652344 130.776426,80.0839844 C130.994082,80.8313802 131.1936,81.9160156 131.37498,83.3378906 L131.37498,83.3378906 Z M134.095684,92.1425781 L134.095684,90.6660156 L144.652012,90.6660156 L144.652012,92.1425781 L148.270547,92.1425781 L148.270547,87.6582031 L145.427412,87.6582031 L147.590371,84.1855469 L144.162285,82.9277344 C143.355143,84.7050781 142.543467,86.281901 141.727256,87.6582031 L141.727256,87.6582031 L138.748086,87.6582031 L141.849687,86.3183594 C141.232995,85.1516927 140.607233,84.0214844 139.972402,82.9277344 L139.972402,82.9277344 L136.816387,84.1308594 C137.723288,85.735026 138.335446,86.9108073 138.652861,87.6582031 L138.652861,87.6582031 L134.884687,87.6582031 L136.816387,86.7285156 C136.217832,85.7076823 135.483242,84.5865885 134.612617,83.3652344 L134.612617,83.3652344 L131.56543,84.7324219 C132.345365,86.0266927 132.921247,87.0019531 133.293076,87.6582031 L133.293076,87.6582031 L130.477148,87.6582031 L130.477148,92.1425781 L134.095684,92.1425781 Z M131.238945,105.759766 C134.385892,105.057943 137.106595,104.114583 139.401055,102.929688 C141.632031,104.160156 144.289251,105.094401 147.372715,105.732422 C147.717337,104.839193 148.216133,103.672526 148.869102,102.232422 C146.547435,101.958984 144.502373,101.485026 142.733916,100.810547 C144.574925,99.3704427 145.994225,97.6842448 146.991816,95.7519531 L146.991816,95.7519531 L146.991816,92.4707031 L131.810293,92.4707031 L131.810293,95.6699219 L134.775859,95.6699219 L132.898574,96.7910156 C133.778268,98.2858073 134.889222,99.6119792 136.231436,100.769531 C134.35415,101.526042 132.145846,102.132161 129.606523,102.587891 C130.168802,103.572266 130.712943,104.629557 131.238945,105.759766 Z M139.455469,99.1152344 C138.076979,98.1582031 136.966025,97.0097656 136.122607,95.6699219 L136.122607,95.6699219 L142.910762,95.6699219 C142.112689,96.9824219 140.960924,98.1308594 139.455469,99.1152344 Z M159.736367,85.9082031 L163.082832,83.8574219 C162.103379,82.2532552 160.987891,80.5761719 159.736367,78.8261719 L159.736367,78.8261719 L156.580352,80.6855469 C157.904427,82.5996094 158.956432,84.3404948 159.736367,85.9082031 L159.736367,85.9082031 Z M174.536992,105.650391 L174.536992,98.5410156 C176.169414,100.892578 178.300632,102.761068 180.930645,104.146484 C181.656165,102.797526 182.318203,101.639974 182.916758,100.673828 C180.323021,99.7988281 178.246217,98.4863281 176.686348,96.7363281 L176.686348,96.7363281 L182.372617,96.7363281 L182.372617,93.8925781 L174.536992,93.8925781 L174.536992,92.0332031 L181.229922,92.0332031 L181.229922,79.7285156 L164.415977,79.7285156 L164.415977,92.0332031 L171.054492,92.0332031 L171.054492,93.8925781 L163.273281,93.8925781 L163.273281,96.7363281 L169.231621,96.7363281 C168.016374,98.1582031 165.839811,99.8535156 162.701934,101.822266 C163.626973,102.806641 164.415977,103.736328 165.068945,104.611328 C167.535716,102.770182 169.530898,100.682943 171.054492,98.3496094 L171.054492,98.3496094 L171.054492,105.650391 L174.536992,105.650391 Z M177.801836,84.5410156 L174.536992,84.5410156 L174.536992,82.5175781 L177.801836,82.5175781 L177.801836,84.5410156 Z M171.054492,84.5410156 L167.844063,84.5410156 L167.844063,82.5175781 L171.054492,82.5175781 L171.054492,84.5410156 Z M177.801836,89.2441406 L174.536992,89.2441406 L174.536992,87.2207031 L177.801836,87.2207031 L177.801836,89.2441406 Z M171.054492,89.2441406 L167.844063,89.2441406 L167.844063,87.2207031 L171.054492,87.2207031 L171.054492,89.2441406 Z M159.43709,104.201172 C160.634199,103.070964 162.185,101.785807 164.089492,100.345703 C163.998802,99.4160156 163.908112,98.2584635 163.817422,96.8730469 C163.218867,97.3652344 162.556829,97.8847656 161.831309,98.4316406 L161.831309,98.4316406 L161.831309,87.9042969 L155.709727,87.9042969 L155.709727,91.4589844 L158.212773,91.4589844 L158.212773,99.7167969 C158.212773,100.719401 157.976979,101.439453 157.505391,101.876953 L157.505391,101.876953 L159.43709,104.201172 Z M214.842266,86.5097656 L214.842266,80.2753906 L211.68625,80.2753906 L211.68625,83.3378906 L209.155996,83.3378906 L209.155996,78.5527344 L205.646289,78.5527344 L205.646289,83.3378906 L203.143242,83.3378906 L203.143242,80.2753906 L199.987227,80.2753906 L199.987227,86.5097656 L214.842266,86.5097656 Z M198.735703,86.8925781 L198.735703,83.4472656 L194.096904,83.4472656 L196.586348,82.4355469 C195.751999,80.7584635 195.089961,79.4733073 194.600234,78.5800781 L194.600234,78.5800781 L191.389805,79.8652344 C191.870462,80.8040365 192.410068,81.9980469 193.008623,83.4472656 L193.008623,83.4472656 L189.730176,83.4472656 L189.730176,86.8925781 L198.735703,86.8925781 Z M190.029453,103.572266 C193.040365,102.916016 195.815482,102.369141 198.354805,101.931641 C198.445495,100.218099 198.527116,99.0696615 198.599668,98.4863281 L198.599668,98.4863281 L196.735986,98.8144531 L198.599668,87.8769531 L195.307617,87.4667969 C194.890443,91.5865885 194.423389,95.5240885 193.906455,99.2792969 L193.906455,99.2792969 L189.430898,99.9902344 L190.029453,103.572266 Z M191.090527,97.9941406 L194.110508,97.4746094 L192.695742,87.5761719 L189.757383,88.0683594 C190.283385,91.2949219 190.727767,94.6035156 191.090527,97.9941406 L191.090527,97.9941406 Z M212.488857,105.691406 C213.314137,105.691406 214.030589,105.55013 214.638213,105.267578 C215.245837,104.985026 215.549648,104.365234 215.549648,103.408203 L215.549648,103.408203 L215.549648,93.0175781 L208.149336,93.0175781 L208.584648,91.2949219 L215.930547,91.2949219 L215.930547,88.0683594 L199.007773,88.0683594 L199.007773,91.2949219 L205.115752,91.2949219 L204.762061,93.0175781 L199.143809,93.0175781 L199.143809,105.541016 L202.354238,105.541016 L202.354238,96.2441406 L203.905039,96.2441406 L203.905039,104.173828 L206.571328,104.173828 L206.571328,96.2441406 L208.122129,96.2441406 L208.122129,104.173828 L210.502744,104.173828 L210.67959,105.541016 C211.287214,105.641276 211.890303,105.691406 212.488857,105.691406 Z M211.754268,102.587891 C211.618232,102.587891 211.296283,102.560547 210.788418,102.505859 L210.788418,102.505859 L210.788418,96.2441406 L212.339219,96.2441406 L212.339219,101.904297 C212.357357,102.360026 212.162373,102.587891 211.754268,102.587891 Z M228.185371,85.8261719 L231.559043,83.5292969 C230.452624,82.0527344 229.155755,80.421224 227.668438,78.6347656 L227.668438,78.6347656 L224.62125,80.6582031 C225.691393,81.9342448 226.879434,83.656901 228.185371,85.8261719 L228.185371,85.8261719 Z M232.239219,105.759766 C235.277337,105.030599 237.970833,103.882161 240.319707,102.314453 C242.650443,103.781901 245.289525,104.866536 248.236953,105.568359 C248.926198,104.128255 249.633581,102.852214 250.359102,101.740234 C247.828848,101.339193 245.557061,100.660156 243.54374,99.703125 C245.393818,97.8893229 246.958223,95.7154948 248.236953,93.1816406 L248.236953,93.1816406 L248.236953,89.9550781 L234.456592,89.9550781 C236.878018,87.9042969 238.097799,85.5800781 238.115938,82.9824219 L238.115938,82.9824219 L242.76834,82.9824219 L242.76834,85.7441406 C242.76834,87.6946615 243.793138,88.6699219 245.842734,88.6699219 C246.622669,88.6699219 247.856055,88.6516927 249.542891,88.6152344 C249.651719,87.8496094 249.878444,86.7285156 250.223066,85.2519531 C248.563437,85.297526 247.518234,85.2792969 247.087456,85.1972656 C246.656678,85.1152344 246.441289,84.7233073 246.441289,84.0214844 L246.441289,84.0214844 L246.441289,79.6464844 L234.388574,79.6464844 L234.388574,81.4238281 C234.388574,83.7936198 233.409121,85.671224 231.450215,87.0566406 C232.59291,88.1595052 233.522484,89.125651 234.238936,89.9550781 L234.238936,89.9550781 L232.375254,89.9550781 L232.375254,93.3457031 L235.30001,93.3457031 L232.919395,94.9042969 C234.107435,96.7636719 235.472321,98.3997396 237.014053,99.8125 C235.046077,100.815104 232.747083,101.603516 230.11707,102.177734 C231.060247,103.417318 231.76763,104.611328 232.239219,105.759766 Z M227.314746,104.802734 C228.511855,103.453776 230.380072,101.649089 232.919395,99.3886719 C232.538496,97.985026 232.275495,96.5904948 232.130391,95.2050781 C230.951419,96.3717448 230.108001,97.2285156 229.600137,97.7753906 L229.600137,97.7753906 L229.600137,87.8496094 L223.288105,87.8496094 L223.288105,91.5683594 L225.927188,91.5683594 L225.927188,99.7441406 C225.909049,100.655599 225.709531,101.366536 225.328633,101.876953 L225.328633,101.876953 L227.314746,104.802734 Z M240.278896,97.734375 C238.664613,96.5221354 237.281589,95.0592448 236.129824,93.3457031 L236.129824,93.3457031 L243.965449,93.3457031 C243.067617,95.0136719 241.838766,96.4765625 240.278896,97.734375 Z M262.015371,85.8535156 L265.497871,83.7480469 C264.518418,82.2714844 263.321309,80.5761719 261.906543,78.6621094 L261.906543,78.6621094 L258.72332,80.4941406 C260.029258,82.4628906 261.126608,84.249349 262.015371,85.8535156 L262.015371,85.8535156 Z M277.169688,105.705078 L277.169688,90.6660156 L284.134688,90.6660156 L284.134688,87.0019531 L277.169688,87.0019531 L277.169688,78.6894531 L273.088633,78.6894531 L273.088633,87.0019531 L266.178047,87.0019531 L266.178047,90.6660156 L273.088633,90.6660156 L273.088633,105.705078 L277.169688,105.705078 Z M261.335195,105.158203 C262.278372,104.119141 264.491211,102.460286 267.973711,100.181641 C267.810469,99.1790365 267.656296,97.8300781 267.511191,96.1347656 C265.661113,97.374349 264.364245,98.2128906 263.620586,98.6503906 L263.620586,98.6503906 L263.620586,87.8496094 L257.226934,87.8496094 L257.226934,91.4042969 L260.002051,91.4042969 L260.002051,100.181641 C260.002051,101.166016 259.775326,101.931641 259.321875,102.478516 L259.321875,102.478516 L261.335195,105.158203 Z M299.137422,105.568359 C300.969362,105.568359 302.434007,105.547852 303.531357,105.506836 C304.628708,105.46582 305.444919,105.203776 305.97999,104.720703 C306.515062,104.23763 306.782598,103.535807 306.782598,102.615234 L306.782598,102.615234 L306.782598,96.1894531 L313.353096,95.9296875 C313.95165,96.5677083 314.572878,97.2467448 315.216777,97.9667969 L315.216777,97.9667969 L317.801445,95.5878906 C314.772396,92.5253906 312.559557,90.3834635 311.16293,89.1621094 L311.16293,89.1621094 L308.632676,91.2128906 C309.258438,91.7779948 309.920475,92.406901 310.618789,93.0996094 C306.655632,93.3821615 302.719681,93.610026 298.810938,93.7832031 C304.542552,91.6139323 309.947682,89.1165365 315.026328,86.2910156 L315.026328,86.2910156 L312.468867,83.7207031 C311.054102,84.577474 309.671077,85.3886719 308.319795,86.1542969 L308.319795,86.1542969 L299.327871,86.5644531 C301.440951,85.5253906 303.440667,84.4316406 305.327021,83.2832031 C309.308317,83.0644531 313.121836,82.781901 316.767578,82.4355469 L316.767578,82.4355469 L316.223437,79.4277344 C308.986367,80.1751302 300.924017,80.530599 292.036387,80.4941406 C292.308457,81.6425781 292.507975,82.7363281 292.634941,83.7753906 L292.634941,83.7753906 L299.572734,83.5703125 C297.432448,84.8463542 295.373783,85.8535156 293.396738,86.5917969 L293.396738,86.5917969 L294.403398,89.9277344 C296.362305,89.6451823 299.141956,89.3945312 302.742354,89.1757812 C299.178232,91.0078125 295.863509,92.5071615 292.798184,93.6738281 L292.798184,93.6738281 L293.75043,97.0644531 C295.908854,96.8092448 299.019525,96.5768229 303.082441,96.3671875 L303.082441,96.3671875 L303.082441,100.783203 C303.082441,101.238932 302.964544,101.548828 302.72875,101.712891 C302.492956,101.876953 302.007764,101.958984 301.273174,101.958984 C300.266514,101.958984 299.318802,101.922526 298.430039,101.849609 C298.738385,102.998047 298.97418,104.23763 299.137422,105.568359 Z M315.434434,104.638672 L317.93748,102.013672 C315.434434,100.026693 313.17625,98.3404948 311.16293,96.9550781 L311.16293,96.9550781 L308.877539,99.3613281 C311.308034,101.202474 313.493665,102.961589 315.434434,104.638672 L315.434434,104.638672 Z M293.396738,104.966797 C295.827233,103.36263 298.067279,101.594401 300.116875,99.6621094 L300.116875,99.6621094 L297.368965,97.2285156 C295.410059,99.1061198 293.260703,100.710286 290.920898,102.041016 C291.737109,102.916016 292.562389,103.891276 293.396738,104.966797 Z M334.844707,105.814453 C336.431784,105.01237 337.783066,103.697591 338.898555,101.870117 C340.014043,100.042643 340.621667,97.1282552 340.721426,93.1269531 L340.721426,93.1269531 L342.925195,92.9628906 L342.925195,101.685547 C342.943333,104.000651 343.995339,105.158203 346.081211,105.158203 L346.081211,105.158203 L347.686426,105.158203 C349.010501,105.158203 349.978618,104.766276 350.590776,103.982422 C351.202935,103.198568 351.631445,101.412109 351.876309,98.6230469 C350.788027,98.2584635 349.699746,97.8027344 348.611465,97.2558594 C348.47543,99.3157552 348.339395,100.56901 348.203359,101.015625 C348.067324,101.46224 347.786185,101.685547 347.359941,101.685547 L347.359941,101.685547 L347.115078,101.685547 C346.64349,101.685547 346.407695,101.330078 346.407695,100.619141 L346.407695,100.619141 L346.407695,92.7441406 L347.727236,92.6757812 C348.06279,93.2408854 348.38474,93.8014323 348.693086,94.3574219 L348.693086,94.3574219 L351.658652,92.5527344 C350.280163,90.3470052 348.629603,87.968099 346.706973,85.4160156 L346.706973,85.4160156 L343.98627,86.9746094 C344.675514,87.9407552 345.328483,88.8932292 345.945176,89.8320312 C343.197266,89.9960938 340.68515,90.1191406 338.408828,90.2011719 C339.959629,88.3964844 341.329049,86.5644531 342.51709,84.7050781 L342.51709,84.7050781 L351.22334,84.7050781 L351.22334,81.5878906 L344.380771,81.5878906 C343.93639,80.5579427 343.469336,79.546224 342.979609,78.5527344 L342.979609,78.5527344 L338.925762,79.2910156 C339.30666,80.093099 339.646748,80.858724 339.946025,81.5878906 L339.946025,81.5878906 L333.919668,81.5878906 L333.919668,84.7050781 L338.517656,84.7050781 C336.848958,87.6582031 335.298158,89.5904948 333.865254,90.5019531 L333.865254,90.5019531 L334.844707,93.8378906 C335.452331,93.7102865 336.264007,93.5872396 337.279736,93.46875 C337.198115,97.4335938 336.168783,100.076823 334.191738,101.398438 C334.200807,100.614583 334.228014,99.8808594 334.273359,99.1972656 C329.883958,99.7259115 326.791426,100.054036 324.995762,100.181641 L324.995762,100.181641 L325.295039,103.818359 C327.435326,103.490234 329.720716,103.203125 332.151211,102.957031 C333.185078,103.996094 334.08291,104.948568 334.844707,105.814453 Z M326.247285,98.0761719 C328.260605,97.7115885 330.736445,97.4563802 333.674805,97.3105469 C333.656667,96.3626302 333.72015,95.3235677 333.865254,94.1933594 L333.865254,94.1933594 L329.838613,94.6582031 C331.598001,92.1425781 333.420872,89.389974 335.307227,86.4003906 L335.307227,86.4003906 L332.477695,84.8691406 L331.239775,86.9335938 C330.27846,86.9882812 329.421439,87.0201823 328.668711,87.0292969 C330.210443,84.8235677 331.643346,82.4720052 332.967422,79.9746094 L332.967422,79.9746094 L329.403301,78.5527344 C328.006673,82.0527344 326.446803,84.9876302 324.723691,87.3574219 L324.723691,87.3574219 L325.703145,90.4472656 C326.628184,90.3105469 327.798086,90.1920573 329.212852,90.0917969 C327.716465,92.343099 326.446803,93.9928385 325.403867,95.0410156 L325.403867,95.0410156 L326.247285,98.0761719 Z" id="授课端设计系统" fill="#959595" fill-rule="nonzero" mask="url(#mask-2)"></path>
                    <rect id="矩形" fill="#FFFFFF" fill-rule="evenodd" mask="url(#mask-2)" x="0" y="182" width="398" height="2"></rect>
                </g>
            </g>
        </g>
    </g>
</svg>