<?xml version="1.0" encoding="UTF-8"?>
<svg width="20px" height="20px" viewBox="0 0 20 20" version="1.1" xmlns="http://www.w3.org/2000/svg" xmlns:xlink="http://www.w3.org/1999/xlink">
    <title>01 通用/01 图标/16px/submit</title>
    <g id="01-通用/01-图标/16px/submit" stroke="none" stroke-width="1" fill="none" fill-rule="evenodd">
        <circle id="椭圆形" fill="#F7F7F7" opacity="0.759881882" cx="10" cy="10" r="10"></circle>
        <path d="M13.3333333,4 C14.2538079,4 15,4.76751186 15,5.71428571 L15,8 L14,8 L14,5.85714286 C14,5.30485811 13.5522847,4.85714286 13,4.85714286 L7,4.85714286 C6.44771525,4.85714286 6,5.30485811 6,5.85714286 L6,14.1428571 C6,14.6951419 6.44771525,15.1428571 7,15.1428571 L9,15.142 L9,16 L6.66666667,16 C5.74619208,16 5,15.2324881 5,14.2857143 L5,5.71428571 C5,4.76751186 5.74619208,4 6.66666667,4 L13.3333333,4 Z" id="路径" fill="#8E8E8E" fill-rule="nonzero"></path>
        <polygon id="路径" fill="#8E8E8E" points="13 8.58578644 16.7071068 12.2928932 15.2928932 13.7071068 13.9998932 12.4147864 14 16 12 16 11.9998932 12.4147864 10.7071068 13.7071068 9.29289322 12.2928932"></polygon>
    </g>
</svg>