<?xml version="1.0" encoding="UTF-8"?>
<svg width="48px" height="48px" viewBox="0 0 48 48" version="1.1" xmlns="http://www.w3.org/2000/svg" xmlns:xlink="http://www.w3.org/1999/xlink">
    <title>01 通用/01 图标/48px/tool7</title>
    <g id="01-通用/01-图标/48px/tool7" stroke="none" stroke-width="1" fill="none" fill-rule="evenodd">
        <rect id="矩形" fill="#FA715F" opacity="0.5" x="11" y="16" width="27" height="1"></rect>
        <rect id="矩形备份-2" fill="#FA715F" x="11" y="26" width="27" height="1"></rect>
        <rect id="矩形备份" fill="#FA715F" opacity="0.5" x="11" y="21" width="27" height="1"></rect>
        <rect id="矩形备份-3" fill="#FA715F" opacity="0.5" x="11" y="31" width="27" height="1"></rect>
        <path d="M37,9 L12,9 C10.3431458,9 9,10.3431458 9,12 L9,37 C9,38.6568542 10.3431458,40 12,40 L37,40 C38.6568542,40 40,38.6568542 40,37 L40,12 C40,10.3431458 38.6568542,9 37,9 Z M12,11 L37,11 C37.5522847,11 38,11.4477153 38,12 L38,37 C38,37.5522847 37.5522847,38 37,38 L12,38 C11.4477153,38 11,37.5522847 11,37 L11,12 C11,11.4477153 11.4477153,11 12,11 Z" id="矩形" fill="#FA715F" fill-rule="nonzero"></path>
    </g>
</svg>