<?xml version="1.0" encoding="UTF-8"?>
<svg width="48px" height="48px" viewBox="0 0 48 48" version="1.1" xmlns="http://www.w3.org/2000/svg" xmlns:xlink="http://www.w3.org/1999/xlink">
    <title>01 通用/01 图标/48px/tool5</title>
    <defs>
        <linearGradient x1="50%" y1="0%" x2="50%" y2="100%" id="linearGradient-1">
            <stop stop-color="#FD927E" offset="0%"></stop>
            <stop stop-color="#FA6B5A" offset="100%"></stop>
        </linearGradient>
    </defs>
    <g id="01-通用/01-图标/48px/tool5" stroke="none" stroke-width="1" fill="none" fill-rule="evenodd">
        <path d="M7,33 L9,33 L9,37 C9,38.0543618 9.81587779,38.9181651 10.8507377,38.9945143 L11,39 L14.999,39 L14.999,41 L11,41 C8.85780461,41 7.10892112,39.3160315 7.00489531,37.1996403 L7,37 L7,33 Z M41,33 L41,37 C41,39.209139 39.209139,41 37,41 L37,41 L32.999,41 L32.999,39 L37,39 C38.0543618,39 38.9181651,38.1841222 38.9945143,37.1492623 L39,37 L39,33 L41,33 Z M37,7 C39.209139,7 41,8.790861 41,11 L41,11 L41,15 L39,15 L39,11 C39,9.9456382 38.1841222,9.08183488 37.1492623,9.00548574 L37,9 L33,9 L33,7 Z M15,7 L15,9 L11,9 C9.9456382,9 9.08183488,9.81587779 9.00548574,10.8507377 L9,11 L9,15 L7,15 L7,11 C7,8.85780461 8.68396847,7.10892112 10.8003597,7.00489531 L11,7 L15,7 Z" id="形状结合" fill="#FDBAB1" fill-rule="nonzero"></path>
        <path d="M35,11 C36.1045695,11 37,11.8954305 37,13 L37,35 C37,36.1045695 36.1045695,37 35,37 L13,37 C11.8954305,37 11,36.1045695 11,35 L11,13 C11,11.8954305 11.8954305,11 13,11 L35,11 Z M19.7286659,23.0212133 C17.1031079,22.8090246 15.1935526,24.1886709 14,27.160152 L14,27.160152 L14,32.1 C14,32.5970563 14.4029437,33 14.9,33 L14.9,33 L33.1,33 C33.5970563,33 34,32.5970563 34,32.1 L34,32.1 L34,26.0429459 C31.6289927,27.9003795 29.5777107,28.6457812 27.8461538,28.279151 C25.2488186,27.7292058 23.6670029,23.3394962 19.7286659,23.0212133 Z M30,17 C28.3431458,17 27,18.3431458 27,20 C27,21.6568542 28.3431458,23 30,23 C31.6568542,23 33,21.6568542 33,20 C33,18.3431458 31.6568542,17 30,17 Z" id="形状结合" fill="url(#linearGradient-1)"></path>
    </g>
</svg>