<?xml version="1.0" encoding="UTF-8"?>
<svg width="48px" height="48px" viewBox="0 0 48 48" version="1.1" xmlns="http://www.w3.org/2000/svg" xmlns:xlink="http://www.w3.org/1999/xlink">
    <title>01 通用/01 图标/48px/tool3</title>
    <defs>
        <linearGradient x1="50%" y1="-103.603715%" x2="50%" y2="100%" id="linearGradient-1">
            <stop stop-color="#FEBA5A" offset="0%"></stop>
            <stop stop-color="#F49344" offset="100%"></stop>
        </linearGradient>
        <linearGradient x1="50%" y1="22.8687539%" x2="50%" y2="193.054765%" id="linearGradient-2">
            <stop stop-color="#FEBA5A" offset="0%"></stop>
            <stop stop-color="#F49344" offset="100%"></stop>
        </linearGradient>
        <linearGradient x1="50%" y1="-89.2373518%" x2="50%" y2="100%" id="linearGradient-3">
            <stop stop-color="#FEBA5A" offset="0%"></stop>
            <stop stop-color="#F49344" offset="100%"></stop>
        </linearGradient>
        <linearGradient x1="50%" y1="22.8687539%" x2="50%" y2="188.949064%" id="linearGradient-4">
            <stop stop-color="#FEBA5A" offset="0%"></stop>
            <stop stop-color="#F49344" offset="100%"></stop>
        </linearGradient>
    </defs>
    <g id="01-通用/01-图标/48px/tool3" stroke="none" stroke-width="1" fill="none" fill-rule="evenodd">
        <path d="M34.3539566,25.8786318 C38.8022062,27.5922524 40.8628577,31.4575153 40.9964783,34.2269197 C41.0925974,36.2190698 39.2211348,37.4212773 35.3820908,37.8335422 C35.9778437,37.0151101 36.25688,36.0226429 36.1969692,34.8394356 C36.0498187,31.9332921 34.5219724,28.9946142 31.9808851,26.7812117 L32.1058339,26.7522913 L32.1058339,26.7522913 C32.119141,26.7491019 32.1328436,26.7457833 32.1465338,26.7424334 C32.2395016,26.7196801 32.3314706,26.6956031 32.4228534,26.6701202 L32.4783861,26.6544408 L32.4783861,26.6544408 C32.5743887,26.6269963 32.669452,26.5980889 32.7638344,26.5676653 L32.7967375,26.5569888 C33.0069448,26.4883295 33.2137471,26.4121402 33.4168258,26.3287396 C33.4250182,26.3253749 33.4330017,26.3220824 33.4409795,26.3187788 C33.5165286,26.2874969 33.5918347,26.2550927 33.6666017,26.2216986 C33.7197822,26.1979441 33.7724541,26.1737996 33.8248497,26.1491647 C33.995992,26.0686954 34.164063,25.9830618 34.3289855,25.8924093 L34.3539566,25.8786318 Z" id="形状结合" fill="url(#linearGradient-1)"></path>
        <path d="M30,11 C33.8659932,11 37,14.1340068 37,18 C37,21.8659932 33.8659932,25 30,25 C29.1370013,25 28.3104781,24.8438299 27.5471496,24.5582088 C29.6627276,22.7243973 31,20.018367 31,17 C31,14.7769308 30.274593,12.7232894 29.0475729,11.06287 C29.3593843,11.0218578 29.6771396,11 30,11 Z" id="形状结合" fill="url(#linearGradient-2)"></path>
        <path d="M16.0107977,25.6675087 C17.4790649,26.5153633 19.182936,27 21,27 C22.7967686,27 24.4828587,26.5261291 25.9401116,25.6965459 C31.4882131,27.3871887 34.041149,31.812671 34.1995281,34.9405745 C34.331385,37.5446784 31.1882685,38.8958913 24.7701788,38.9942131 L24,39 L18.4399559,39.0054831 C11.613004,38.8525849 8.19952809,37.4976154 8.19952809,34.9405745 C8.19952809,31.448881 10.573107,27.2676745 16.0107977,25.6675087 Z" id="路径" fill="url(#linearGradient-3)"></path>
        <path d="M21,9 C25.418278,9 29,12.581722 29,17 C29,21.418278 25.418278,25 21,25 C16.581722,25 13,21.418278 13,17 C13,12.581722 16.581722,9 21,9 Z" id="路径" fill="url(#linearGradient-4)"></path>
    </g>
</svg>