<?xml version="1.0" encoding="UTF-8"?>
<svg width="48px" height="48px" viewBox="0 0 48 48" version="1.1" xmlns="http://www.w3.org/2000/svg" xmlns:xlink="http://www.w3.org/1999/xlink">
    <title>01 通用/01 图标/48px/tool6</title>
    <g id="01-通用/01-图标/48px/tool6" stroke="none" stroke-width="1" fill="none" fill-rule="evenodd">
        <path d="M37,9 L12,9 C10.3431458,9 9,10.3431458 9,12 L9,37 C9,38.6568542 10.3431458,40 12,40 L37,40 C38.6568542,40 40,38.6568542 40,37 L40,12 C40,10.3431458 38.6568542,9 37,9 Z M12,11 L37,11 C37.5522847,11 38,11.4477153 38,12 L38,37 C38,37.5522847 37.5522847,38 37,38 L12,38 C11.4477153,38 11,37.5522847 11,37 L11,12 C11,11.4477153 11.4477153,11 12,11 Z" id="矩形" fill="#42A9FA" fill-rule="nonzero"></path>
        <rect id="矩形" fill="#42A9FA" opacity="0.5" x="19" y="24" width="1" height="1"></rect>
        <rect id="矩形" fill="#42A9FA" opacity="0.5" x="21" y="24" width="1" height="1"></rect>
        <rect id="矩形" fill="#42A9FA" opacity="0.5" x="23" y="24" width="1" height="1"></rect>
        <rect id="矩形" fill="#42A9FA" opacity="0.5" x="25" y="24" width="1" height="1"></rect>
        <rect id="矩形" fill="#42A9FA" opacity="0.5" x="27" y="24" width="1" height="1"></rect>
        <rect id="矩形" fill="#42A9FA" opacity="0.5" x="29" y="24" width="1" height="1"></rect>
        <rect id="矩形" fill="#42A9FA" opacity="0.5" x="31" y="24" width="1" height="1"></rect>
        <rect id="矩形" fill="#42A9FA" opacity="0.5" x="33" y="24" width="1" height="1"></rect>
        <rect id="矩形" fill="#42A9FA" opacity="0.5" x="35" y="24" width="1" height="1"></rect>
        <rect id="矩形" fill="#42A9FA" opacity="0.5" x="37" y="24" width="1" height="1"></rect>
        <rect id="矩形" fill="#42A9FA" opacity="0.5" x="11" y="24" width="1" height="1"></rect>
        <rect id="矩形" fill="#42A9FA" opacity="0.5" x="13" y="24" width="1" height="1"></rect>
        <rect id="矩形" fill="#42A9FA" opacity="0.5" x="15" y="24" width="1" height="1"></rect>
        <rect id="矩形" fill="#42A9FA" opacity="0.5" x="17" y="24" width="1" height="1"></rect>
        <rect id="矩形" fill="#42A9FA" opacity="0.5" transform="translate(24.500000, 19.500000) rotate(-270.000000) translate(-24.500000, -19.500000) " x="24" y="19" width="1" height="1"></rect>
        <rect id="矩形" fill="#42A9FA" opacity="0.5" transform="translate(24.500000, 21.500000) rotate(-270.000000) translate(-24.500000, -21.500000) " x="24" y="21" width="1" height="1"></rect>
        <rect id="矩形" fill="#42A9FA" opacity="0.5" transform="translate(24.500000, 23.500000) rotate(-270.000000) translate(-24.500000, -23.500000) " x="24" y="23" width="1" height="1"></rect>
        <rect id="矩形" fill="#42A9FA" opacity="0.5" transform="translate(24.500000, 25.500000) rotate(-270.000000) translate(-24.500000, -25.500000) " x="24" y="25" width="1" height="1"></rect>
        <rect id="矩形" fill="#42A9FA" opacity="0.5" transform="translate(24.500000, 11.500000) rotate(-270.000000) translate(-24.500000, -11.500000) " x="24" y="11" width="1" height="1"></rect>
        <rect id="矩形" fill="#42A9FA" opacity="0.5" transform="translate(24.500000, 13.500000) rotate(-270.000000) translate(-24.500000, -13.500000) " x="24" y="13" width="1" height="1"></rect>
        <rect id="矩形" fill="#42A9FA" opacity="0.5" transform="translate(24.500000, 15.500000) rotate(-270.000000) translate(-24.500000, -15.500000) " x="24" y="15" width="1" height="1"></rect>
        <rect id="矩形" fill="#42A9FA" opacity="0.5" transform="translate(24.500000, 17.500000) rotate(-270.000000) translate(-24.500000, -17.500000) " x="24" y="17" width="1" height="1"></rect>
        <rect id="矩形" fill="#42A9FA" opacity="0.5" transform="translate(24.500000, 31.500000) rotate(-270.000000) translate(-24.500000, -31.500000) " x="24" y="31" width="1" height="1"></rect>
        <rect id="矩形" fill="#42A9FA" opacity="0.5" transform="translate(24.500000, 33.500000) rotate(-270.000000) translate(-24.500000, -33.500000) " x="24" y="33" width="1" height="1"></rect>
        <rect id="矩形" fill="#42A9FA" opacity="0.5" transform="translate(24.500000, 35.500000) rotate(-270.000000) translate(-24.500000, -35.500000) " x="24" y="35" width="1" height="1"></rect>
        <rect id="矩形" fill="#42A9FA" opacity="0.5" transform="translate(24.500000, 37.500000) rotate(-270.000000) translate(-24.500000, -37.500000) " x="24" y="37" width="1" height="1"></rect>
        <rect id="矩形" fill="#42A9FA" opacity="0.5" transform="translate(24.500000, 27.500000) rotate(-270.000000) translate(-24.500000, -27.500000) " x="24" y="27" width="1" height="1"></rect>
        <rect id="矩形" fill="#42A9FA" opacity="0.5" transform="translate(24.500000, 29.500000) rotate(-270.000000) translate(-24.500000, -29.500000) " x="24" y="29" width="1" height="1"></rect>
    </g>
</svg>