<?xml version="1.0" encoding="UTF-8"?>
<svg width="32px" height="32px" viewBox="0 0 32 32" version="1.1" xmlns="http://www.w3.org/2000/svg" xmlns:xlink="http://www.w3.org/1999/xlink">
    <title>01 通用/01 图标/32px/tool_brush_menu</title>
    <g id="01-通用/01-图标/32px/tool_brush_menu" stroke="none" stroke-width="1" fill="none" fill-rule="evenodd">
        <path d="M30,25.2071068 L30,29 L30,29 C30,29.5128358 29.6139598,29.9355072 29.1166211,29.9932723 L29,30 L25.2071068,30 C24.9309644,30 24.7071068,29.7761424 24.7071068,29.5 C24.7071068,29.3673918 24.7597852,29.2402148 24.8535534,29.1464466 L29.1464466,24.8535534 C29.3417088,24.6582912 29.6582912,24.6582912 29.8535534,24.8535534 C29.9473216,24.9473216 30,25.0744985 30,25.2071068 Z M6.37067327,21.7687616 L10.613314,26.0114023 L6.14671952,27.5002671 C5.6227762,27.6749149 5.05645623,27.3917549 4.88180846,26.8678116 C4.81338619,26.6625447 4.81338619,26.4406228 4.88180846,26.235356 L6.37067327,21.7687616 Z M26.1696631,4.79819884 L27.5838767,6.2124124 C28.3649253,6.99346098 28.3649253,8.25979094 27.5838767,9.04083952 L12.0275275,24.5971887 L12.0275275,24.5971887 L7.78488683,20.354548 L23.341236,4.79819884 C24.1222846,4.01715025 25.3886146,4.01715025 26.1696631,4.79819884 Z" id="形状" fill="#909093"></path>
    </g>
</svg>