<?xml version="1.0" encoding="UTF-8"?>
<svg width="32px" height="32px" viewBox="0 0 32 32" version="1.1" xmlns="http://www.w3.org/2000/svg" xmlns:xlink="http://www.w3.org/1999/xlink">
    <title>01 通用/01 图标/32px/tool_eraser</title>
    <g id="01-通用/01-图标/32px/tool_eraser" stroke="none" stroke-width="1" fill="none" fill-rule="evenodd">
        <path d="M22.526302,4.58485833 L28.1668841,10.2180393 C28.9484453,10.998575 28.9492766,12.2649047 28.1687409,13.0464659 C28.1681224,13.0470852 28.1675034,13.0477042 28.1668841,13.0483227 L13.348055,27.8477079 L13.348055,27.8477079 C12.1784722,29.015756 10.2822038,29.015756 9.11262102,27.8477079 L4.87718709,23.6178313 C3.7076043,22.4497831 3.7076043,20.5560029 4.87718709,19.3879547 L19.6997323,4.58485833 C20.480568,3.80504722 21.7454664,3.80504722 22.526302,4.58485833 Z M9.11262102,17.9779959 L6.2889984,20.7979136 C5.89913747,21.187263 5.89913747,21.8185231 6.2889984,22.2078724 L10.5244323,26.437749 C10.9142933,26.8270984 11.5463827,26.8270984 11.9362436,26.437749 L14.7598663,23.6178313 L9.11262102,17.9779959 Z" id="形状" fill="#909093"></path>
    </g>
</svg>