<?xml version="1.0" encoding="UTF-8"?>
<svg width="24px" height="24px" viewBox="0 0 24 24" version="1.1" xmlns="http://www.w3.org/2000/svg" xmlns:xlink="http://www.w3.org/1999/xlink">
    <title>01 通用/01 图标/24px/video</title>
    <defs>
        <linearGradient x1="50%" y1="0%" x2="50%" y2="100%" id="linearGradient-1">
            <stop stop-color="#7C93FF" offset="0%"></stop>
            <stop stop-color="#5B75ED" offset="100%"></stop>
        </linearGradient>
        <linearGradient x1="0%" y1="100%" x2="49.3414802%" y2="50.6585198%" id="linearGradient-2">
            <stop stop-color="#94A7E9" offset="0%"></stop>
            <stop stop-color="#8398FE" offset="100%"></stop>
        </linearGradient>
    </defs>
    <g id="01-通用/01-图标/24px/video" stroke="none" stroke-width="1" fill="none" fill-rule="evenodd">
        <path d="M5.5638852,1 L14.7581039,1 C15.2754168,1 15.454429,1.01881024 15.6528092,1.06466828 C15.8511894,1.11052632 16.0267079,1.18343217 16.1991965,1.29162339 C16.3716851,1.39981461 16.5113421,1.51337128 16.8764126,1.87989038 L20.1273784,5.14375685 C20.4911833,5.50900544 20.6038154,5.64842309 20.7110939,5.82046989 C20.8183724,5.99251669 20.8905989,6.16737645 20.9360058,6.36497956 C20.9814127,6.56258268 21,6.74084591 21,7.2563656 L21,20.4361148 C21,21.3276335 20.9071744,21.6509198 20.7328673,21.9768457 C20.5585602,22.3027716 20.3027716,22.5585602 19.9768457,22.7328673 C19.6509198,22.9071744 19.3276335,23 18.4361148,23 L5.5638852,23 C4.67236646,23 4.34908022,22.9071744 4.0231543,22.7328673 C3.69722837,22.5585602 3.4414398,22.3027716 3.2671327,21.9768457 C3.09282561,21.6509198 3,21.3276335 3,20.4361148 L3,3.5638852 C3,2.67236646 3.09282561,2.34908022 3.2671327,2.0231543 C3.4414398,1.69722837 3.69722837,1.4414398 4.0231543,1.2671327 C4.34908022,1.09282561 4.67236646,1 5.5638852,1 Z" id="Rectangle" fill="url(#linearGradient-1)"></path>
        <path d="M16,1 L21,6 L17,6 C16.4477153,6 16,5.55228475 16,5 L16,1 L16,1 Z" id="矩形" fill="url(#linearGradient-2)"></path>
        <path d="M10.5299989,9.95624934 L15.6432027,13.1520017 C16.1115392,13.444712 16.2539124,14.0616624 15.9612021,14.5299989 C15.8807214,14.6587681 15.7719718,14.7675176 15.6432027,14.8479983 L10.5299989,18.0437507 C10.0616624,18.336461 9.44471203,18.1940878 9.1520017,17.7257513 C9.05266944,17.5668197 9,17.3831721 9,17.1957524 L9,10.8042476 C9,10.2519629 9.44771525,9.80424764 10,9.80424764 C10.1874197,9.80424764 10.3710673,9.85691709 10.5299989,9.95624934 Z" id="矩形" fill="#FFFFFF"></path>
    </g>
</svg>