<?xml version="1.0" encoding="UTF-8"?>
<svg width="32px" height="32px" viewBox="0 0 32 32" version="1.1" xmlns="http://www.w3.org/2000/svg" xmlns:xlink="http://www.w3.org/1999/xlink">
    <title>01 通用/01 图标/32px/zoom_out</title>
    <g id="01-通用/01-图标/32px/zoom_out" stroke="none" stroke-width="1" fill="none" fill-rule="evenodd">
        <path d="M21.9497475,6.39339828 C26.0069814,10.4506322 26.2322695,16.8887321 22.6256118,21.2103731 L27.6066654,26.1923244 C27.9971648,26.5828942 27.9971363,27.2160671 27.6066017,27.6066017 C27.2160907,27.9971127 26.5829473,27.9971127 26.1924363,27.6066017 C26.1924283,27.6065937 26.1924203,27.6065857 26.1924122,27.6065776 L21.2111431,22.6249692 L21.2111431,22.6249692 C16.8894968,26.2322963 10.4508732,26.0072224 6.39339828,21.9497475 C2.09763107,17.6539803 2.09763107,10.6891655 6.39339828,6.39339828 C10.6891655,2.09763107 17.6539803,2.09763107 21.9497475,6.39339828 Z M7.80761184,7.80761184 C4.29289322,11.3223305 4.29289322,17.0208153 7.80761184,20.5355339 C11.3223305,24.0502525 17.0208153,24.0502525 20.5355339,20.5355339 C24.0502525,17.0208153 24.0502525,11.3223305 20.5355339,7.80761184 C17.0208153,4.29289322 11.3223305,4.29289322 7.80761184,7.80761184 Z M19,14 C19,14.5522847 18.5522847,15 18,15 L10,15 C9.44771525,15 9,14.5522847 9,14 C9,13.4477153 9.44771525,13 10,13 L18,13 C18.5522847,13 19,13.4477153 19,14 Z" id="形状" fill="#909093"></path>
    </g>
</svg>