<?xml version="1.0" encoding="UTF-8"?>
<svg width="32px" height="32px" viewBox="0 0 32 32" version="1.1" xmlns="http://www.w3.org/2000/svg" xmlns:xlink="http://www.w3.org/1999/xlink">
    <title>01 通用/01 图标/32px/circle_delete</title>
    <g id="01-通用/01-图标/32px/circle_delete" stroke="none" stroke-width="1" fill="none" fill-rule="evenodd">
        <path d="M16,8 C20.418278,8 24,11.581722 24,16 C24,20.418278 20.418278,24 16,24 C11.581722,24 8,20.418278 8,16 C8,11.581722 11.581722,8 16,8 Z M13.8786797,12.4644661 C13.4881554,12.0739418 12.8549904,12.0739418 12.4644661,12.4644661 C12.0739418,12.8549904 12.0739418,13.4881554 12.4644661,13.8786797 L12.4644661,13.8786797 L14.5864935,15.9992929 L12.4644661,18.1213203 C12.0739418,18.5118446 12.0739418,19.1450096 12.4644661,19.5355339 C12.8549904,19.9260582 13.4881554,19.9260582 13.8786797,19.5355339 L13.8786797,19.5355339 L16.0007071,17.4135065 L18.1213203,19.5355339 C18.5118446,19.9260582 19.1450096,19.9260582 19.5355339,19.5355339 C19.9260582,19.1450096 19.9260582,18.5118446 19.5355339,18.1213203 L19.5355339,18.1213203 L17.4149207,15.9992929 L19.5355339,13.8786797 C19.9260582,13.4881554 19.9260582,12.8549904 19.5355339,12.4644661 C19.1450096,12.0739418 18.5118446,12.0739418 18.1213203,12.4644661 L18.1213203,12.4644661 L16.0007071,14.5850793 Z" id="形状结合" fill="#909093"></path>
    </g>
</svg>