<?xml version="1.0" encoding="UTF-8"?>
<svg width="32px" height="32px" viewBox="0 0 32 32" version="1.1" xmlns="http://www.w3.org/2000/svg" xmlns:xlink="http://www.w3.org/1999/xlink">
    <title>01 通用/01 图标/32px/file</title>
    <g id="01-通用/01-图标/32px/file" stroke="none" stroke-width="1" fill="none" fill-rule="evenodd">
        <path d="M13.3137845,7 L8,7 C6.34314575,7 5,8.34314575 5,10 L5,23 C5,24.6568542 6.34314575,26 8,26 L24,26 C25.6568542,26 27,24.6568542 27,23 L27,13.5 C27,11.8431458 25.6568542,10.5 24,10.5 L19.1862155,10.5 C18.9638396,10.5 18.7478078,10.4258778 18.5722749,10.2893522 L15.1556063,7.63194335 C14.6290077,7.22236662 13.9809121,7 13.3137845,7 Z M8,9 L13.3137845,9 C13.5361604,9 13.7521922,9.07412221 13.9277251,9.21064778 L17.3443937,11.8680567 C17.8709923,12.2776334 18.5190879,12.5 19.1862155,12.5 L24,12.5 C24.5522847,12.5 25,12.9477153 25,13.5 L25,23 C25,23.5522847 24.5522847,24 24,24 L8,24 C7.44771525,24 7,23.5522847 7,23 L7,10 C7,9.44771525 7.44771525,9 8,9 Z" id="矩形" fill="#909093"></path>
    </g>
</svg>