<?xml version="1.0" encoding="UTF-8"?>
<svg width="64px" height="64px" viewBox="0 0 64 64" version="1.1" xmlns="http://www.w3.org/2000/svg" xmlns:xlink="http://www.w3.org/1999/xlink">
    <title>01 通用/01 图标/64px/e-paper copy备份</title>
    <defs>
        <linearGradient x1="0%" y1="52.6249199%" x2="100.882903%" y2="52.6249199%" id="linearGradient-1">
            <stop stop-color="#14A57D" offset="0%"></stop>
            <stop stop-color="#128565" offset="100%"></stop>
        </linearGradient>
        <linearGradient x1="50%" y1="0%" x2="50%" y2="100%" id="linearGradient-2">
            <stop stop-color="#1CBB8F" offset="0%"></stop>
            <stop stop-color="#0C9F76" offset="100%"></stop>
        </linearGradient>
        <path d="M17.1277704,6 L46.8722296,6 C48.6552671,6 49.3018396,6.18565122 49.9536914,6.53426541 C50.6055433,6.88287959 51.1171204,7.39445674 51.4657346,8.04630859 C51.8143488,8.69816044 52,9.34473292 52,11.1277704 L52,51.8722296 C52,53.6552671 51.8143488,54.3018396 51.4657346,54.9536914 C51.1171204,55.6055433 50.6055433,56.1171204 49.9536914,56.4657346 C49.3018396,56.8143488 48.6552671,57 46.8722296,57 L17.1277704,57 C15.3447329,57 14.6981604,56.8143488 14.0463086,56.4657346 C13.3944567,56.1171204 12.8828796,55.6055433 12.5342654,54.9536914 C12.1856512,54.3018396 12,53.6552671 12,51.8722296 L12,11.1277704 C12,9.34473292 12.1856512,8.69816044 12.5342654,8.04630859 C12.8828796,7.39445674 13.3944567,6.88287959 14.0463086,6.53426541 C14.6981604,6.18565122 15.3447329,6 17.1277704,6 Z" id="path-3"></path>
        <filter x="-17.5%" y="-9.8%" width="135.0%" height="127.5%" filterUnits="objectBoundingBox" id="filter-4">
            <feOffset dx="0" dy="2" in="SourceAlpha" result="shadowOffsetOuter1"></feOffset>
            <feGaussianBlur stdDeviation="2" in="shadowOffsetOuter1" result="shadowBlurOuter1"></feGaussianBlur>
            <feColorMatrix values="0 0 0 0 0.0357727018   0 0 0 0 0.456776495   0 0 0 0 0.352790582  0 0 0 0.5 0" type="matrix" in="shadowBlurOuter1"></feColorMatrix>
        </filter>
    </defs>
    <g id="01-通用/01-图标/64px/e-paper-copy备份" stroke="none" stroke-width="1" fill="none" fill-rule="evenodd">
        <path d="M20.1277704,7 L43.8722296,7 C45.6552671,7 46.3018396,7.18565122 46.9536914,7.53426541 C47.6055433,7.88287959 48.1171204,8.39445674 48.4657346,9.04630859 C48.8143488,9.69816044 49,10.3447329 49,12.1277704 L49,52.8722296 C49,54.6552671 48.8143488,55.3018396 48.4657346,55.9536914 C48.1171204,56.6055433 47.6055433,57.1171204 46.9536914,57.4657346 C46.3018396,57.8143488 45.6552671,58 43.8722296,58 L20.1277704,58 C18.3447329,58 17.6981604,57.8143488 17.0463086,57.4657346 C16.3944567,57.1171204 15.8828796,56.6055433 15.5342654,55.9536914 C15.1856512,55.3018396 15,54.6552671 15,52.8722296 L15,12.1277704 C15,10.3447329 15.1856512,9.69816044 15.5342654,9.04630859 C15.8828796,8.39445674 16.3944567,7.88287959 17.0463086,7.53426541 C17.6981604,7.18565122 18.3447329,7 20.1277704,7 Z" id="Rectangle" fill="#2C6D5B" transform="translate(32.000000, 32.500000) rotate(-270.000000) translate(-32.000000, -32.500000) "></path>
        <path d="M20.6277704,6.5 L43.3722296,6.5 C45.1552671,6.5 45.8018396,6.68565122 46.4536914,7.03426541 C47.1055433,7.38287959 47.6171204,7.89445674 47.9657346,8.54630859 C48.3143488,9.19816044 48.5,9.84473292 48.5,11.6277704 L48.5,52.3722296 C48.5,54.1552671 48.3143488,54.8018396 47.9657346,55.4536914 C47.6171204,56.1055433 47.1055433,56.6171204 46.4536914,56.9657346 C45.8018396,57.3143488 45.1552671,57.5 43.3722296,57.5 L20.6277704,57.5 C18.8447329,57.5 18.1981604,57.3143488 17.5463086,56.9657346 C16.8944567,56.6171204 16.3828796,56.1055433 16.0342654,55.4536914 C15.6856512,54.8018396 15.5,54.1552671 15.5,52.3722296 L15.5,11.6277704 C15.5,9.84473292 15.6856512,9.19816044 16.0342654,8.54630859 C16.3828796,7.89445674 16.8944567,7.38287959 17.5463086,7.03426541 C18.1981604,6.68565122 18.8447329,6.5 20.6277704,6.5 Z" id="Rectangle" fill="url(#linearGradient-1)" transform="translate(32.000000, 32.000000) rotate(-270.000000) translate(-32.000000, -32.000000) "></path>
        <path d="M17.1277704,6 L46.8722296,6 C48.6552671,6 49.3018396,6.18565122 49.9536914,6.53426541 C50.6055433,6.88287959 51.1171204,7.39445674 51.4657346,8.04630859 C51.8143488,8.69816044 52,9.34473292 52,11.1277704 L52,52.8722296 C52,54.6552671 51.8143488,55.3018396 51.4657346,55.9536914 C51.1171204,56.6055433 50.6055433,57.1171204 49.9536914,57.4657346 C49.3018396,57.8143488 48.6552671,58 46.8722296,58 L17.1277704,58 C15.3447329,58 14.6981604,57.8143488 14.0463086,57.4657346 C13.3944567,57.1171204 12.8828796,56.6055433 12.5342654,55.9536914 C12.1856512,55.3018396 12,54.6552671 12,52.8722296 L12,11.1277704 C12,9.34473292 12.1856512,8.69816044 12.5342654,8.04630859 C12.8828796,7.39445674 13.3944567,6.88287959 14.0463086,6.53426541 C14.6981604,6.18565122 15.3447329,6 17.1277704,6 Z" id="Rectangle" fill="#337A67"></path>
        <g id="Rectangle">
            <use fill="black" fill-opacity="1" filter="url(#filter-4)" xlink:href="#path-3"></use>
            <use fill="url(#linearGradient-2)" fill-rule="evenodd" xlink:href="#path-3"></use>
        </g>
        <g id="01-通用/01-图标/40px/z资源_e-paper备份-6" transform="translate(12.000000, 12.000000)">
            <g id="01-通用/01-图标/40px/grid" opacity="0.885091146" stroke-width="1">
                <g id="Group" opacity="0">
                    <rect id="矩形" x="0" y="0" width="40" height="40"></rect>
                    <rect id="Rectangle" stroke="#E3E3E3" x="7.5" y="7.5" width="25" height="25"></rect>
                    <circle id="Oval" stroke="#E3E3E3" cx="20" cy="20" r="14.5"></circle>
                    <rect id="Rectangle" stroke="#E3E3E3" x="4.5" y="9.5" width="31" height="21"></rect>
                    <rect id="Rectangle" stroke="#E3E3E3" transform="translate(20.000000, 20.000000) rotate(-270.000000) translate(-20.000000, -20.000000) " x="4.5" y="9.5" width="31" height="21"></rect>
                </g>
            </g>
            <path d="M19.0005348,8.99621134 L18.9999918,14.07089 C15.6077016,14.5561232 13,17.4735309 13,21 C13,24.8659932 16.1340068,28 20,28 C23.5420913,28 26.4697131,25.3691429 26.9354154,21.9548786 L31.9589703,21.9546469 C31.451074,28.114432 26.2908458,32.9551817 20,32.9551817 C13.372583,32.9551817 8,27.5825987 8,20.9551817 C8,14.6643358 12.8407497,9.50410766 19.0005348,8.99621134 Z M21,8 C27.5327396,8 32.8462415,13.2201771 32.9967227,19.7167481 L33,19.9990769 L26.9289666,19.9989899 C26.4901139,16.9341129 24.0658871,14.5098861 21.0010101,14.0710334 L21,8 Z" id="形状结合" fill="#FFFFFF"></path>
        </g>
    </g>
</svg>