<?xml version="1.0" encoding="UTF-8"?>
<svg width="28px" height="29px" viewBox="0 0 28 29" version="1.1" xmlns="http://www.w3.org/2000/svg" xmlns:xlink="http://www.w3.org/1999/xlink">
    <title>01 通用/01 图标/40px_导航栏/history</title>
    <g id="-pages" stroke="none" stroke-width="1" fill="none" fill-rule="evenodd">
        <g id="图标" transform="translate(-710.000000, -985.000000)" fill="#000000">
            <g id="zz-其他/组件库/组件/01-图标" transform="translate(224.000000, 0.000000)">
                <g id="Group-5" transform="translate(0.000000, 908.000000)">
                    <g id="01-通用/01-图标/40px_导航栏/history" transform="translate(480.000000, 72.000000)">
                        <path d="M13.4999858,4.99622716 C14.0522517,4.99164528 14.5033325,5.43596947 14.5074998,5.9882385 L14.519,7.659 L14.5748191,7.63454706 C16.1423173,6.94598028 17.8407163,6.55792296 19.5943654,6.5059993 L20,6.5 C27.4558441,6.5 33.5,12.5441559 33.5,20 C33.5,27.4558441 27.4558441,33.5 20,33.5 C12.5441559,33.5 6.5,27.4558441 6.5,20 C6.5,18.1265563 6.8829387,16.306873 7.61015275,14.6309757 C7.6572686,14.5223951 7.73250894,14.3652727 7.83587375,14.1596084 C8.08390247,13.6661678 8.68497241,13.4671926 9.17842524,13.7151972 C9.19673985,13.7244019 9.21476711,13.7341676 9.23248147,13.7444804 L10.1004952,14.2498134 C10.5522995,14.5128254 10.7252627,15.0794566 10.4973712,15.5499541 C10.3752232,15.8021372 10.2805387,16.0144149 10.2133177,16.1867874 C9.74513607,17.387329 9.5,18.6748854 9.5,20 C9.5,25.7989899 14.2010101,30.5 20,30.5 C25.7989899,30.5 30.5,25.7989899 30.5,20 C30.5,14.2010101 25.7989899,9.5 20,9.5 C17.9143061,9.5 15.9235098,10.108035 14.2253807,11.2288939 L13.9104595,11.4450414 L12.3443099,12.5621387 C12.1194963,12.7224929 11.8072561,12.6702382 11.646902,12.4454246 C11.5872012,12.3617252 11.5547529,12.261657 11.5539772,12.1588505 L11.5075884,6.01129004 C11.503421,5.45902101 11.9477452,5.0079402 12.5000142,5.00377284 L13.4999858,4.99622716 Z M20,12 C24.418278,12 28,15.581722 28,20 C28,24.418278 24.418278,28 20,28 C15.581722,28 12,24.418278 12,20 C12,15.581722 15.581722,12 20,12 Z M20,14 C19.4871642,14 19.0644928,14.3860402 19.0067277,14.8833789 L19,15 L19,20 L19.0086724,20.131444 C19.0316559,20.3048049 19.0997477,20.4691931 19.2060806,20.6080295 L19.2928932,20.7071068 L22.2928932,23.7071068 L22.3871006,23.7902954 C22.7467008,24.0699015 23.2532992,24.0699015 23.6128994,23.7902954 L23.7071068,23.7071068 L23.7902954,23.6128994 C24.0699015,23.2532992 24.0699015,22.7467008 23.7902954,22.3871006 L23.7071068,22.2928932 L21.2928182,19.8778803 C21.1365761,19.7216051 21.0373915,19.5189469 21.0086701,19.3022747 L21,19.1708486 L21,15 L20.9932723,14.8833789 C20.9355072,14.3860402 20.5128358,14 20,14 Z" id="Combined-Shape" fill="#000000"></path>
                    </g>
                </g>
            </g>
        </g>
    </g>
</svg>