<?xml version="1.0" encoding="UTF-8"?>
<svg width="20px" height="20px" viewBox="0 0 20 20" version="1.1" xmlns="http://www.w3.org/2000/svg" xmlns:xlink="http://www.w3.org/1999/xlink">
    <title>01 通用/01 图标/16px/lost_connect</title>
    <g id="01-通用/01-图标/16px/lost_connect" stroke="none" stroke-width="1" fill="none" fill-rule="evenodd">
        <circle id="椭圆形" fill="#FF4A4A" opacity="0.0474795387" cx="10" cy="10" r="10"></circle>
        <path d="M10.5,13.4225397 C11.232233,13.4225397 11.8951457,13.7110317 12.375,14.1774603 L10.5,16 L8.62585708,14.1766276 C9.10564355,13.7106884 9.76820281,13.4225397 10.5,13.4225397 Z M5.1875,5.60751322 L5.8125,5 L15.1875,14.1126984 L14.5625,14.7202116 L11.597477,11.8377292 C11.2465659,11.750569 10.8788499,11.7042328 10.5,11.7042328 C9.28005153,11.7042328 8.17555384,12.1847063 7.37586503,12.9615933 L6.75086678,12.3540783 C7.71050691,11.4217162 9.03597474,10.8450793 10.5,10.8450793 L10.577533,10.8465392 L8.97357304,9.28733057 C7.63361292,9.57391825 6.43616605,10.229921 5.5,11.1398942 L4.87587147,10.531534 C5.80257897,9.63103203 6.95676814,8.95170249 8.24745571,8.58198307 L6.86081591,7.23359268 C5.63945773,7.71309888 4.54122265,8.42676673 3.625,9.31735453 L3,8.7098413 C3.94791181,7.78845097 5.03060413,7.07791727 6.18638897,6.5782402 L5.1875,5.60751322 Z M10.4255813,8.26795036 L10.5,8.26761902 C12.6962559,8.26761902 14.6846344,9.13274602 16.1241285,10.531534 L15.5,11.1398942 C14.4112077,10.081565 12.9689948,9.36676814 11.3602032,9.17711782 L10.4255813,8.26795036 Z M17.5773984,8.32063777 L17.7907724,8.51188433 L18,8.7098413 L17.375,9.31735453 C15.6155341,7.60711641 13.1848545,6.54931214 10.5,6.54931214 C9.92131977,6.54931214 9.35444733,6.59845281 8.80355838,6.69267528 L8.05706046,5.96587606 C11.3382109,5.21431308 14.9161307,5.99923365 17.5773984,8.32063777 Z" id="形状" fill="#FF7171"></path>
    </g>
</svg>