<?xml version="1.0" encoding="UTF-8"?>
<svg width="40px" height="40px" viewBox="0 0 40 40" version="1.1" xmlns="http://www.w3.org/2000/svg" xmlns:xlink="http://www.w3.org/1999/xlink">
    <title>01 通用/01 图标/40px_导航栏/menu</title>
    <g id="01-通用/01-图标/40px_导航栏/menu" stroke="none" stroke-width="1" fill="none" fill-rule="evenodd">
        <path d="M9,26 C10.6568542,26 12,27.3431458 12,29 C12,30.6568542 10.6568542,32 9,32 C7.34314575,32 6,30.6568542 6,29 C6,27.3431458 7.34314575,26 9,26 Z M9,17 C10.6568542,17 12,18.3431458 12,20 C12,21.6568542 10.6568542,23 9,23 C7.34314575,23 6,21.6568542 6,20 C6,18.3431458 7.34314575,17 9,17 Z M33,27 C33.5522847,27 34,27.4477153 34,28 L34,30 C34,30.5522847 33.5522847,31 33,31 L16,31 C15.4477153,31 15,30.5522847 15,30 L15,28 C15,27.4477153 15.4477153,27 16,27 L33,27 Z M33,18 C33.5522847,18 34,18.4477153 34,19 L34,21 C34,21.5522847 33.5522847,22 33,22 L16,22 C15.4477153,22 15,21.5522847 15,21 L15,19 C15,18.4477153 15.4477153,18 16,18 L33,18 Z M9,8 C10.6568542,8 12,9.34314575 12,11 C12,12.6568542 10.6568542,14 9,14 C7.34314575,14 6,12.6568542 6,11 C6,9.34314575 7.34314575,8 9,8 Z M33,9 C33.5522847,9 34,9.44771525 34,10 L34,12 C34,12.5522847 33.5522847,13 33,13 L16,13 C15.4477153,13 15,12.5522847 15,12 L15,10 C15,9.44771525 15.4477153,9 16,9 L33,9 Z" id="形状" fill="#000000"></path>
    </g>
</svg>