<?xml version="1.0" encoding="UTF-8"?>
<svg width="40px" height="40px" viewBox="0 0 40 40" version="1.1" xmlns="http://www.w3.org/2000/svg" xmlns:xlink="http://www.w3.org/1999/xlink">
    <title>01 通用/01 图标/40px/menu_setting</title>
    <g id="01-通用/01-图标/40px/menu_setting" stroke="none" stroke-width="1" fill="none" fill-rule="evenodd">
        <path d="M22.2766347,4.01245569 L22.5,4.1339746 L32.4903811,9.90192379 C33.9701253,10.7562545 34.9063891,12.3036213 34.9850061,13.9998721 L34.9903811,14.2320508 L34.9903811,25.7679492 C34.9903811,27.4766107 34.118454,29.0611222 32.6887662,29.977332 L32.4903811,30.0980762 L22.5,35.8660254 C21.0266615,36.7166578 19.2277141,36.7571641 17.7233653,35.9875443 L17.5,35.8660254 L7.50961894,30.0980762 C6.02987466,29.2437455 5.09361093,27.6963787 5.01499394,26.0001279 L5.00961894,25.7679492 L5.00961894,14.2320508 C5.00961894,12.5233893 5.88154596,10.9388778 7.31123382,10.022668 L7.50961894,9.90192379 L17.5,4.1339746 C18.9733385,3.28334224 20.7722859,3.24283594 22.2766347,4.01245569 Z M19.1648005,6.6468233 L19,6.73205081 L9.06934724,12.464588 L8.92991056,12.5485116 C8.40494264,12.8849352 8.06911531,13.4462171 8.0167897,14.062683 L8.00961894,14.2320508 L8.00881536,25.698517 L8.01177699,25.8612345 C8.04064441,26.4840818 8.35881519,27.0555578 8.86652752,27.409106 L9.00961894,27.5 L18.9336757,33.2307695 L19.0897265,33.3167659 C19.6421939,33.5994064 20.2929742,33.6080587 20.8504257,33.3460995 L21,33.2679492 L30.9306528,27.535412 L31.0700894,27.4514884 C31.5950574,27.1150648 31.9308847,26.5537829 31.9832103,25.937317 L31.9903811,25.7679492 L31.9911846,14.301483 L31.988223,14.1387655 C31.9593556,13.5159182 31.6411848,12.9444422 31.1334725,12.590894 L30.9903811,12.5 L21.0663243,6.76923054 L20.897,6.677 L20.7573071,6.61294088 C20.2454243,6.40337378 19.6680198,6.41548846 19.1648005,6.6468233 Z M20,13 C23.8659932,13 27,16.1340068 27,20 C27,23.8659932 23.8659932,27 20,27 C16.1340068,27 13,23.8659932 13,20 C13,16.1340068 16.1340068,13 20,13 Z M20,16 C17.790861,16 16,17.790861 16,20 C16,22.209139 17.790861,24 20,24 C22.209139,24 24,22.209139 24,20 C24,17.790861 22.209139,16 20,16 Z" id="形状结合" fill="#686E72" transform="translate(20.000000, 20.000000) rotate(-270.000000) translate(-20.000000, -20.000000) "></path>
    </g>
</svg>