<?xml version="1.0" encoding="UTF-8"?>
<svg width="40px" height="40px" viewBox="0 0 40 40" version="1.1" xmlns="http://www.w3.org/2000/svg" xmlns:xlink="http://www.w3.org/1999/xlink">
    <title>01 通用/01 图标/40px/menu_loading</title>
    <g id="01-通用/01-图标/40px/menu_loading" stroke="none" stroke-width="1" fill="none" fill-rule="evenodd">
        <path d="M26.9,5 C28.6120827,5 30,6.38791728 30,8.1 L30,8.1 L30,12.0334084 C30,14.1218438 28.914048,16.0600316 27.1329232,17.1505162 L27.1329232,17.1505162 L22.055,20.258 L27.1329232,23.3670958 C28.842803,24.413961 29.9120116,26.2420696 29.9948124,28.2343572 L30,28.4842036 L30,32.417612 C30,34.1296947 28.6120827,35.517612 26.9,35.517612 L26.9,35.517612 L13.1,35.517612 C11.3879173,35.517612 10,34.1296947 10,32.417612 L10,32.417612 L10,28.4842036 C10,26.3957683 11.085952,24.4575804 12.8670768,23.3670958 L12.8670768,23.3670958 L17.944,20.259 L12.8670768,17.1505162 C11.157197,16.103651 10.0879884,14.2755425 10.0051876,12.2832548 L10,12.0334084 L10,8.1 C10,6.38791728 11.3879173,5 13.1,5 L13.1,5 Z M20,22.517612 L14.4335384,25.9256497 C13.542976,26.470892 13,27.4399859 13,28.4842036 L13,28.4842036 L13,32.417612 C13,32.4728405 13.0447715,32.517612 13.1,32.517612 L13.1,32.517612 L26.9,32.517612 C26.9552285,32.517612 27,32.4728405 27,32.417612 L27,32.417612 L27,28.4842036 C27,27.4399859 26.457024,26.470892 25.5664616,25.9256497 L25.5664616,25.9256497 L20,22.517612 Z M26.9,8 L13.1,8 C13.0447715,8 13,8.04477153 13,8.1 L13,8.1 L13,12.0334084 C13,13.0776261 13.542976,14.04672 14.4335384,14.5919623 L14.4335384,14.5919623 L20,18 L25.5664616,14.5919623 C26.457024,14.04672 27,13.0776261 27,12.0334084 L27,12.0334084 L27,8.1 C27,8.04477153 26.9552285,8 26.9,8 L26.9,8 Z" id="形状结合" fill="#686E72"></path>
    </g>
</svg>