<?xml version="1.0" encoding="UTF-8"?>
<svg width="32px" height="32px" viewBox="0 0 32 32" version="1.1" xmlns="http://www.w3.org/2000/svg" xmlns:xlink="http://www.w3.org/1999/xlink">
    <title>01 通用/01 图标/32px/minium</title>
    <g id="01-通用/01-图标/32px/minium" stroke="none" stroke-width="1" fill="none" fill-rule="evenodd">
        <path d="M9,24 L23,24 C23.5522847,24 24,24.4477153 24,25 C24,25.5522847 23.5522847,26 23,26 L9,26 C8.44771525,26 8,25.5522847 8,25 C8,24.4477153 8.44771525,24 9,24 Z" id="形状结合" fill="#909093"></path>
        <path d="M20,9 C21.0543618,9 21.9181651,9.81587779 21.9945143,10.8507377 L22,11 L22,21 C22,21.5522847 21.5522847,22 21,22 C20.4871642,22 20.0644928,21.6139598 20.0067277,21.1166211 L20,21 L20,12.414 L10.7071068,21.7071068 C10.3165825,22.0976311 9.68341751,22.0976311 9.29289322,21.7071068 C8.93240926,21.3466228 8.90467972,20.7793918 9.20970461,20.3871006 L9.29289322,20.2928932 L18.584,11 L10,11 C9.44771525,11 9,10.5522847 9,10 C9,9.48716416 9.38604019,9.06449284 9.88337887,9.00672773 L10,9 L20,9 Z" id="形状结合" fill="#909093" transform="translate(15.500000, 15.500000) rotate(-180.000000) translate(-15.500000, -15.500000) "></path>
    </g>
</svg>