<?xml version="1.0" encoding="UTF-8"?>
<svg width="32px" height="32px" viewBox="0 0 32 32" version="1.1" xmlns="http://www.w3.org/2000/svg" xmlns:xlink="http://www.w3.org/1999/xlink">
    <title>01 通用/01 图标/32px/mini_videos</title>
    <defs>
        <linearGradient x1="50%" y1="0%" x2="50%" y2="100%" id="linearGradient-1">
            <stop stop-color="#B2C5FF" offset="0%"></stop>
            <stop stop-color="#7F91EA" offset="99.2055532%"></stop>
        </linearGradient>
        <path d="M7,6 L25,6 C26.6568542,6 28,7.34314575 28,9 L28,23 C28,24.6568542 26.6568542,26 25,26 L7,26 C5.34314575,26 4,24.6568542 4,23 L4,9 C4,7.34314575 5.34314575,6 7,6 Z" id="path-2"></path>
        <filter x="-18.8%" y="-12.5%" width="137.5%" height="150.0%" filterUnits="objectBoundingBox" id="filter-4">
            <feMorphology radius="1" operator="erode" in="SourceAlpha" result="shadowSpreadOuter1"></feMorphology>
            <feOffset dx="0" dy="3" in="shadowSpreadOuter1" result="shadowOffsetOuter1"></feOffset>
            <feGaussianBlur stdDeviation="2" in="shadowOffsetOuter1" result="shadowBlurOuter1"></feGaussianBlur>
            <feColorMatrix values="0 0 0 0 0.386966463   0 0 0 0 0.525957349   0 0 0 0 1  0 0 0 0.419525787 0" type="matrix" in="shadowBlurOuter1"></feColorMatrix>
        </filter>
        <filter x="-10.4%" y="-2.5%" width="120.8%" height="130.0%" filterUnits="objectBoundingBox" id="filter-5">
            <feOffset dx="0" dy="-1" in="SourceAlpha" result="shadowOffsetInner1"></feOffset>
            <feComposite in="shadowOffsetInner1" in2="SourceAlpha" operator="arithmetic" k2="-1" k3="1" result="shadowInnerInner1"></feComposite>
            <feColorMatrix values="0 0 0 0 0.446319459   0 0 0 0 0.444377775   0 0 0 0 0.807036911  0 0 0 0.5 0" type="matrix" in="shadowInnerInner1"></feColorMatrix>
        </filter>
    </defs>
    <g id="01-通用/01-图标/32px/mini_videos" stroke="none" stroke-width="1" fill="none" fill-rule="evenodd">
        <mask id="mask-3" fill="white">
            <use xlink:href="#path-2"></use>
        </mask>
        <g id="形状结合">
            <use fill="black" fill-opacity="1" filter="url(#filter-4)" xlink:href="#path-2"></use>
            <use fill="url(#linearGradient-1)" fill-rule="evenodd" xlink:href="#path-2"></use>
            <use fill="black" fill-opacity="1" filter="url(#filter-5)" xlink:href="#path-2"></use>
        </g>
        <path d="M2,13 L5.36,6 L9,6 L6.119,12 L9.48,12 L12.36,6 L16,6 L13.119,12 L16.548,12 L19.84,6 L24,6 L20.708,12 L24.48,12 L27.36,6 L31,6 L27.999,12.25 L28,13 L2,13 Z" id="形状结合" fill="#7B8DE4" opacity="0.600000024" mask="url(#mask-3)"></path>
        <path d="M18.9222351,18.1165412 C18.8535477,17.9539976 18.7377265,17.819554 18.5919995,17.7332081 L14.0663962,15.0911586 C13.703137,14.8788511 13.260071,15.0498766 13.0770654,15.4744917 C13.0258588,15.5953329 12.9995763,15.7265857 13,15.8592991 L13,21.1404493 C13,21.6151926 13.330246,22 13.7375366,22 C13.8530308,21.9997134 13.9665992,21.9682773 14.0677722,21.9085898 L18.5919995,19.2694891 C18.9566346,19.0586559 19.1038647,18.5411563 18.9222351,18.1165412 Z" id="路径" fill="#FFFFFF" mask="url(#mask-3)"></path>
    </g>
</svg>