<?xml version="1.0" encoding="UTF-8"?>
<svg width="32px" height="32px" viewBox="0 0 32 32" version="1.1" xmlns="http://www.w3.org/2000/svg" xmlns:xlink="http://www.w3.org/1999/xlink">
    <title>01 通用/01 图标/32px/pin</title>
    <g id="01-通用/01-图标/32px/pin" stroke="none" stroke-width="1" fill="none" fill-rule="evenodd">
        <path d="M21,9 C22.0543618,9 22.9181651,9.81587779 22.9945143,10.8507377 L23,11 L23,20 C23,20.5522847 22.5522847,21 22,21 C21.4871642,21 21.0644928,20.6139598 21.0067277,20.1166211 L21,20 L20.999,12.415 L11.7071068,21.7071068 C11.3165825,22.0976311 10.6834175,22.0976311 10.2928932,21.7071068 C9.93240926,21.3466228 9.90467972,20.7793918 10.2097046,20.3871006 L10.2928932,20.2928932 L19.584,11 L12,11 C11.4477153,11 11,10.5522847 11,10 C11,9.48716416 11.3860402,9.06449284 11.8833789,9.00672773 L12,9 L21,9 Z" id="形状结合" fill="#909093"></path>
    </g>
</svg>