<?xml version="1.0" encoding="UTF-8"?>
<svg width="32px" height="32px" viewBox="0 0 32 32" version="1.1" xmlns="http://www.w3.org/2000/svg" xmlns:xlink="http://www.w3.org/1999/xlink">
    <title>01 通用/01 图标/32px/play</title>
    <g id="01-通用/01-图标/32px/play" stroke="none" stroke-width="1" fill="none" fill-rule="evenodd">
        <path d="M8.56395389,6.14959942 C8.19726049,6.65978153 8,7.27221636 8,7.90050756 L8,24.197939 C8,25.8547933 9.34314575,27.197939 11,27.197939 C11.6068807,27.197939 12.1994914,27.0138802 12.6995865,26.6700648 L24.2888711,18.7024316 C25.6541884,17.7637759 26.0000661,15.8960368 25.0614104,14.5307194 C24.8652951,14.2454608 24.6212881,13.996297 24.3401927,13.7942597 L12.7509081,5.46446145 C11.4572628,4.53465388 9.67436813,4.78249664 8.6794767,5.99898473 L8.56395389,6.14959942 Z M11.583636,7.08849219 L23.1729206,15.4182905 C23.2666191,15.4856363 23.3479548,15.5686908 23.4133265,15.663777 C23.7262117,16.1188828 23.6109192,16.7414626 23.1558134,17.0543478 L11.5665288,25.0219809 C11.3998305,25.1365861 11.2022936,25.197939 11,25.197939 C10.4477153,25.197939 10,24.7502238 10,24.197939 L10,7.90050756 C10,7.69107716 10.0657535,7.48693222 10.1879846,7.31687151 C10.5103179,6.86840781 11.1351723,6.7661589 11.583636,7.08849219 Z" id="路径-15" fill="#909093"></path>
    </g>
</svg>