<?xml version="1.0" encoding="UTF-8"?>
<svg width="32px" height="32px" viewBox="0 0 32 32" version="1.1" xmlns="http://www.w3.org/2000/svg" xmlns:xlink="http://www.w3.org/1999/xlink">
    <title>01 通用/01 图标/32px/plus</title>
    <g id="01-通用/01-图标/32px/plus" stroke="none" stroke-width="1" fill="none" fill-rule="evenodd">
        <path d="M16,7 C16.5522847,7 17,7.44771525 17,8 L16.999,15 L24,15 C24.5522847,15 25,15.4477153 25,16 C25,16.5522847 24.5522847,17 24,17 L16.999,17 L17,24 C17,24.5522847 16.5522847,25 16,25 C15.4477153,25 15,24.5522847 15,24 L14.999,16.999 L8,17 C7.44771525,17 7,16.5522847 7,16 C7,15.4477153 7.44771525,15 8,15 L14.999,14.999 L15,8 C15,7.44771525 15.4477153,7 16,7 Z" id="形状结合" fill="#909093"></path>
    </g>
</svg>