<?xml version="1.0" encoding="UTF-8"?>
<svg width="32px" height="32px" viewBox="0 0 32 32" version="1.1" xmlns="http://www.w3.org/2000/svg" xmlns:xlink="http://www.w3.org/1999/xlink">
    <title>01 通用/01 图标/32px/setting_abandend</title>
    <g id="01-通用/01-图标/32px/setting_abandend" stroke="none" stroke-width="1" fill="none" fill-rule="evenodd">
        <path d="M21.288308,3.15968486 L24.4923876,5.04202168 C24.9484257,5.30989554 25.165151,5.85260003 25.0191143,6.36093104 C24.4687271,8.27674338 24.4934446,9.76246711 25.0932667,10.8181022 C25.669589,11.8323795 26.8494024,12.5779394 28.6327069,13.0547816 L28.9536718,13.136143 C29.4205317,13.2482386 29.7698848,13.6366672 29.8320386,14.1127559 L29.9055217,14.7227028 C29.9685072,15.2993174 30,15.7759352 30,16.1525562 C30,16.5290947 29.9686344,17.005643 29.9059032,17.5822013 L29.8327355,18.1920985 C29.770788,18.6684952 29.4212769,19.0572481 28.9541315,19.1693487 C26.9904075,19.6405822 25.7034526,20.413136 25.0932667,21.4870102 C24.4934313,22.5426686 24.4684693,24.028387 25.0183807,25.9441653 C25.1642286,26.4523592 24.9475662,26.9948384 24.4917412,27.262712 L21.2883366,29.1452498 C20.8083544,29.4273008 20.1956192,29.328114 19.8291442,28.9090295 C18.6121418,27.5173193 17.3357604,26.8214642 16,26.8214642 C14.6642051,26.8214642 13.3877922,27.5173553 12.1707614,28.9091374 C11.8043164,29.3281768 11.1916587,29.4273991 10.711692,29.1454276 L7.50761236,27.2630908 C7.05157137,26.995221 6.83484486,26.4525169 6.9808795,25.9441848 C7.53126264,24.0283557 7.50654723,22.5426309 6.90673326,21.4870102 C6.33041097,20.4727329 5.15059758,19.7271731 3.36729311,19.2503308 L3.04632863,19.1689678 C2.57946895,19.0568722 2.23011613,18.6684435 2.16796291,18.1923549 C2.05598764,17.3346333 2,16.6547004 2,16.1525562 C2,15.7760031 2.03136799,15.2994366 2.09410396,14.7228568 L2.16726536,14.1129351 C2.22921694,13.6365256 2.57874435,13.2477661 3.04590537,13.1356739 C5.00960685,12.6644967 6.29654948,11.8919728 6.90673326,10.8181022 C7.50657788,9.76242763 7.53152824,8.27669118 6.98158433,6.36089288 C6.83574012,5.8526916 7.05240612,5.31020434 7.50824008,5.04233407 L10.7116545,3.15985149 C11.1916345,2.877793 11.80437,2.97698478 12.1708455,3.39607129 C13.387851,4.78778924 14.6642359,5.48364821 16,5.48364821 C17.3357949,5.48364821 18.6122078,4.78775716 19.8292386,3.39597507 C20.1956836,2.97693567 20.8083413,2.8777134 21.288308,3.15968486 Z M20.856,5.225 L20.6807492,5.40035365 C19.2740053,6.75461592 17.7043878,7.48364821 16,7.48364821 C14.2956495,7.48364821 12.7260615,6.75464682 11.3193408,5.40044042 L11.143,5.225 L9.07,6.443 L9.07986048,6.48027243 C9.54813929,8.4632811 9.4776506,10.1698144 8.76956107,11.5747914 L8.64562549,11.8061578 C7.80172865,13.2913431 6.27617589,14.2960643 4.16377732,14.9084423 L4.083,14.93 L4.06370125,15.1176421 L4.02816361,15.5175812 C4.01400777,15.704033 4.00524366,15.8700401 4.00174634,16.0148457 L4,16.1525562 C4,16.4203081 4.02196149,16.7762666 4.06674209,17.2146889 L4.084,17.374 L4.21733199,17.4118243 C6.18935058,17.9927902 7.64842811,18.9221649 8.50793991,20.2703646 L8.64562549,20.4989547 C9.42251677,21.866216 9.5600005,23.5345654 9.15607772,25.4791459 L9.07,25.861 L11.143,27.079 L11.3192508,26.9047588 C12.6519555,25.6217735 14.1308405,24.8999364 15.7320102,24.8275075 L16,24.8214642 C17.704346,24.8214642 19.2739304,25.5504619 20.6806482,26.9046615 L20.856,27.079 L22.929,25.861 L22.9201084,25.8247683 C22.4518604,23.8417822 22.5223612,22.1352725 23.2304408,20.7303174 L23.3543745,20.4989547 C24.1538499,19.0919471 25.5651149,18.1161318 27.5075648,17.496581 L27.916,17.374 L27.9363036,17.187431 L27.9718385,16.7875069 C27.9859933,16.6010622 27.9947567,16.4350615 27.9982538,16.2902614 L28,16.1525562 C28,15.8847925 27.9780388,15.5288308 27.9332587,15.0904126 L27.915,14.93 L27.782668,14.8932882 C25.8106494,14.3123223 24.3515719,13.3829476 23.4920601,12.0347478 L23.3543745,11.8061578 C22.5774764,10.4388844 22.4399896,8.77052976 22.843916,6.82595675 L22.929,6.443 L20.856,5.225 Z M16,11 C18.7614237,11 21,13.2385763 21,16 C21,18.7614237 18.7614237,21 16,21 C13.2385763,21 11,18.7614237 11,16 C11,13.2385763 13.2385763,11 16,11 Z M16,13 C14.3431458,13 13,14.3431458 13,16 C13,17.6568542 14.3431458,19 16,19 C17.6568542,19 19,17.6568542 19,16 C19,14.3431458 17.6568542,13 16,13 Z" id="形状" fill="#909093"></path>
    </g>
</svg>