<?xml version="1.0" encoding="UTF-8"?>
<svg width="32px" height="32px" viewBox="0 0 32 32" version="1.1" xmlns="http://www.w3.org/2000/svg" xmlns:xlink="http://www.w3.org/1999/xlink">
    <title>01 通用/01 图标/32px/setting1</title>
    <g id="01-通用/01-图标/32px/setting1" stroke="none" stroke-width="1" fill="none" fill-rule="evenodd">
        <path d="M24,4 C24.5128358,4 24.9355072,4.38604019 24.9932723,4.88337887 L25,5 L25.0007613,14.1262135 C26.7256022,14.570521 28,16.1364348 28,18 C28,19.8635652 26.7256022,21.429479 25.0007613,21.8737865 L25,27 C25,27.5522847 24.5522847,28 24,28 C23.4871642,28 23.0644928,27.6139598 23.0067277,27.1166211 L23,27 L23.0002435,21.8740452 C21.2748927,21.4300871 20,19.8639271 20,18 C20,16.1360729 21.2748927,14.5699129 23.0002435,14.1259548 L23,5 C23,4.44771525 23.4477153,4 24,4 Z M8,4 C8.51283584,4 8.93550716,4.38604019 8.99327227,4.88337887 L9,5 L9.00076134,17.1262135 C10.7256022,17.570521 12,19.1364348 12,21 C12,22.8635652 10.7256022,24.429479 9.00076134,24.8737865 L9,27 C9,27.5522847 8.55228475,28 8,28 C7.48716416,28 7.06449284,27.6139598 7.00672773,27.1166211 L7,27 L7.00024347,24.8740452 C5.27489272,24.4300871 4,22.8639271 4,21 C4,19.1360729 5.27489272,17.5699129 7.00024347,17.1259548 L7,5 C7,4.44771525 7.44771525,4 8,4 Z M16,4 C16.5128358,4 16.9355072,4.38604019 16.9932723,4.88337887 L17,5 L17.0007613,7.12621352 C18.7256022,7.57052105 20,9.13643475 20,11 C20,12.8635652 18.7256022,14.429479 17.0007613,14.8737865 L17,27 C17,27.5522847 16.5522847,28 16,28 C15.4871642,28 15.0644928,27.6139598 15.0067277,27.1166211 L15,27 L15.0002435,14.8740452 C13.2748927,14.4300871 12,12.8639271 12,11 C12,9.13607289 13.2748927,7.56991294 15.0002435,7.12595483 L15,5 C15,4.44771525 15.4477153,4 16,4 Z M8,19 C6.8954305,19 6,19.8954305 6,21 C6,22.1045695 6.8954305,23 8,23 C9.1045695,23 10,22.1045695 10,21 C10,19.8954305 9.1045695,19 8,19 Z M24,16 C22.8954305,16 22,16.8954305 22,18 C22,19.1045695 22.8954305,20 24,20 C25.1045695,20 26,19.1045695 26,18 C26,16.8954305 25.1045695,16 24,16 Z M16,9 C14.8954305,9 14,9.8954305 14,11 C14,12.1045695 14.8954305,13 16,13 C17.1045695,13 18,12.1045695 18,11 C18,9.8954305 17.1045695,9 16,9 Z" id="形状" fill="#909093"></path>
    </g>
</svg>