<?xml version="1.0" encoding="UTF-8"?>
<svg width="32px" height="32px" viewBox="0 0 32 32" version="1.1" xmlns="http://www.w3.org/2000/svg" xmlns:xlink="http://www.w3.org/1999/xlink">
    <title>01 通用/01 图标/32px/setting3</title>
    <g id="01-通用/01-图标/32px/setting3" stroke="none" stroke-width="1" fill="none" fill-rule="evenodd">
        <path d="M14.5857864,21.5857864 C15.366835,20.8047379 16.633165,20.8047379 17.4142136,21.5857864 C18.1952621,22.366835 18.1952621,23.633165 17.4142136,24.4142136 C16.633165,25.1952621 15.366835,25.1952621 14.5857864,24.4142136 C13.8047379,23.633165 13.8047379,22.366835 14.5857864,21.5857864 Z M20.9497475,18.0502525 C21.3402718,18.4407768 21.3402718,19.0739418 20.9497475,19.4644661 C20.5592232,19.8549904 19.9260582,19.8549904 19.5355339,19.4644661 C17.5829124,17.5118446 14.4170876,17.5118446 12.4644661,19.4644661 C12.0739418,19.8549904 11.4407768,19.8549904 11.0502525,19.4644661 C10.6597282,19.0739418 10.6597282,18.4407768 11.0502525,18.0502525 C13.7839226,15.3165825 18.2160774,15.3165825 20.9497475,18.0502525 Z M24.4852814,14.5147186 C24.8758057,14.9052429 24.8758057,15.5384079 24.4852814,15.9289322 C24.0947571,16.3194565 23.4615921,16.3194565 23.0710678,15.9289322 C19.1658249,12.0236893 12.8341751,12.0236893 8.92893219,15.9289322 C8.5384079,16.3194565 7.90524292,16.3194565 7.51471863,15.9289322 C7.12419433,15.5384079 7.12419433,14.9052429 7.51471863,14.5147186 C12.2010101,9.82842712 19.7989899,9.82842712 24.4852814,14.5147186 Z M28.0208153,10.9791847 C28.4113396,11.369709 28.4113396,12.002874 28.0208153,12.3933983 C27.630291,12.7839226 26.997126,12.7839226 26.6066017,12.3933983 C20.7487373,6.53553391 11.2512627,6.53553391 5.39339828,12.3933983 C5.00287399,12.7839226 4.36970901,12.7839226 3.97918472,12.3933983 C3.58866043,12.002874 3.58866043,11.369709 3.97918472,10.9791847 C10.6180977,4.34027176 21.3819023,4.34027176 28.0208153,10.9791847 Z" id="形状结合" fill="#909093"></path>
    </g>
</svg>