<?xml version="1.0" encoding="UTF-8"?>
<svg width="10px" height="6px" viewBox="0 0 10 6" version="1.1" xmlns="http://www.w3.org/2000/svg" xmlns:xlink="http://www.w3.org/1999/xlink">
    <title>01 通用/01 图标/32px/tiny_arrow_down</title>
    <g id="-pages" stroke="none" stroke-width="1" fill="none" fill-rule="evenodd">
        <g id="图标" transform="translate(-171.000000, -170.000000)" fill="#D1D1D1">
            <g id="zz-其他/组件库/导航备份">
                <g id="Group" transform="translate(0.000000, 100.000000)">
                    <g id="zz-其他/组件库/导航/列表单元/二级/sub_selected" transform="translate(48.000000, 60.000000)">
                        <g id="01-通用/01-图标/32px/tiny_arrow_down" transform="translate(128.000000, 13.000000) rotate(-180.000000) translate(-128.000000, -13.000000) translate(115.000000, 0.000000)">
                            <path d="M8.76922574,10.3942257 C9.06211896,10.1013325 9.52299419,10.0788023 9.8417308,10.326635 L9.91827426,10.3942257 L13,13.4753125 L16.0817257,10.3942257 C16.374619,10.1013325 16.8354942,10.0788023 17.1542308,10.326635 L17.2307743,10.3942257 C17.5236675,10.687119 17.5461977,11.1479942 17.298365,11.4667308 L17.2307743,11.5432743 L13.5745243,15.1995243 C13.281631,15.4924175 12.8207558,15.5149477 12.5020192,15.267115 L12.4254757,15.1995243 L8.76922574,11.5432743 C8.45192475,11.2259733 8.45192475,10.7115267 8.76922574,10.3942257 Z" id="路径-21"></path>
                        </g>
                    </g>
                </g>
            </g>
        </g>
    </g>
</svg>