<?xml version="1.0" encoding="UTF-8"?>
<svg width="48px" height="48px" viewBox="0 0 48 48" version="1.1" xmlns="http://www.w3.org/2000/svg" xmlns:xlink="http://www.w3.org/1999/xlink">
    <title>01 通用/01 图标/48px/tool4</title>
    <defs>
        <linearGradient x1="50%" y1="0%" x2="50%" y2="100%" id="linearGradient-1">
            <stop stop-color="#78D2FC" offset="0%"></stop>
            <stop stop-color="#3BA4FA" offset="100%"></stop>
        </linearGradient>
    </defs>
    <g id="01-通用/01-图标/48px/tool4" stroke="none" stroke-width="1" fill="none" fill-rule="evenodd">
        <path d="M27,7 C27.5522847,7 28,7.44771525 28,8 C28,8.55228475 27.5522847,9 27,9 L26,8.999 L26.0006132,11.1322531 C28.6489042,11.4852129 31.0787325,12.5291581 33.102877,14.0768673 L33.1923882,13.9791847 L33.8994949,13.2720779 C34.6805435,12.4910294 35.9468735,12.4910294 36.7279221,13.2720779 C37.5089706,14.0531265 37.5089706,15.3194565 36.7279221,16.1005051 L36.0208153,16.8076118 L35.9231327,16.897123 C37.8533265,19.4214933 39,22.5768367 39,26 C39,34.2842712 32.2842712,41 24,41 C15.7157288,41 9,34.2842712 9,26 C9,18.3937121 14.6614809,12.1097339 22.0003885,11.1321196 L22,8.999 L21,9 C20.4477153,9 20,8.55228475 20,8 C20,7.44771525 20.4477153,7 21,7 L27,7 Z M24.0178223,15.0073822 C23.4655375,15.0073822 23.0178223,15.4550975 23.0178223,16.0073822 L23.0178223,16.0073822 L23.0171403,22.9537716 C21.7306859,23.3685294 20.8,24.575578 20.8,26 C20.8,27.7673112 22.2326888,29.2 24,29.2 C25.7673112,29.2 27.2,27.7673112 27.2,26 C27.2,24.5884272 26.2860291,23.3903237 25.0175863,22.9651887 L25.0175863,22.9651887 L25.0178223,16.0073822 C25.0178223,15.4550975 24.570107,15.0073822 24.0178223,15.0073822 Z" id="形状结合" fill="url(#linearGradient-1)"></path>
    </g>
</svg>