<?xml version="1.0" encoding="UTF-8"?>
<svg width="32px" height="32px" viewBox="0 0 32 32" version="1.1" xmlns="http://www.w3.org/2000/svg" xmlns:xlink="http://www.w3.org/1999/xlink">
    <title>01 通用/01 图标/32px/tool_eraser_menu</title>
    <g id="01-通用/01-图标/32px/tool_eraser_menu" stroke="none" stroke-width="1" fill="none" fill-rule="evenodd">
        <path d="M30,25.2240382 L30,29.0030085 L30,29.0030085 C30,29.5143015 29.6146156,29.9357012 29.1181217,29.9932925 L29.0016986,30 L25.2184203,30 C24.9422779,30 24.7184203,29.7761424 24.7184203,29.5 C24.7184203,29.367278 24.7711888,29.2400016 24.865099,29.1462146 L29.1466788,24.8702527 C29.3420691,24.6751188 29.6586515,24.6753267 29.8537854,24.8707169 C29.9474117,24.9644662 30,25.0915437 30,25.2240382 Z M21.526302,4.41143046 L27.1668841,10.0446115 C27.9484453,10.8251471 27.9492766,12.0914768 27.1687409,12.873038 C27.1681224,12.8736573 27.1675034,12.8742763 27.1668841,12.8748948 L12.348055,27.67428 L12.348055,27.67428 C11.1784722,28.8423282 9.28220381,28.8423282 8.11262102,27.67428 L3.87718709,23.4444034 C2.7076043,22.2763553 2.7076043,20.382575 3.87718709,19.2145269 L18.6997323,4.41143046 C19.480568,3.63161935 20.7454664,3.63161935 21.526302,4.41143046 Z M8.11262102,17.804568 L5.2889984,20.6244857 C4.89913747,21.0138351 4.89913747,21.6450952 5.2889984,22.0344446 L9.52443233,26.2643211 C9.91429326,26.6536705 10.5463827,26.6536705 10.9362436,26.2643211 L13.7598663,23.4444034 L8.11262102,17.804568 Z" id="形状" fill="#909093"></path>
    </g>
</svg>