<?xml version="1.0" encoding="UTF-8"?>
<svg width="48px" height="48px" viewBox="0 0 48 48" version="1.1" xmlns="http://www.w3.org/2000/svg" xmlns:xlink="http://www.w3.org/1999/xlink">
    <title>01 通用/01 图标/48px/tool2</title>
    <defs>
        <linearGradient x1="50%" y1="0%" x2="50%" y2="100%" id="linearGradient-1">
            <stop stop-color="#FD927E" offset="0%"></stop>
            <stop stop-color="#FA6B5A" offset="100%"></stop>
        </linearGradient>
    </defs>
    <g id="01-通用/01-图标/48px/tool2" stroke="none" stroke-width="1" fill="none" fill-rule="evenodd">
        <path d="M35,9 C37.209139,9 39,10.790861 39,13 L39,35 C39,37.209139 37.209139,39 35,39 L13,39 C10.790861,39 9,37.209139 9,35 L9,13 C9,10.790861 10.790861,9 13,9 L35,9 Z M18,29 C16.3431458,29 15,30.3431458 15,32 C15,33.6568542 16.3431458,35 18,35 C19.6568542,35 21,33.6568542 21,32 C21,30.3431458 19.6568542,29 18,29 Z M30,29 C28.3431458,29 27,30.3431458 27,32 C27,33.6568542 28.3431458,35 30,35 C31.6568542,35 33,33.6568542 33,32 C33,30.3431458 31.6568542,29 30,29 Z M18,21 C16.3431458,21 15,22.3431458 15,24 C15,25.6568542 16.3431458,27 18,27 C19.6568542,27 21,25.6568542 21,24 C21,22.3431458 19.6568542,21 18,21 Z M30,21 C28.3431458,21 27,22.3431458 27,24 C27,25.6568542 28.3431458,27 30,27 C31.6568542,27 33,25.6568542 33,24 C33,22.3431458 31.6568542,21 30,21 Z M18,13 C16.3431458,13 15,14.3431458 15,16 C15,17.6568542 16.3431458,19 18,19 C19.6568542,19 21,17.6568542 21,16 C21,14.3431458 19.6568542,13 18,13 Z M30,13 C28.3431458,13 27,14.3431458 27,16 C27,17.6568542 28.3431458,19 30,19 C31.6568542,19 33,17.6568542 33,16 C33,14.3431458 31.6568542,13 30,13 Z" id="形状结合" fill="url(#linearGradient-1)"></path>
    </g>
</svg>