<?xml version="1.0" encoding="UTF-8"?>
<svg width="32px" height="32px" viewBox="0 0 32 32" version="1.1" xmlns="http://www.w3.org/2000/svg" xmlns:xlink="http://www.w3.org/1999/xlink">
    <title>01 通用/01 图标/32px/top</title>
    <g id="01-通用/01-图标/32px/top" stroke="none" stroke-width="1" fill="none" fill-rule="evenodd">
        <path d="M17.3047901,8.99883965 L17.4142136,9.10050506 L24.4852814,16.1715729 C24.8758057,16.5620972 24.8758057,17.1952621 24.4852814,17.5857864 C24.1226517,17.9484161 23.5508063,17.9743183 23.1582886,17.6634928 L23.0710678,17.5857864 L16.9993684,11.5150482 L17,25.8994949 C17,26.4517797 16.5522847,26.8994949 16,26.8994949 C15.4901987,26.8994949 15.069498,26.5180098 15.0077914,26.0249328 L15,25.8994949 L14.9989633,11.5157553 L8.92893219,17.5857864 C8.5384079,17.9763107 7.90524292,17.9763107 7.51471863,17.5857864 C7.15208893,17.2231567 7.1261868,16.6513113 7.43701226,16.2587937 L7.51471863,16.1715729 L14.5857864,9.10050506 C15.3313328,8.35495869 16.5190467,8.32107022 17.3047901,8.99883965 Z M25,5 C25.5522847,5 26,5.44771525 26,6 C26,6.55228475 25.5522847,7 25,7 L7,7 C6.44771525,7 6,6.55228475 6,6 C6,5.44771525 6.44771525,5 7,5 L25,5 Z" id="形状结合" fill="#909093"></path>
    </g>
</svg>