<?xml version="1.0" encoding="UTF-8"?>
<svg width="40px" height="40px" viewBox="0 0 40 40" version="1.1" xmlns="http://www.w3.org/2000/svg" xmlns:xlink="http://www.w3.org/1999/xlink">
    <title>01 通用/01 图标/40px_导航栏/windows</title>
    <g id="01-通用/01-图标/40px_导航栏/windows" stroke="none" stroke-width="1" fill="none" fill-rule="evenodd">
        <path d="M33,20.9999287 L33,31.8409375 C33,32.3932222 32.5522847,32.8409375 32,32.8409375 C31.9509518,32.8409375 31.90197,32.8373289 31.8534513,32.8301409 L18.499,30.8509287 L18.499,21 L33,20.9999287 Z M6,20.9999287 L16.499,21 L16.499,30.5549287 L6.85345134,29.1264372 C6.36311938,29.0537955 6,28.6329174 6,28.1372338 L6,20.9999287 Z M32.9892035,7.01251386 C32.9963914,7.06103254 33,7.1100143 33,7.15906252 L33,18.9999287 L18.5,19 L18.5,8.14692868 L31.8534513,6.16985906 C32.3997733,6.08892247 32.9082669,6.46619188 32.9892035,7.01251386 Z M16.5,8.44392868 L16.5,19 L6,18.9999287 L6,10.8627662 C6,10.3670826 6.36311938,9.94620454 6.85345134,9.87356276 L16.5,8.44392868 Z" id="形状结合" fill="#000000"></path>
    </g>
</svg>