<?xml version="1.0" encoding="UTF-8"?>
<svg width="32px" height="32px" viewBox="0 0 32 32" version="1.1" xmlns="http://www.w3.org/2000/svg" xmlns:xlink="http://www.w3.org/1999/xlink">
    <title>01 通用/01 图标/32px/zoom_in</title>
    <g id="01-通用/01-图标/32px/zoom_in" stroke="none" stroke-width="1" fill="none" fill-rule="evenodd">
        <path d="M21.6720162,6.20361151 C25.7063135,10.2379088 25.930328,16.6396122 22.3440597,20.9368218 L27.296954,25.8906087 C27.6852459,26.2789705 27.6852175,26.9085639 27.2968907,27.2968907 C26.9085874,27.685194 26.2790233,27.685194 25.89072,27.2968907 C25.890712,27.2968827 25.890704,27.2968747 25.890696,27.2968668 L20.9375874,22.3434207 L20.9375874,22.3434207 C16.6403726,25.9303546 10.2381483,25.7065531 6.20361151,21.6720162 C1.9321295,17.4005342 1.9321295,10.4750935 6.20361151,6.20361151 C10.4750935,1.9321295 17.4005342,1.9321295 21.6720162,6.20361151 Z M7.60983013,7.60983013 C4.1149812,11.1046791 4.1149812,16.7709487 7.60983013,20.2657976 C11.1046791,23.7606466 16.7709487,23.7606466 20.2657976,20.2657976 C23.7606466,16.7709487 23.7606466,11.1046791 20.2657976,7.60983013 C16.7709487,4.1149812 11.1046791,4.1149812 7.60983013,7.60983013 Z M14.7613091,9.78982406 L14.7605633,12.7728642 L14.7605633,12.7728642 L17.7445978,12.7728642 C18.2937603,12.7728642 18.7389445,13.2180484 18.7389445,13.767211 C18.7389445,14.3163735 18.2937603,14.7615577 17.7445978,14.7615577 L14.7605633,14.7615577 L14.7605633,14.7615577 L14.7613091,17.7445979 C14.7614463,18.2936231 14.3164847,18.7388072 13.7674595,18.7389445 C13.7673766,18.7389445 13.7672938,18.7389445 13.767211,18.7389445 C13.2180082,18.7389445 12.772753,18.2938006 12.7726157,17.7445979 L12.7718699,14.7615577 L12.7718699,14.7615577 L9.78982409,14.7615577 C9.24066156,14.7615577 8.79547737,14.3163735 8.79547737,13.767211 C8.79547737,13.2180484 9.24066156,12.7728642 9.78982409,12.7728642 L12.7718699,12.7728642 L12.7718699,12.7728642 L12.7726157,9.78982406 C12.772753,9.24062134 13.2180082,8.79547737 13.767211,8.79547737 C14.3162362,8.79547737 14.7613091,9.24055028 14.7613091,9.78957553 C14.7613091,9.78965838 14.7613091,9.78974122 14.7613091,9.78982406 Z" id="形状" fill="#909093"></path>
    </g>
</svg>