<?xml version="1.0" encoding="UTF-8"?>
<svg width="40px" height="40px" viewBox="0 0 40 40" version="1.1" xmlns="http://www.w3.org/2000/svg" xmlns:xlink="http://www.w3.org/1999/xlink">
    <title>01 通用/01 图标/40px/nav/minium</title>
    <g id="01-通用/01-图标/40px/nav/minium" stroke="none" stroke-width="1" fill="none" fill-rule="evenodd">
        <path d="M31.7333333,7 C34.0183418,7 35.8838175,8.82429918 35.9947783,11.1170563 L36,11.3333333 L36,28.6666667 C36,30.9873783 34.203767,32.8820021 31.946283,32.9946968 L31.7333333,33 L8.26666667,33 C5.98165825,33 4.11618253,31.1757008 4.00522166,28.8829437 L4,28.6666667 L4,11.3333333 C4,9.01262166 5.79623304,7.11799788 8.05371697,7.00530325 L8.26666667,7 L31.7333333,7 Z M30.725,11 L9.275,11 C8.77498506,11 8.36288052,11.3860402 8.30655954,11.8833789 L8.3,12 L8.3,28 C8.3,28.5128358 8.67638919,28.9355072 9.1612944,28.9932723 L9.275,29 L30.725,29 C31.2250149,29 31.6371195,28.6139598 31.6934405,28.1166211 L31.7,28 L31.7,12 C31.7,11.4871642 31.3236108,11.0644928 30.8387056,11.0067277 L30.725,11 Z M19,23 C19.5522847,23 20,23.5969537 20,24.3333333 L20,25.6666667 C20,26.4030463 19.5522847,27 19,27 L11,27 C10.4477153,27 10,26.4030463 10,25.6666667 L10,24.3333333 C10,23.5969537 10.4477153,23 11,23 L19,23 Z" id="形状" fill="#FFFFFF"></path>
    </g>
</svg>