<?xml version="1.0" encoding="UTF-8"?>
<svg width="40px" height="40px" viewBox="0 0 40 40" version="1.1" xmlns="http://www.w3.org/2000/svg" xmlns:xlink="http://www.w3.org/1999/xlink">
    <title>01 通用/01 图标/40px/nav/toolbox</title>
    <g id="01-通用/01-图标/40px/nav/toolbox" stroke="none" stroke-width="1" fill="none" fill-rule="evenodd">
        <path d="M16.977884,21 C17.5342262,21 17.985234,21.4477234 17.9852666,22 L17.9852771,22.5 C17.9852771,23.5543618 18.8071611,24.4181651 19.8496391,24.4945143 L20.0000002,24.5 C21.0621238,24.5 21.932286,23.6841222 22.0091972,22.6492623 L22.0147233,22.5 L22.0147128,22 C22.0146825,21.4871642 22.4035542,21.0644848 22.9045528,21.0067093 L23.0220533,21 L31.9926064,21 C32.5489568,21 32.9999679,21.4477153 32.9999679,22 L32.9958309,22.0905357 L32.171626,31.0905357 C32.1244559,31.6056149 31.6894121,32 31.1684015,32 L8.83159899,32 C8.31058837,32 7.87554456,31.6056149 7.82837447,31.0905357 L7.00416957,22.0905357 C6.95379997,21.5405191 7.36212626,21.0541083 7.91619186,21.0041068 L8.00739409,21 L16.977884,21 Z M21.75,4.5 C25.3609013,4.5 28.3667074,7.10205177 28.4956882,10.4428713 L28.5,10.6666667 L28.4997822,11 L32.1172178,11 C32.6215411,11 33.0469421,11.3755364 33.1094957,11.8759653 L33.8594957,17.8759653 C33.9279982,18.4239852 33.5392725,18.9237754 32.9912525,18.9922779 C32.9501077,18.997421 32.9086828,19 32.8672178,19 L7.13278222,19 C6.58049747,19 6.13278222,18.5522847 6.13278222,18 C6.13278222,17.958535 6.13536124,17.9171101 6.14050434,17.8759653 L6.89050434,11.8759653 C6.95305794,11.3755364 7.37845895,11 7.88278222,11 L11.4997822,11 L11.5,10.6666667 C11.5,7.29393312 14.4273082,4.61856105 18.0101946,4.50383444 L18.25,4.5 L21.75,4.5 Z M21.75,7.5 L18.25,7.5 C16.2124153,7.5 14.6099944,8.86400125 14.5054303,10.4968384 L14.5,10.6666667 L14.4997822,11 L25.4997822,11 L25.5,10.6666667 C25.5,9.01659133 23.9654986,7.59758757 21.9591887,7.50482074 L21.75,7.5 Z" id="形状" fill="#FFFFFF"></path>
    </g>
</svg>