<svg width="38" height="38" viewBox="0 0 38 38" fill="none" xmlns="http://www.w3.org/2000/svg">
<path d="M10.4324 4C10.4324 5.95077 6.61719 5.95077 6.61719 7.89768C6.61719 9.84845 10.4324 9.84845 10.4324 11.7992C10.4324 13.75 6.61719 13.75 6.61719 15.7008C6.61719 17.6515 10.4324 17.6515 10.4324 19.6023C10.4324 21.5531 6.61719 21.5531 6.61719 23.5039" stroke="#808080" stroke-width="2" stroke-miterlimit="10" stroke-linecap="round"/>
<path d="M20.6843 4C20.6843 5.95077 16.8691 5.95077 16.8691 7.89768C16.8691 9.84845 20.6843 9.84845 20.6843 11.7992C20.6843 13.75 16.8691 13.75 16.8691 15.7008C16.8691 17.6515 20.6843 17.6515 20.6843 19.6023C20.6843 21.5531 16.8691 21.5531 16.8691 23.5039" stroke="#808080" stroke-width="2" stroke-miterlimit="10" stroke-linecap="round"/>
<path d="M30.9382 4C30.9382 5.95077 27.123 5.95077 27.123 7.89768C27.123 9.84845 30.9382 9.84845 30.9382 11.7992C30.9382 13.75 27.123 13.75 27.123 15.7008C27.123 17.6515 30.9382 17.6515 30.9382 19.6023C30.9382 21.5531 27.123 21.5531 27.123 23.5039" stroke="#808080" stroke-width="2" stroke-miterlimit="10" stroke-linecap="round"/>
<rect x="5" y="28.2578" width="28.1395" height="4.97716" rx="2.48858" stroke="#808080" stroke-width="2"/>
</svg>
