<svg width="38" height="38" viewBox="0 0 38 38" fill="none" xmlns="http://www.w3.org/2000/svg">
<path d="M29.0231 15.793C27.5542 15.793 26.3525 14.8532 26.3525 13.7044V4.08859C26.3525 2.93986 25.1507 2 23.6819 2H14.4576C12.9888 2 11.787 2.93986 11.787 4.08859V13.7044C11.787 14.8532 10.5853 15.793 9.11645 15.793H5.42034C3.95151 15.793 3.55626 16.4864 4.54438 17.3386L17.2725 28.2869C18.2606 29.1349 19.879 29.1349 20.8671 28.2869L33.5951 17.3386C34.5833 16.4906 34.188 15.793 32.7192 15.793H29.0231V15.793Z" stroke="#808080" stroke-width="2" stroke-miterlimit="10"/>
<path d="M8.30943 23.9531C7.79133 24.2163 7.41211 24.5296 7.41211 24.9974C7.41211 26.4427 11.0708 26.4427 11.0708 27.8838C11.0708 29.3291 7.41211 29.3291 7.41211 30.7703C7.41211 32.2156 11.0708 32.2156 11.0708 33.6609C11.0708 35.1062 7.41211 35.1062 7.41211 36.5515" stroke="#808080" stroke-width="2" stroke-miterlimit="10" stroke-linecap="round"/>
<path d="M19.8477 32.541C20.4406 32.8209 20.8999 33.1509 20.8999 33.6605C20.8999 35.1058 17.2412 35.1058 17.2412 36.5511" stroke="#808080" stroke-width="2" stroke-miterlimit="10" stroke-linecap="round"/>
<path d="M27.6321 25.8477C28.6576 26.5285 30.73 26.8001 30.73 27.8861C30.73 29.3314 27.0713 29.3314 27.0713 30.7725C27.0713 32.2178 30.73 32.2178 30.73 33.6631C30.73 35.1085 27.0713 35.1084 27.0713 36.5538" stroke="#808080" stroke-width="2" stroke-miterlimit="10" stroke-linecap="round"/>
</svg>
