<svg width="52" height="52" viewBox="0 0 52 52" fill="none" xmlns="http://www.w3.org/2000/svg">
<path fill-rule="evenodd" clip-rule="evenodd" d="M19 9C19 7.89543 19.8954 7 21 7H31C32.1046 7 33 7.89543 33 9V10C33 11.1046 32.1046 12 31 12H28V13.4988C28 13.6719 27.978 13.8398 27.9367 14H42C44.7614 14 47 16.2386 47 19V26H50C50.5523 26 51 26.4477 51 27V33C51 33.5523 50.5523 34 50 34H47V41C47 43.7614 44.7614 46 42 46H10C7.23858 46 5 43.7614 5 41L5 33H2C1.44772 33 1 32.5523 1 32V26C1 25.4477 1.44772 25 2 25H5V19C5 16.2386 7.23858 14 10 14H24.0633C24.022 13.8398 24 13.6719 24 13.4988V12L21 12C19.8954 12 19 11.1046 19 10V9ZM15 27C13.8954 27 13 27.8954 13 29V31C13 32.1046 13.8954 33 15 33H17C18.1046 33 19 32.1046 19 31V29C19 27.8954 18.1046 27 17 27H15ZM23 29C23 27.8954 23.8954 27 25 27H27C28.1046 27 29 27.8954 29 29V31C29 32.1046 28.1046 33 27 33H25C23.8954 33 23 32.1046 23 31V29ZM35 27C33.8954 27 33 27.8954 33 29V31C33 32.1046 33.8954 33 35 33H37C38.1046 33 39 32.1046 39 31V29C39 27.8954 38.1046 27 37 27H35Z" fill="#C4C4C4"/>
</svg>
