<svg width="52" height="52" viewBox="0 0 52 52" fill="none" xmlns="http://www.w3.org/2000/svg">
<path fill-rule="evenodd" clip-rule="evenodd" d="M27.1261 4.34713C26.4467 3.88429 25.5533 3.88429 24.8739 4.34713L4.87393 17.9727C4.32717 18.3452 4 18.964 4 19.6256V46.0015C4 47.106 4.89543 48.0015 6 48.0015H18C19.1046 48.0015 20 47.106 20 46.0015V29.7893C20 28.6847 20.8954 27.7893 22 27.7893H31C32.1046 27.7893 33 28.6847 33 29.7893V46.0015C33 47.106 33.8954 48.0015 35 48.0015H46C47.1046 48.0015 48 47.106 48 46.0015V19.6256C48 18.964 47.6728 18.3452 47.1261 17.9727L27.1261 4.34713Z" fill="#C4C4C4"/>
</svg>
