<svg width="38" height="38" viewBox="0 0 38 38" fill="none" xmlns="http://www.w3.org/2000/svg">
<mask id="path-1-inside-1_539_3210" fill="white">
<path fill-rule="evenodd" clip-rule="evenodd" d="M26.9589 26.9985C30.8471 24.475 33.4173 20.1077 33.4173 15.1429C33.4173 7.33197 27.0558 1 19.2086 1C11.3614 1 5 7.33197 5 15.1429C5 20.1077 7.57023 24.4751 11.4585 26.9986V28.57C11.4585 29.6746 12.354 30.57 13.4585 30.57H24.9589C26.0634 30.57 26.9589 29.6746 26.9589 28.57V26.9985Z"/>
</mask>
<path d="M26.9589 26.9985L25.8701 25.3208L24.9589 25.9122V26.9985H26.9589ZM11.4585 26.9986H13.4585V25.9123L12.5473 25.3209L11.4585 26.9986ZM31.4173 15.1429C31.4173 19.3993 29.2165 23.149 25.8701 25.3208L28.0477 28.6761C32.4777 25.801 35.4173 20.816 35.4173 15.1429H31.4173ZM19.2086 3C25.96 3 31.4173 8.44528 31.4173 15.1429H35.4173C35.4173 6.21866 28.1517 -1 19.2086 -1V3ZM7 15.1429C7 8.44528 12.4572 3 19.2086 3V-1C10.2656 -1 3 6.21866 3 15.1429H7ZM12.5473 25.3209C9.20086 23.1491 7 19.3994 7 15.1429H3C3 20.8161 5.9396 25.8011 10.3697 28.6762L12.5473 25.3209ZM13.4585 28.57V26.9986H9.45853V28.57H13.4585ZM13.4585 28.57H13.4585H9.45853C9.45853 30.7792 11.2494 32.57 13.4585 32.57V28.57ZM24.9589 28.57H13.4585V32.57H24.9589V28.57ZM24.9589 28.57V32.57C27.168 32.57 28.9589 30.7792 28.9589 28.57H24.9589ZM24.9589 26.9985V28.57H28.9589V26.9985H24.9589Z" fill="yellow" mask="url(#path-1-inside-1_539_3210)"/>
<path d="M15.333 33.1426H23.0832" stroke="yellow" stroke-width="2" stroke-linecap="round"/>
<path d="M17.916 37H20.4994" stroke="yellow" stroke-width="2" stroke-linecap="round"/>
<path d="M22.1309 8.37891C23.41 8.55791 26.338 10.9152 26.6179 13.5511" stroke="yellow" stroke-width="2" stroke-linecap="round"/>
</svg>
