<svg width="52" height="52" viewBox="0 0 52 52" fill="none" xmlns="http://www.w3.org/2000/svg">
<path fill-rule="evenodd" clip-rule="evenodd" d="M9 4C6.23858 4 4 6.23858 4 9V43C4 45.7614 6.23858 48 9 48H43C45.7614 48 48 45.7614 48 43V9C48 6.23858 45.7614 4 43 4H9ZM11.333 14.168C10.3665 14.168 9.58301 14.9515 9.58301 15.918C9.58301 16.8845 10.3665 17.668 11.333 17.668H37.8043L35.8249 21.534H18.167C16.0064 21.534 14.6897 23.9113 15.8358 25.7428L19.1938 31.1089C19.6965 31.9122 20.5774 32.4001 21.525 32.4001H28.5993L24.9619 37.865C24.4264 38.6696 24.6445 39.7559 25.4491 40.2914C26.2536 40.827 27.34 40.6089 27.8755 39.8043L32.2887 33.1738C33.5052 31.3462 32.195 28.9001 29.9995 28.9001H21.9404L19.5211 25.034H36.2835C37.3156 25.034 38.2609 24.4561 38.7313 23.5373L41.4787 18.1712C42.4156 16.3414 41.0867 14.168 39.0309 14.168H11.333Z" fill="white"/>
</svg>
