<svg width="52" height="52" viewBox="0 0 52 52" fill="none" xmlns="http://www.w3.org/2000/svg">
<path fill-rule="evenodd" clip-rule="evenodd" d="M38.8658 45.2841L49.1337 27.4995C49.6696 26.5713 49.6696 25.4277 49.1337 24.4995L38.8658 6.71484C38.3299 5.78664 37.3395 5.21484 36.2677 5.21484H15.7318C14.66 5.21484 13.6696 5.78664 13.1337 6.71484L2.86579 24.4995C2.32989 25.4277 2.32989 26.5712 2.86579 27.4995L13.1337 45.2841C13.6696 46.2123 14.66 46.7841 15.7318 46.7841L36.2677 46.7841C37.3395 46.7841 38.3299 46.2123 38.8658 45.2841ZM17.9998 25.9995C17.9998 30.4177 21.5815 33.9995 25.9998 33.9995C30.418 33.9995 33.9998 30.4177 33.9998 25.9995C33.9998 21.5812 30.418 17.9995 25.9998 17.9995C21.5815 17.9995 17.9998 21.5812 17.9998 25.9995Z" fill="#C4C4C4"/>
</svg>
